<?xml version="1.0" encoding="UTF-8"?>
<!-- Generator: visioncortex VTracer 0.6.12 -->
<svg version="1.1" xmlns="http://www.w3.org/2000/svg" width="2400" height="1792">
<path d="M0,0 L45,0 L77,3 L107,8 L137,15 L173,27 L197,37 L220,48 L243,61 L273,81 L291,95 L306,108 L322,123 L332,133 L339,141 L345,148 L366,147 L489,138 L495,138 L497,122 L502,95 L506,87 L511,82 L514,81 L526,81 L600,95 L688,111 L699,114 L712,132 L723,149 L739,173 L743,180 L741,196 L733,239 L719,315 L709,369 L696,440 L693,452 L688,458 L684,460 L671,460 L601,447 L598,446 L599,454 L599,466 L595,474 L590,477 L576,479 L479,486 L490,527 L502,570 L502,577 L499,583 L493,588 L467,596 L418,610 L341,632 L279,650 L269,650 L262,646 L258,639 L240,574 L214,481 L201,434 L186,381 L175,341 L174,338 L174,328 L178,321 L188,316 L221,306 L285,288 L331,275 L333,275 L331,257 L325,181 L316,184 L305,188 L301,193 L275,205 L245,218 L211,233 L181,246 L145,262 L104,280 L63,298 L22,316 L-8,329 L-49,347 L-81,361 L-122,379 L-134,385 L-120,404 L-107,422 L-94,440 L-81,458 L-68,476 L-55,494 L-43,511 L-30,529 L-17,547 L-9,558 L4,553 L33,540 L74,522 L113,505 L156,486 L184,474 L189,475 L192,478 L192,484 L189,487 L152,503 L109,522 L66,541 L36,554 L7,567 L50,586 L87,602 L123,618 L162,635 L205,654 L242,670 L281,687 L322,705 L352,718 L393,736 L423,749 L466,768 L468,769 L469,631 L474,626 L480,627 L482,630 L482,770 L510,757 L540,744 L570,731 L609,714 L650,696 L699,675 L728,662 L769,644 L810,626 L849,609 L890,591 L924,576 L943,568 L946,568 L946,566 L937,563 L914,553 L880,538 L850,525 L818,511 L777,493 L750,481 L725,470 L720,467 L719,465 L719,459 L722,456 L728,456 L759,470 L798,487 L839,505 L869,518 L898,531 L939,549 L962,559 L964,554 L977,536 L989,519 L1002,501 L1016,482 L1030,462 L1044,443 L1057,425 L1069,408 L1082,390 L1085,386 L1085,384 L1056,371 L1015,353 L985,340 L960,329 L928,315 L887,297 L857,284 L816,266 L772,247 L759,240 L758,233 L761,230 L765,229 L781,235 L818,252 L848,265 L875,277 L905,290 L928,300 L929,285 L934,259 L939,241 L949,217 L960,197 L970,183 L978,173 L989,161 L1000,150 L1014,139 L1027,130 L1044,120 L1066,110 L1088,103 L1114,98 L1134,96 L1156,96 L1181,99 L1206,105 L1224,111 L1246,121 L1267,134 L1285,148 L1300,162 L1311,174 L1325,193 L1337,214 L1346,234 L1353,255 L1358,277 L1360,291 L1361,305 L1361,321 L1359,343 L1354,367 L1346,391 L1337,411 L1325,431 L1313,447 L1301,461 L1291,471 L1280,480 L1267,490 L1246,503 L1225,513 L1201,521 L1178,526 L1162,528 L1126,528 L1105,525 L1081,519 L1061,512 L1042,503 L1026,493 L1021,498 L1009,515 L996,533 L983,551 L973,565 L974,569 L987,588 L999,604 L1012,622 L1025,640 L1039,659 L1049,673 L1062,691 L1075,709 L1089,728 L1102,746 L1115,764 L1127,782 L1127,788 L1122,793 L1088,808 L1047,826 L1015,840 L987,852 L971,859 L970,1097 L965,1101 L925,1119 L888,1135 L847,1153 L824,1163 L785,1180 L750,1195 L709,1213 L663,1233 L629,1248 L594,1263 L558,1279 L516,1297 L484,1311 L479,1313 L471,1312 L429,1294 L392,1278 L356,1262 L314,1244 L278,1228 L243,1213 L202,1195 L158,1176 L115,1157 L80,1142 L39,1124 L9,1111 L-15,1100 L-18,1096 L-19,859 L-49,846 L-59,844 L-77,841 L-111,831 L-136,822 L-156,813 L-172,805 L-189,796 L-211,782 L-227,770 L-239,761 L-250,752 L-260,743 L-268,736 L-291,713 L-298,705 L-309,692 L-321,676 L-335,656 L-351,629 L-360,612 L-372,585 L-382,557 L-389,534 L-395,508 L-400,477 L-402,455 L-403,435 L-403,414 L-401,385 L-397,355 L-391,326 L-383,297 L-372,266 L-359,237 L-347,214 L-333,191 L-321,174 L-311,161 L-300,148 L-293,140 L-284,130 L-264,110 L-256,103 L-243,92 L-224,78 L-211,69 L-190,56 L-163,42 L-146,34 L-120,24 L-99,17 L-68,9 L-33,3 L-15,1 Z M516,94 L514,101 L508,137 L519,138 L530,147 L543,159 L554,168 L561,175 L569,182 L576,188 L578,193 L588,325 L596,429 L597,433 L654,444 L674,448 L680,448 L682,445 L701,342 L713,276 L722,228 L729,188 L729,186 L694,179 L684,175 L681,170 L680,164 L687,129 L686,124 L604,109 L534,96 L523,94 Z M698,137 L696,143 L693,162 L694,167 L719,172 L722,171 L710,153 L699,137 Z M502,150 L412,157 L341,162 L338,163 L338,179 L350,341 L360,479 L362,482 L446,476 L563,467 L580,466 L586,464 L586,451 L571,257 L567,205 L566,199 L539,201 L523,201 L517,198 L514,192 L512,169 L510,150 Z M524,159 L524,173 L526,190 L556,188 L554,184 L543,175 L531,164 Z M332,288 L330,290 L332,290 L333,297 L334,297 L334,288 Z M326,290 Z M304,296 L251,311 L191,328 L186,331 L190,347 L210,419 L226,476 L245,544 L259,594 L270,634 L272,637 L280,636 L427,594 L487,577 L489,575 L488,567 L470,504 L465,503 L430,508 L353,518 L341,518 L336,513 L334,502 L318,372 L309,303 L308,296 Z M339,373 L340,375 Z M340,388 Z M346,471 L346,478 L347,478 L347,471 Z M347,481 L348,483 Z M348,484 L349,486 Z M349,486 Z M461,487 L465,489 L465,487 Z M350,488 Z M351,489 Z M465,489 L466,492 Z M395,492 Z M397,492 Z M382,493 L382,494 L389,494 L389,493 Z M390,493 Z M-10,575 L-20,589 L-33,607 L-46,625 L-59,643 L-72,661 L-86,680 L-99,698 L-112,716 L-126,735 L-139,753 L-149,767 L-159,781 L-158,784 L-124,799 L-94,812 L-53,830 L-10,849 L20,862 L65,882 L95,895 L136,913 L166,926 L209,945 L241,959 L282,977 L311,990 L316,991 L324,981 L333,968 L346,950 L359,932 L371,915 L385,896 L397,879 L410,861 L423,843 L436,825 L449,807 L462,789 L466,782 L427,765 L386,747 L345,729 L315,716 L272,697 L244,685 L203,667 L164,650 L123,632 L80,613 L48,599 L7,581 L-8,575 Z M959,575 L918,593 L888,606 L861,618 L829,632 L790,649 L749,667 L708,685 L667,703 L637,716 L596,734 L566,747 L527,764 L486,782 L490,789 L504,808 L517,826 L530,844 L540,858 L550,872 L563,890 L576,908 L589,926 L602,944 L612,958 L625,976 L635,990 L638,991 L672,976 L718,956 L761,937 L791,924 L834,905 L866,891 L907,873 L950,854 L980,841 L1021,823 L1062,805 L1092,792 L1110,784 L1110,780 L1100,766 L1087,748 L1077,734 L1063,715 L1050,697 L1037,679 L1023,660 L1010,642 L997,624 L984,606 L971,588 L962,576 Z M468,801 L456,818 L443,836 L430,854 L417,872 L404,890 L391,908 L381,922 L368,940 L355,958 L342,976 L330,993 L322,1004 L316,1005 L286,992 L243,973 L202,955 L170,941 L129,923 L90,906 L58,892 L22,876 L-4,865 L-5,865 L-5,1090 L5,1095 L31,1106 L62,1120 L88,1131 L131,1150 L166,1165 L191,1176 L230,1193 L271,1211 L303,1225 L333,1238 L370,1254 L400,1267 L443,1286 L467,1296 L469,1296 L469,801 Z M482,800 L483,1297 L507,1287 L543,1271 L573,1258 L603,1245 L644,1227 L674,1214 L710,1198 L738,1186 L770,1172 L800,1159 L837,1143 L878,1125 L919,1107 L949,1094 L957,1090 L957,865 L948,868 L919,881 L878,899 L837,917 L807,930 L766,948 L723,967 L693,980 L648,1000 L636,1005 L631,1004 L626,999 L613,980 L601,964 L588,945 L578,932 L568,918 L555,900 L543,883 L529,864 L517,847 L504,829 L491,811 L483,800 Z " fill="#8AAC9C" transform="translate(724,232)"/>
<path d="M0,0 L22,0 L47,3 L72,9 L90,15 L112,25 L133,38 L151,52 L166,66 L177,78 L191,97 L203,118 L212,138 L219,159 L224,181 L226,195 L227,209 L227,225 L225,247 L220,271 L212,295 L203,315 L191,335 L179,351 L167,365 L157,375 L146,384 L133,394 L112,407 L91,417 L67,425 L44,430 L28,432 L-8,432 L-29,429 L-53,423 L-73,416 L-92,407 L-108,397 L-109,395 L-96,376 L-86,363 L-74,346 L-61,328 L-48,310 L-35,292 L-33,289 L-33,282 L-47,275 L-77,262 L-109,248 L-143,233 L-175,219 L-207,205 L-203,177 L-197,152 L-190,132 L-182,115 L-172,98 L-158,79 L-144,64 L-134,54 L-120,43 L-107,34 L-90,24 L-68,14 L-46,7 L-20,2 Z " fill="#CABAEA" transform="translate(1858,328)"/>
<path d="M0,0 L7,1 L9,3 L9,9 L1,14 L-42,33 L-76,48 L-106,61 L-149,80 L-190,98 L-231,116 L-272,134 L-302,147 L-343,165 L-375,179 L-416,197 L-428,203 L-414,222 L-401,240 L-388,258 L-375,276 L-362,294 L-349,312 L-337,329 L-324,347 L-311,365 L-303,376 L-290,371 L-261,358 L-220,340 L-181,323 L-138,304 L-110,292 L-105,293 L-102,296 L-102,302 L-105,305 L-142,321 L-185,340 L-228,359 L-258,372 L-287,385 L-244,404 L-207,420 L-171,436 L-132,453 L-89,472 L-52,488 L-13,505 L28,523 L58,536 L99,554 L129,567 L172,586 L174,587 L175,449 L180,444 L186,445 L188,448 L188,588 L216,575 L246,562 L276,549 L315,532 L356,514 L405,493 L434,480 L475,462 L516,444 L555,427 L596,409 L630,394 L649,386 L652,386 L652,384 L643,381 L620,371 L586,356 L556,343 L524,329 L483,311 L456,299 L431,288 L426,285 L425,283 L425,277 L428,274 L434,274 L465,288 L504,305 L545,323 L575,336 L604,349 L645,367 L668,377 L670,372 L683,354 L695,337 L708,319 L722,300 L736,280 L750,261 L763,243 L775,226 L788,208 L791,204 L791,202 L762,189 L721,171 L691,158 L666,147 L634,133 L593,115 L563,102 L522,84 L478,65 L465,58 L464,51 L467,48 L471,47 L487,53 L524,70 L554,83 L581,95 L611,108 L632,117 L644,123 L674,136 L708,151 L749,169 L788,186 L806,194 L808,196 L808,203 L795,221 L782,239 L772,253 L759,271 L746,289 L736,303 L728,315 L715,333 L702,351 L689,369 L679,383 L680,387 L693,406 L705,422 L718,440 L731,458 L745,477 L755,491 L768,509 L781,527 L795,546 L808,564 L821,582 L833,600 L833,606 L828,611 L794,626 L753,644 L721,658 L693,670 L677,677 L676,915 L671,919 L631,937 L594,953 L553,971 L530,981 L491,998 L456,1013 L415,1031 L369,1051 L335,1066 L300,1081 L264,1097 L222,1115 L190,1129 L185,1131 L177,1130 L135,1112 L98,1096 L62,1080 L20,1062 L-16,1046 L-51,1031 L-92,1013 L-136,994 L-179,975 L-214,960 L-255,942 L-285,929 L-309,918 L-312,914 L-313,677 L-343,664 L-374,650 L-399,639 L-436,623 L-467,609 L-469,607 L-469,601 L-462,590 L-452,576 L-439,558 L-426,540 L-413,522 L-399,503 L-386,485 L-373,467 L-359,448 L-349,434 L-336,416 L-323,398 L-314,385 L-316,381 L-330,362 L-343,344 L-355,327 L-368,309 L-381,291 L-394,273 L-407,255 L-420,237 L-433,218 L-444,203 L-445,197 L-439,192 L-409,179 L-368,161 L-338,148 L-297,130 L-256,112 L-215,94 L-185,81 L-156,68 L-115,50 L-83,36 L-44,19 L-12,5 Z M-304,393 L-314,407 L-327,425 L-340,443 L-353,461 L-366,479 L-380,498 L-393,516 L-406,534 L-420,553 L-433,571 L-443,585 L-453,599 L-452,602 L-418,617 L-388,630 L-347,648 L-304,667 L-274,680 L-229,700 L-199,713 L-158,731 L-128,744 L-85,763 L-53,777 L-12,795 L17,808 L22,809 L30,799 L39,786 L52,768 L65,750 L77,733 L91,714 L103,697 L116,679 L129,661 L142,643 L155,625 L168,607 L172,600 L133,583 L92,565 L51,547 L21,534 L-22,515 L-50,503 L-91,485 L-130,468 L-171,450 L-214,431 L-246,417 L-287,399 L-302,393 Z M665,393 L624,411 L594,424 L567,436 L535,450 L496,467 L455,485 L414,503 L373,521 L343,534 L302,552 L272,565 L233,582 L192,600 L196,607 L210,626 L223,644 L236,662 L246,676 L256,690 L269,708 L282,726 L295,744 L308,762 L318,776 L331,794 L341,808 L344,809 L378,794 L424,774 L467,755 L497,742 L540,723 L572,709 L613,691 L656,672 L686,659 L727,641 L768,623 L798,610 L816,602 L816,598 L806,584 L793,566 L783,552 L769,533 L756,515 L743,497 L729,478 L716,460 L703,442 L690,424 L677,406 L668,394 Z M174,619 L162,636 L149,654 L136,672 L123,690 L110,708 L97,726 L87,740 L74,758 L61,776 L48,794 L36,811 L28,822 L22,823 L-8,810 L-51,791 L-92,773 L-124,759 L-165,741 L-204,724 L-236,710 L-272,694 L-298,683 L-299,683 L-299,908 L-289,913 L-263,924 L-232,938 L-206,949 L-163,968 L-128,983 L-103,994 L-64,1011 L-23,1029 L9,1043 L39,1056 L76,1072 L106,1085 L149,1104 L173,1114 L175,1114 L175,619 Z M188,618 L189,1115 L213,1105 L249,1089 L279,1076 L309,1063 L350,1045 L380,1032 L416,1016 L444,1004 L476,990 L506,977 L543,961 L584,943 L625,925 L655,912 L663,908 L663,683 L654,686 L625,699 L584,717 L543,735 L513,748 L472,766 L429,785 L399,798 L354,818 L342,823 L337,822 L332,817 L319,798 L307,782 L294,763 L284,750 L274,736 L261,718 L249,701 L235,682 L223,665 L210,647 L197,629 L189,618 Z " fill="#568384" transform="translate(1018,414)"/>
<path d="M0,0 L12,0 L86,14 L174,30 L185,33 L198,51 L209,68 L225,92 L229,99 L227,115 L219,158 L205,234 L195,288 L182,359 L179,371 L174,377 L170,379 L157,379 L87,366 L84,365 L85,373 L85,385 L81,393 L76,396 L62,398 L-35,405 L-24,446 L-12,489 L-12,496 L-15,502 L-21,507 L-47,515 L-96,529 L-173,551 L-235,569 L-245,569 L-252,565 L-256,558 L-274,493 L-300,400 L-313,353 L-328,300 L-339,260 L-340,257 L-340,247 L-336,240 L-326,235 L-293,225 L-229,207 L-183,194 L-181,194 L-183,176 L-189,98 L-189,80 L-185,74 L-180,70 L-174,68 L-79,61 L-25,57 L-19,57 L-17,41 L-12,14 L-8,6 L-3,1 Z M2,13 L0,20 L-6,56 L5,57 L16,66 L29,78 L40,87 L47,94 L55,101 L62,107 L64,112 L74,244 L82,348 L83,352 L140,363 L160,367 L166,367 L168,364 L187,261 L199,195 L208,147 L215,107 L215,105 L180,98 L170,94 L167,89 L166,83 L173,48 L172,43 L90,28 L20,15 L9,13 Z M184,56 L182,62 L179,81 L180,86 L205,91 L208,90 L196,72 L185,56 Z M-12,69 L-102,76 L-173,81 L-176,82 L-176,98 L-164,260 L-154,398 L-152,401 L-68,395 L49,386 L66,385 L72,383 L72,370 L57,176 L53,124 L52,118 L25,120 L9,120 L3,117 L0,111 L-2,88 L-4,69 Z M10,78 L10,92 L12,109 L42,107 L40,103 L29,94 L17,83 Z M-182,207 L-184,209 L-182,209 L-181,216 L-180,216 L-180,207 Z M-188,209 Z M-210,215 L-263,230 L-323,247 L-328,250 L-324,266 L-304,338 L-288,395 L-269,463 L-255,513 L-244,553 L-242,556 L-234,555 L-87,513 L-27,496 L-25,494 L-26,486 L-44,423 L-49,422 L-84,427 L-161,437 L-173,437 L-178,432 L-180,421 L-196,291 L-205,222 L-206,215 Z M-175,292 L-174,294 Z M-174,307 Z M-168,390 L-168,397 L-167,397 L-167,390 Z M-167,400 L-166,402 Z M-166,403 L-165,405 Z M-165,405 Z M-53,406 L-49,408 L-49,406 Z M-164,407 Z M-163,408 Z M-49,408 L-48,411 Z M-119,411 Z M-117,411 Z M-132,412 L-132,413 L-125,413 L-125,412 Z M-124,412 Z " fill="#568283" transform="translate(1238,313)"/>
<path d="M0,0 L14,0 L33,3 L51,9 L66,17 L78,26 L86,33 L95,44 L104,58 L111,74 L116,93 L117,103 L117,118 L114,138 L108,155 L100,170 L90,183 L76,197 L61,207 L46,214 L29,219 L15,221 L-3,221 L-21,218 L-38,212 L-53,204 L-66,194 L-78,182 L-89,166 L-97,149 L-101,136 L-104,116 L-103,96 L-99,78 L-93,62 L-84,47 L-75,36 L-65,26 L-54,18 L-42,11 L-27,5 L-10,1 Z " fill="#F3C2C1" transform="translate(1910,1212)"/>
<path d="M0,0 L4,1 L6,8 L16,68 L22,105 L25,122 L25,125 L20,127 L-23,134 L-63,141 L-96,146 L-103,146 L-109,112 L-120,45 L-123,28 L-123,21 L-118,19 L-72,12 L-42,7 L-8,1 Z " fill="#FDDE89" transform="translate(1617,549)"/>
<path d="M0,0 L15,3 L55,13 L90,22 L120,29 L124,31 L123,40 L106,107 L98,140 L95,153 L94,154 L85,153 L39,141 L-28,124 L-31,123 L-30,114 L-19,70 L-5,16 L-1,1 Z " fill="#FEDD89" transform="translate(1351,721)"/>
<path d="M0,0 L6,1 L9,5 L12,47 L14,69 L22,181 L22,193 L23,197 L27,199 L31,203 L34,204 L44,204 L83,201 L111,199 L124,198 L135,198 L139,200 L142,204 L143,214 L127,217 L27,230 L15,230 L10,226 L8,221 L-9,83 L-18,14 L-18,7 L-21,6 Z M0,1 Z M13,84 L14,86 Z M14,99 Z M20,182 L20,189 L21,189 L21,182 Z M24,199 Z M25,200 Z M69,203 Z M71,203 Z M56,204 L56,205 L63,205 L63,204 Z M64,204 Z " fill="#DCE7E4" transform="translate(1050,521)"/>
<path d="M0,0 L4,1 L-17,5 L-23,6 L-23,15 L-22,19 L-22,29 L-24,25 L-26,12 L-26,5 L-21,3 Z " fill="#FAEAB9" transform="translate(1520,565)"/>
<path d="M0,0 L0,3 L-24,27 L-26,26 L-14,13 L-3,2 Z " fill="#CEC0E0" transform="translate(1727,380)"/>
<path d="M0,0 L1,4 L-7,36 L-8,36 L-8,26 L-5,17 L-4,10 L-2,10 L-2,3 Z " fill="#F9E5B0" transform="translate(1463,797)"/>
<path d="M0,0 L2,0 L1,7 L-2,20 L-3,21 L-12,20 L-15,18 L-4,19 Z " fill="#F9E7B3" transform="translate(1448,854)"/>
<path d="M0,0 L7,1 L16,4 L15,13 L13,16 L14,5 L2,3 L2,1 Z " fill="#F9E7B2" transform="translate(1459,748)"/>
<path d="M0,0 L2,1 L-13,17 L-16,19 L-14,15 L-7,7 Z " fill="#F0CDCA" transform="translate(1845,1238)"/>
<path d="M0,0 L1,0 L5,25 L4,29 L3,27 L3,21 L1,21 Z " fill="#F9E7B5" transform="translate(1622,557)"/>
<path d="M0,0 L13,1 L23,4 L23,6 L15,5 L0,1 Z " fill="#FAE5AF" transform="translate(1347,850)"/>
<path d="M0,0 L1,0 L5,24 L4,28 L3,19 L1,19 L0,9 Z " fill="#F9E8B7" transform="translate(1632,617)"/>
<path d="M0,0 L8,0 L8,1 L3,2 L-11,3 L-13,4 L-27,3 L-27,2 Z " fill="#96B1B2" transform="translate(1129,710)"/>
<path d="M0,0 L1,0 L1,6 L3,7 L3,17 L4,21 L3,33 L2,33 L0,7 Z " fill="#92AEAD" transform="translate(1299,546)"/>
<path d="M0,0 L2,4 L2,6 L0,6 L0,14 L-4,23 L-5,19 Z " fill="#FAE7B2" transform="translate(1339,764)"/>
<path d="M0,0 L9,0 L5,2 L-7,4 L-13,4 L-13,2 Z " fill="#FAE7B3" transform="translate(1608,678)"/>
<path d="M0,0 L1,0 L1,5 L3,5 L3,18 L4,21 L3,32 L2,32 L0,7 Z " fill="#95B3B2" transform="translate(1296,508)"/>
<path d="M0,0 L6,0 L2,3 L-26,3 L-26,2 Z " fill="#9CB6B2" transform="translate(1213,370)"/>
<path d="M0,0 L2,0 L0,12 L-2,20 L-4,18 L-4,14 L-2,14 L-1,5 Z " fill="#F9E5AF" transform="translate(1453,833)"/>
<path d="M0,0 L8,0 L8,1 L-9,4 L-14,4 L-12,1 Z " fill="#F9E9B4" transform="translate(1574,684)"/>
<path d="M0,0 L2,0 L3,2 L3,14 L9,14 L9,15 L2,15 L0,5 Z " fill="#F9E8B5" transform="translate(1512,680)"/>
<path d="M0,0 L8,0 L4,3 L-12,3 L-12,2 Z " fill="#FAE8B3" transform="translate(1537,562)"/>
<path d="M0,0 L5,0 L1,3 L-9,7 L-11,7 L-11,5 Z " fill="#729295" transform="translate(1582,849)"/>
<path d="M0,0 L1,0 L3,12 L3,20 L2,20 L2,15 L0,15 Z " fill="#F9E7B3" transform="translate(1637,646)"/>
<path d="M0,0 L2,4 L0,14 L-3,15 L-2,8 Z " fill="#F9E7B0" transform="translate(1327,811)"/>
<path d="M0,0 L17,1 L17,2 L-6,3 L-6,2 L0,2 Z " fill="#97B1B2" transform="translate(1104,389)"/>
<path d="M0,0 L7,1 L16,3 L16,4 L2,3 Z " fill="#FAE9B5" transform="translate(1442,744)"/>
<path d="M0,0 L2,0 L2,2 L-7,9 L-7,6 L-2,1 Z " fill="#6E9191" transform="translate(907,550)"/>
<path d="M0,0 L2,4 L2,6 L0,6 L0,13 L-3,16 L-2,8 Z " fill="#FAE7B1" transform="translate(1331,795)"/>
<path d="M0,0 L14,1 L14,2 L-5,3 L-5,2 L0,2 Z " fill="#8FACAC" transform="translate(1187,383)"/>
<path d="M0,0 L9,3 L9,4 L-5,3 L-3,1 Z " fill="#A4BBAF" transform="translate(662,1072)"/>
<path d="M0,0 L7,1 L15,3 L15,4 L2,3 Z " fill="#FAE7B3" transform="translate(1402,734)"/>
<path d="M0,0 L7,1 L15,3 L15,4 L2,3 Z " fill="#FBEAB6" transform="translate(1387,730)"/>
<path d="M0,0 L2,0 L0,6 L-5,14 L-6,11 Z " fill="#CFC2DF" transform="translate(2057,644)"/>
<path d="M0,0 L1,4 L0,13 L-3,14 L-2,7 Z " fill="#FAE5AD" transform="translate(1347,734)"/>
<path d="M0,0 L1,0 L2,20 L1,20 L1,14 L-1,14 Z " fill="#93AFAE" transform="translate(1316,608)"/>
<path d="M0,0 L1,0 L3,9 L2,20 L1,20 Z " fill="#92ADAD" transform="translate(1304,612)"/>
<path d="M0,0 L13,1 L15,4 L8,3 L0,1 Z " fill="#FAE7B4" transform="translate(1323,844)"/>
<path d="M0,0 L5,0 L1,3 L-6,5 L-5,2 Z " fill="#759496" transform="translate(1655,817)"/>
<path d="M0,0 L1,4 L0,12 L-3,15 L-2,7 Z " fill="#FAE7B3" transform="translate(1343,749)"/>
<path d="M0,0 L4,1 L-5,5 L-7,5 L-7,3 Z " fill="#729494" transform="translate(1008,430)"/>
<path d="M0,0 L2,0 L0,5 L-4,10 L-3,5 L-2,3 L0,3 Z " fill="#F0CDC9" transform="translate(2011,1375)"/>
<path d="M0,0 L9,0 L11,3 L4,2 Z " fill="#FAE7B3" transform="translate(1405,865)"/>
<path d="M0,0 L10,0 L10,2 L12,3 L5,2 L0,1 Z " fill="#FAE6B1" transform="translate(1374,857)"/>
<path d="M0,0 L7,1 L12,2 L12,3 L3,3 Z " fill="#FAE6B5" transform="translate(1362,724)"/>
<path d="M0,0 L9,1 L9,3 L0,2 Z " fill="#749595" transform="translate(1367,347)"/>
<path d="M0,0 L3,0 L3,2 L-1,4 L-6,4 L-2,1 Z " fill="#739698" transform="translate(1278,1497)"/>
<path d="M0,0 L5,0 L1,3 L-4,4 L-4,2 Z " fill="#7C9A98" transform="translate(1423,1446)"/>
<path d="M0,0 L3,0 L3,2 L-2,4 L-6,3 Z " fill="#769799" transform="translate(1400,1444)"/>
<path d="M0,0 L3,0 L3,2 L-2,4 L-6,3 Z " fill="#79989A" transform="translate(1574,1368)"/>
<path d="M0,0 L3,0 L3,2 L-2,4 L-6,3 Z " fill="#779698" transform="translate(1335,945)"/>
<path d="M0,0 L5,0 L1,3 L-4,4 L-4,2 Z " fill="#749395" transform="translate(1486,891)"/>
<path d="M0,0 L5,0 L1,3 L-4,4 L-4,2 Z " fill="#719193" transform="translate(1495,887)"/>
<path d="M0,0 L1,2 L6,3 L6,5 L-3,2 Z " fill="#D3C7E2" transform="translate(1786,741)"/>
<path d="M0,0 L1,0 L1,5 L3,5 L2,13 L1,13 Z " fill="#88A7A6" transform="translate(1296,508)"/>
<path d="M0,0 L8,1 L8,3 L0,2 Z " fill="#779898" transform="translate(1444,415)"/>
<path d="M0,0 Z " fill="#F5ECDF" transform="translate(1645,526)"/>
<path d="M0,0 Z " fill="#F6EEDF" transform="translate(1648,525)"/>
<path d="M0,0 Z " fill="#F6EEDF" transform="translate(1646,524)"/>
<path d="M0,0 Z " fill="#F3EBE0" transform="translate(1591,502)"/>
<path d="M0,0 Z " fill="#F4ECE0" transform="translate(1587,501)"/>
<path d="M0,0 Z " fill="#F5EEDF" transform="translate(1584,498)"/>
<path d="M0,0 Z " fill="#F4EBE0" transform="translate(1575,494)"/>
<path d="M0,0 Z " fill="#F5EBE0" transform="translate(1571,494)"/>
<path d="M0,0 Z " fill="#F5EDDF" transform="translate(1444,368)"/>
<path d="M0,0 Z " fill="#F3ECE0" transform="translate(1369,332)"/>
</svg>
