<?xml version="1.0" encoding="UTF-8"?>
<!-- Generator: visioncortex VTracer 0.6.12 -->
<svg version="1.1" xmlns="http://www.w3.org/2000/svg" width="2400" height="1792">
<path d="M0,0 L256,0 L273,2 L290,6 L306,12 L320,19 L333,28 L346,40 L355,50 L365,65 L374,80 L382,90 L393,100 L409,110 L424,116 L440,120 L447,121 L559,122 L841,122 L913,123 L927,127 L940,134 L952,145 L961,158 L966,170 L969,184 L969,234 L983,233 L1043,233 L1058,236 L1074,244 L1084,253 L1090,260 L1096,272 L1099,286 L1099,302 L1093,328 L1073,409 L1053,491 L1029,589 L1004,691 L986,765 L972,823 L967,835 L960,847 L948,860 L936,869 L922,876 L904,880 L895,880 L894,891 L883,948 L878,958 L871,965 L862,970 L858,971 L844,971 L832,969 L827,993 L823,1011 L818,1021 L814,1026 L803,1033 L796,1035 L782,1035 L671,1013 L578,995 L456,971 L415,963 L405,957 L397,948 L393,937 L393,924 L402,880 L-8,880 L-23,876 L-34,870 L-44,861 L-50,854 L-58,838 L-60,830 L-61,813 L-60,53 L-55,38 L-47,26 L-42,20 L-32,12 L-22,6 L-11,2 Z M566,251 L136,252 L125,256 L115,262 L105,271 L97,280 L90,294 L85,312 L76,348 L57,422 L38,496 L18,575 L7,617 L-15,704 L-28,754 L-42,810 L-43,821 L-40,835 L-35,844 L-27,853 L-11,861 L-8,862 L406,862 L423,774 L436,707 L440,696 L448,687 L458,682 L462,681 L472,681 L504,687 L516,689 L520,673 L532,611 L537,586 L543,574 L551,567 L560,563 L564,562 L576,562 L628,572 L675,581 L720,590 L787,603 L792,607 L802,623 L812,638 L822,653 L828,655 L904,669 L914,673 L921,679 L927,689 L929,696 L929,705 L922,741 L903,837 L899,859 L899,862 L909,861 L923,856 L936,847 L943,840 L950,829 L955,816 L976,731 L998,640 L1018,559 L1038,477 L1062,379 L1080,305 L1081,300 L1081,287 L1078,276 L1073,267 L1064,258 L1054,253 L1045,251 Z M565,579 L558,583 L554,588 L550,606 L528,721 L516,784 L491,916 L487,938 L487,948 L491,956 L498,961 L516,965 L588,979 L661,993 L756,1012 L784,1017 L794,1017 L800,1014 L805,1008 L809,992 L834,862 L842,818 L854,757 L856,747 L856,742 L787,728 L778,724 L770,718 L764,708 L761,697 L761,689 L774,621 L774,618 L736,610 L665,596 L577,579 Z M789,635 L786,648 L778,689 L778,698 L782,706 L787,710 L797,713 L846,723 L848,722 L831,697 L809,664 L790,635 Z M837,674 Z M838,675 L840,680 L850,695 L864,717 L875,734 L870,763 L852,856 L843,905 L835,946 L836,951 L847,953 L856,953 L862,949 L866,942 L877,885 L889,821 L909,720 L912,707 L912,697 L909,691 L904,687 L887,683 L843,675 Z M463,698 L456,702 L452,711 L440,774 L419,884 L411,927 L411,935 L414,941 L419,945 L436,949 L470,955 L469,941 L475,909 L486,852 L507,741 L513,709 L513,706 L474,698 Z " fill="#508C8E" transform="translate(692,446)"/>
<path d="M0,0 L256,0 L273,2 L290,6 L306,12 L320,19 L333,28 L346,40 L355,50 L365,65 L374,80 L382,90 L393,100 L409,110 L424,116 L440,120 L447,121 L559,122 L841,122 L913,123 L927,127 L940,134 L952,145 L961,158 L966,170 L969,184 L969,234 L983,233 L1043,233 L1058,236 L1074,244 L1084,253 L1090,260 L1096,272 L1099,286 L1099,302 L1093,328 L1073,409 L1053,491 L1029,589 L1004,691 L986,765 L972,823 L967,835 L960,847 L948,860 L936,869 L922,876 L904,880 L895,880 L894,891 L883,948 L878,958 L871,965 L862,970 L858,971 L844,971 L832,969 L827,993 L823,1011 L818,1021 L814,1026 L803,1033 L796,1035 L782,1035 L671,1013 L578,995 L456,971 L415,963 L405,957 L397,948 L393,937 L393,924 L402,880 L-8,880 L-23,876 L-34,870 L-44,861 L-50,854 L-58,838 L-60,830 L-61,813 L-60,53 L-55,38 L-47,26 L-42,20 L-32,12 L-22,6 L-11,2 Z M-3,18 L-13,21 L-22,26 L-32,35 L-39,46 L-43,59 L-43,742 L-41,740 L-35,714 L-29,690 L-24,672 L-15,637 L-5,597 L1,575 L5,557 L9,543 L16,515 L21,498 L27,472 L34,444 L38,430 L46,400 L57,354 L61,339 L67,317 L71,300 L77,282 L85,268 L96,256 L106,248 L116,242 L129,237 L137,235 L951,234 L951,182 L948,171 L943,161 L935,152 L926,146 L914,141 L911,140 L450,139 L427,135 L409,129 L392,120 L380,111 L371,103 L360,89 L350,74 L341,61 L330,49 L318,39 L305,31 L290,24 L271,19 L261,18 Z M566,251 L136,252 L125,256 L115,262 L105,271 L97,280 L90,294 L85,312 L76,348 L57,422 L38,496 L18,575 L7,617 L-15,704 L-28,754 L-42,810 L-43,821 L-40,835 L-35,844 L-27,853 L-11,861 L-8,862 L406,862 L423,774 L436,707 L440,696 L448,687 L458,682 L462,681 L472,681 L504,687 L516,689 L520,673 L532,611 L537,586 L543,574 L551,567 L560,563 L564,562 L576,562 L628,572 L675,581 L720,590 L787,603 L792,607 L802,623 L812,638 L822,653 L828,655 L904,669 L914,673 L921,679 L927,689 L929,696 L929,705 L922,741 L903,837 L899,859 L899,862 L909,861 L923,856 L936,847 L943,840 L950,829 L955,816 L976,731 L998,640 L1018,559 L1038,477 L1062,379 L1080,305 L1081,300 L1081,287 L1078,276 L1073,267 L1064,258 L1054,253 L1045,251 Z M565,579 L558,583 L554,588 L550,606 L528,721 L516,784 L491,916 L487,938 L487,948 L491,956 L498,961 L516,965 L588,979 L661,993 L756,1012 L784,1017 L794,1017 L800,1014 L805,1008 L809,992 L834,862 L842,818 L854,757 L856,747 L856,742 L787,728 L778,724 L770,718 L764,708 L761,697 L761,689 L774,621 L774,618 L736,610 L665,596 L577,579 Z M789,635 L786,648 L778,689 L778,698 L782,706 L787,710 L797,713 L846,723 L848,722 L831,697 L809,664 L790,635 Z M837,674 Z M838,675 L840,680 L850,695 L864,717 L875,734 L870,763 L852,856 L843,905 L835,946 L836,951 L847,953 L856,953 L862,949 L866,942 L877,885 L889,821 L909,720 L912,707 L912,697 L909,691 L904,687 L887,683 L843,675 Z M463,698 L456,702 L452,711 L440,774 L419,884 L411,927 L411,935 L414,941 L419,945 L436,949 L470,955 L469,941 L475,909 L486,852 L507,741 L513,709 L513,706 L474,698 Z " fill="#3F7176" transform="translate(692,446)"/>
<path d="M0,0 L17,0 L33,4 L49,12 L62,24 L70,35 L75,46 L78,56 L79,63 L79,76 L76,91 L71,103 L62,116 L53,125 L42,132 L31,137 L18,140 L0,140 L-16,136 L-30,129 L-41,120 L-50,109 L-57,95 L-61,79 L-61,61 L-57,45 L-49,30 L-38,18 L-31,12 L-16,4 Z " fill="#518C8E" transform="translate(1686,276)"/>
<path d="M0,0 L17,0 L32,4 L45,11 L57,22 L64,32 L70,46 L72,55 L72,71 L68,87 L61,100 L52,110 L45,116 L34,122 L22,126 L16,127 L1,127 L-15,123 L-27,117 L-39,106 L-46,97 L-52,84 L-55,71 L-55,56 L-52,42 L-46,30 L-37,19 L-29,12 L-15,4 Z " fill="#579092" transform="translate(1868,1112)"/>
<path d="M0,0 L14,1 L27,5 L40,12 L48,19 L57,31 L63,44 L66,59 L66,69 L63,84 L55,100 L48,109 L38,117 L24,124 L12,127 L-7,127 L-22,123 L-33,117 L-44,108 L-53,96 L-58,85 L-61,71 L-61,57 L-58,43 L-51,29 L-42,18 L-30,9 L-17,3 L-9,1 Z " fill="#C4B7E4" transform="translate(882,1389)"/>
<path d="M0,0 L19,0 L32,4 L43,11 L50,18 L57,29 L61,42 L61,60 L57,73 L50,85 L43,92 L32,99 L20,103 L0,103 L-10,100 L-21,94 L-29,87 L-36,77 L-40,68 L-42,60 L-42,43 L-38,30 L-32,20 L-26,13 L-16,6 L-4,1 Z " fill="#C4B7E4" transform="translate(1396,383)"/>
<path d="M0,0 L10,0 L26,4 L37,11 L45,19 L51,29 L55,41 L56,51 L54,65 L49,77 L41,87 L32,94 L22,99 L13,101 L-3,101 L-16,97 L-26,91 L-36,81 L-43,67 L-45,59 L-45,42 L-42,32 L-36,21 L-28,12 L-17,5 L-6,1 Z " fill="#F2C1C0" transform="translate(505,1168)"/>
<path d="M0,0 L15,2 L25,7 L34,15 L40,25 L43,37 L43,45 L40,57 L34,67 L26,75 L14,81 L10,82 L-6,82 L-18,78 L-27,71 L-33,64 L-37,56 L-39,47 L-39,36 L-35,23 L-29,14 L-20,6 L-8,1 Z " fill="#548D90" transform="translate(558,961)"/>
<path d="M0,0 L16,0 L27,4 L38,12 L45,22 L49,35 L49,46 L45,59 L37,70 L29,76 L20,80 L16,81 L0,81 L-11,77 L-20,71 L-26,64 L-31,54 L-33,46 L-33,35 L-29,22 L-21,11 L-11,4 Z " fill="#EEC1C1" transform="translate(1815,534)"/>
<path d="M0,0 L12,0 L21,1 L21,2 L15,3 L0,3 Z " fill="#6E8E8F" transform="translate(1373,568)"/>
<path d="M0,0 L2,1 L-7,11 L-11,13 L-11,15 L-13,14 L-5,4 Z " fill="#CCC2E0" transform="translate(1375,392)"/>
<path d="M0,0 L2,1 L-7,11 L-9,13 L-12,12 Z " fill="#77A0A0" transform="translate(1652,290)"/>
<path d="M0,0 L2,1 L-5,9 L-8,12 L-11,11 L-7,6 Z " fill="#5D8285" transform="translate(657,460)"/>
<path d="M0,0 L2,1 L-8,11 L-12,15 L-10,10 L-4,3 Z " fill="#ECCFCD" transform="translate(1799,541)"/>
<path d="M0,0 L2,1 L-8,11 L-10,10 L-4,3 Z " fill="#EFCDCB" transform="translate(481,1177)"/>
<path d="M0,0 L2,1 L-6,10 L-7,7 Z " fill="#769E9E" transform="translate(535,969)"/>
</svg>
