<?xml version="1.0" encoding="UTF-8"?>
<!-- Generator: visioncortex VTracer 0.6.12 -->
<svg version="1.1" xmlns="http://www.w3.org/2000/svg" width="2048" height="2048">
<path d="M0,0 L14,0 L25,4 L55,20 L71,29 L100,45 L109,51 L112,56 L111,65 L98,90 L86,112 L72,138 L590,139 L596,143 L599,149 L599,560 L596,570 L590,580 L582,587 L571,592 L560,594 L47,594 L33,591 L23,585 L15,577 L10,567 L8,560 L7,257 L-8,285 L-26,319 L-39,342 L-51,365 L-63,387 L-77,413 L-89,435 L-102,459 L-117,487 L-129,509 L-145,539 L-157,561 L-171,588 L-177,595 L-182,597 L-191,595 L-216,581 L-240,568 L-263,555 L-275,548 L-282,542 L-287,534 L-290,523 L-290,515 L-286,503 L-276,483 L-263,460 L-251,437 L-239,415 L-224,387 L-216,372 L-232,382 L-244,387 L-252,389 L-271,389 L-285,385 L-297,378 L-306,371 L-314,361 L-320,349 L-324,335 L-325,321 L-323,308 L-318,295 L-310,284 L-302,276 L-289,268 L-271,262 L-251,258 L-226,255 L-210,254 L-165,254 L-182,228 L-194,208 L-206,187 L-215,167 L-220,152 L-223,138 L-223,124 L-219,107 L-212,95 L-204,86 L-191,77 L-177,71 L-168,69 L-155,68 L-141,70 L-128,75 L-118,82 L-111,88 L-102,101 L-97,116 L-96,123 L-95,150 L-80,121 L-68,99 L-54,73 L-39,45 L-29,27 L-21,13 L-14,6 L-4,1 Z M4,25 L-2,30 L-17,58 L-29,80 L-44,108 L-57,132 L-73,162 L-85,184 L-99,210 L-95,214 L-78,223 L-55,236 L-31,249 L-22,254 L-19,253 L-1,219 L11,197 L27,168 L44,136 L54,118 L69,90 L82,66 L78,62 L52,48 L31,36 L11,25 Z M-163,94 L-175,97 L-185,103 L-192,110 L-197,120 L-198,124 L-198,135 L-194,151 L-185,172 L-174,193 L-158,219 L-145,239 L-143,239 L-132,206 L-124,174 L-121,153 L-121,125 L-124,114 L-130,105 L-138,98 L-150,94 Z M56,165 L42,192 L34,207 L34,559 L38,565 L43,568 L214,568 L214,165 Z M239,165 L239,568 L329,568 L329,165 Z M354,165 L354,568 L564,568 L569,565 L573,560 L574,550 L573,165 Z M-112,234 L-124,256 L-138,282 L-150,304 L-154,311 L-153,315 L-129,328 L-106,341 L-79,356 L-75,356 L-61,330 L-49,308 L-35,282 L-33,279 L-34,275 L-55,264 L-77,252 L-95,242 L-110,234 Z M-202,279 L-233,281 L-254,284 L-273,289 L-287,296 L-294,303 L-298,311 L-299,315 L-299,332 L-294,345 L-283,357 L-275,362 L-268,364 L-256,364 L-242,359 L-229,350 L-216,338 L-206,329 L-192,314 L-181,300 L-168,284 L-165,279 Z M-167,336 L-173,346 L-189,376 L-201,398 L-215,424 L-229,450 L-242,473 L-257,502 L-265,516 L-265,523 L-260,528 L-236,541 L-218,551 L-191,566 L-188,566 L-175,541 L-163,519 L-148,491 L-134,465 L-119,437 L-107,415 L-93,389 L-88,379 L-112,366 L-133,354 L-157,341 L-165,336 Z M-216,371 Z " fill="#497E80" transform="translate(770,974)"/>
<path d="M0,0 L3,1 L14,23 L24,42 L34,63 L44,82 L69,132 L71,135 L101,140 L178,151 L222,158 L224,160 L179,205 L171,212 L116,267 L117,278 L128,343 L139,406 L140,417 L135,415 L97,396 L78,386 L54,374 L35,364 L5,349 L-2,349 L-36,366 L-55,376 L-81,389 L-100,399 L-119,409 L-135,417 L-137,417 L-134,395 L-123,331 L-113,274 L-113,267 L-161,219 L-163,218 L-163,216 L-167,214 L-173,207 L-181,200 L-221,160 L-219,158 L-174,151 L-84,138 L-68,135 L-56,112 Z " fill="#427C7E" transform="translate(1071,643)"/>
<path d="M0,0 L19,0 L30,4 L39,10 L46,17 L53,31 L54,35 L54,54 L49,67 L41,77 L31,84 L21,88 L15,89 L5,89 L-7,86 L-16,81 L-26,72 L-31,64 L-34,55 L-35,49 L-35,39 L-32,27 L-27,18 L-20,10 L-9,3 Z " fill="#90ACA2" transform="translate(1337,645)"/>
<path d="M0,0 L12,0 L25,4 L34,10 L42,18 L49,32 L50,37 L50,54 L46,65 L40,74 L30,83 L19,88 L3,90 L-7,88 L-16,84 L-22,80 L-28,75 L-35,64 L-38,56 L-39,50 L-39,39 L-35,26 L-29,16 L-20,8 L-8,2 Z " fill="#90ACA1" transform="translate(648,766)"/>
<path d="M0,0 L17,0 L29,4 L38,10 L46,19 L51,29 L53,36 L53,52 L49,64 L43,73 L35,81 L23,87 L15,89 L2,89 L-11,85 L-20,79 L-27,72 L-32,64 L-35,55 L-36,50 L-36,40 L-33,27 L-27,17 L-18,8 L-4,1 Z " fill="#C4B6E2" transform="translate(1212,409)"/>
<path d="M0,0 L13,2 L23,6 L33,14 L39,22 L43,30 L45,37 L45,52 L41,65 L34,75 L25,83 L15,88 L5,90 L-3,90 L-16,87 L-28,80 L-37,70 L-42,60 L-44,52 L-44,39 L-40,26 L-34,17 L-29,12 L-22,6 L-9,1 Z " fill="#C5B6E3" transform="translate(1558,756)"/>
<path d="M0,0 L13,0 L26,4 L37,12 L43,19 L49,31 L51,39 L51,50 L47,63 L41,73 L31,82 L21,87 L13,89 L-1,89 L-11,86 L-21,80 L-28,74 L-35,63 L-38,53 L-38,35 L-34,24 L-28,16 L-23,11 L-15,5 L-5,1 Z " fill="#F0BEBD" transform="translate(1390,934)"/>
<path d="M0,0 L13,0 L26,4 L36,11 L44,20 L49,30 L51,38 L51,51 L47,64 L40,74 L30,83 L19,88 L14,89 L-1,89 L-11,86 L-21,80 L-30,71 L-36,60 L-38,52 L-38,37 L-34,25 L-27,15 L-18,7 L-8,2 Z " fill="#EEBEBD" transform="translate(882,545)"/>
<path d="M0,0 L17,0 L28,4 L37,10 L44,17 L50,28 L52,36 L52,52 L49,62 L43,72 L35,80 L27,85 L18,88 L12,89 L4,89 L-8,86 L-19,80 L-27,72 L-33,62 L-36,51 L-36,37 L-32,24 L-25,14 L-17,7 L-7,2 Z " fill="#C4B6E2" transform="translate(583,477)"/>
<path d="M0,0 L45,1 L45,2 L7,3 L-8,3 L-8,2 L-1,1 Z " fill="#9BB4B2" transform="translate(561,1251)"/>
<path d="M0,0 L2,0 L0,6 L-11,26 L-12,22 L-7,12 L-5,8 Z " fill="#719493" transform="translate(518,1462)"/>
<path d="M0,0 L3,1 L-3,8 L-9,14 L-12,13 L-3,3 Z " fill="#648C8D" transform="translate(468,1250)"/>
<path d="M0,0 L0,3 L-12,15 L-14,14 L-8,6 Z " fill="#CBBEDF" transform="translate(1535,763)"/>
<path d="M0,0 L2,1 L-9,13 L-12,12 L-5,4 Z " fill="#729796" transform="translate(571,1056)"/>
<path d="M0,0 L12,1 L27,3 L27,4 L18,5 L17,4 L11,4 L11,2 L3,3 L3,1 Z " fill="#85A2A1" transform="translate(1188,786)"/>
<path d="M0,0 L1,4 L-6,18 L-8,18 L-6,12 Z " fill="#729494" transform="translate(1062,661)"/>
<path d="M0,0 L1,0 L3,12 L3,17 L-2,15 L-4,13 L0,12 Z " fill="#87A3A1" transform="translate(1208,1043)"/>
<path d="M0,0 L15,0 L15,1 L6,2 L2,3 L-10,2 L-10,1 Z " fill="#8DA9A7" transform="translate(544,1229)"/>
<path d="M0,0 L1,4 L-5,15 L-7,15 L-5,9 Z " fill="#719291" transform="translate(603,1499)"/>
<path d="M0,0 L2,1 L-9,12 L-11,11 L-4,3 Z " fill="#ADBCB4" transform="translate(1321,652)"/>
<path d="M0,0 L2,0 L0,6 L-3,12 L-5,12 L-4,7 Z " fill="#688D8C" transform="translate(518,1462)"/>
<path d="M0,0 L2,1 L0,6 L-4,14 L-5,14 L-5,9 Z " fill="#6F9190" transform="translate(636,1486)"/>
<path d="M0,0 L2,2 L-7,11 L-7,8 Z " fill="#ECC9C7" transform="translate(859,556)"/>
<path d="M0,0 L2,1 L0,6 L-3,12 L-4,12 L-3,5 Z " fill="#6F9292" transform="translate(545,1412)"/>
<path d="M0,0 L1,0 L1,5 L-3,12 L-5,12 L-3,6 Z " fill="#739594" transform="translate(1032,721)"/>
<path d="M0,0 L1,4 L-3,11 L-5,11 L-3,5 Z " fill="#739694" transform="translate(623,1462)"/>
<path d="M0,0 L2,0 L0,6 L-3,12 L-4,12 L-4,7 Z " fill="#729593" transform="translate(871,1052)"/>
<path d="M0,0 L1,4 L-3,11 L-5,11 L-3,5 Z " fill="#749796" transform="translate(849,1044)"/>
<path d="M0,0 L2,0 L0,4 L-6,9 L-6,6 Z " fill="#658C8C" transform="translate(1219,874)"/>
<path d="M0,0 L1,4 L-3,11 L-5,11 L-3,5 Z " fill="#729392" transform="translate(502,1443)"/>
<path d="M0,0 L1,4 L-3,11 L-5,11 L-3,5 Z " fill="#729493" transform="translate(645,1421)"/>
<path d="M0,0 L2,3 L-3,11 L-5,11 L-3,5 Z " fill="#6F9190" transform="translate(651,1410)"/>
<path d="M0,0 L2,0 L0,6 L-4,11 L-4,7 L-2,7 L-2,2 Z " fill="#739897" transform="translate(740,1052)"/>
<path d="M0,0 L2,0 L0,6 L-3,12 L-4,12 L-4,7 L-2,7 L-1,2 Z " fill="#7B9A9A" transform="translate(619,1276)"/>
<path d="M0,0 L9,0 L5,2 L-3,3 L-4,1 Z " fill="#658A8A" transform="translate(503,1235)"/>
<path d="M0,0 L2,0 L0,6 L-3,11 L-4,7 L-2,7 L-1,2 Z " fill="#7A9A98" transform="translate(677,1169)"/>
<path d="M0,0 L1,4 L-3,11 L-5,11 L-3,5 Z " fill="#779A98" transform="translate(833,1074)"/>
<path d="M0,0 L1,4 L-3,11 L-4,7 Z " fill="#6D908F" transform="translate(647,1224)"/>
<path d="M0,0 L2,3 L-2,10 L-4,10 L-2,4 Z M2,1 Z " fill="#709492" transform="translate(492,1461)"/>
<path d="M0,0 L2,0 L0,6 L-3,10 L-2,3 Z " fill="#729392" transform="translate(550,1403)"/>
<path d="M0,0 L2,0 L1,5 L-1,8 L-3,8 L-1,2 Z " fill="#769494" transform="translate(1071,643)"/>
<path d="M0,0 L1,4 L-2,10 L-4,10 L-2,4 Z " fill="#719593" transform="translate(614,1478)"/>
<path d="M0,0 L1,0 L1,5 L-2,10 L-4,10 L-2,4 Z " fill="#729391" transform="translate(532,1387)"/>
<path d="M0,0 L1,4 L-2,9 L-4,9 L-2,3 Z " fill="#719895" transform="translate(782,1168)"/>
<path d="M0,0 L4,5 L5,8 L3,10 L0,4 Z " fill="#688C8C" transform="translate(568,1164)"/>
<path d="M0,0 L1,0 L1,5 L4,5 L4,7 L-1,9 Z " fill="#8FA8A5" transform="translate(935,1051)"/>
<path d="M0,0 L2,0 L3,9 L1,9 Z " fill="#779B9A" transform="translate(1185,916)"/>
<path d="M0,0 L3,1 L-4,7 L-4,4 Z " fill="#6F9494" transform="translate(1205,888)"/>
<path d="M0,0 L1,4 L-2,9 L-4,9 L-2,3 Z " fill="#7A9B99" transform="translate(664,1386)"/>
<path d="M0,0 L1,4 L-2,9 L-4,9 L-2,3 Z " fill="#7A9C9A" transform="translate(548,1358)"/>
<path d="M0,0 L1,4 L-2,10 L-3,10 L-2,3 Z " fill="#6A8F8D" transform="translate(585,1338)"/>
<path d="M0,0 L1,4 L-2,9 L-4,9 L-2,3 Z " fill="#6E9391" transform="translate(700,1319)"/>
<path d="M0,0 L7,1 L7,2 L-2,3 L-2,1 Z " fill="#779A99" transform="translate(509,1257)"/>
<path d="M0,0 L2,1 L0,7 L-3,10 L-3,6 L-1,6 Z " fill="#739695" transform="translate(698,1129)"/>
<path d="M0,0 L1,2 L-3,10 L-4,10 L-4,5 Z " fill="#ECCCC9" transform="translate(1437,993)"/>
<path d="M0,0 L2,1 L-5,8 L-7,7 L-2,2 Z " fill="#EDCCCA" transform="translate(1370,942)"/>
<path d="M0,0 L2,3 L-1,8 L-3,8 L-1,2 Z M2,1 Z " fill="#6C908F" transform="translate(688,1099)"/>
<path d="M0,0 L2,0 L1,4 L-1,8 L-3,8 L-1,2 Z " fill="#66898A" transform="translate(1057,671)"/>
</svg>
