<?xml version="1.0" encoding="UTF-8"?>
<!-- Generator: visioncortex VTracer 0.6.12 -->
<svg version="1.1" xmlns="http://www.w3.org/2000/svg" width="2048" height="2048">
<path d="M0,0 L21,0 L41,4 L57,11 L69,18 L83,30 L91,40 L99,54 L101,59 L92,65 L81,73 L73,80 L66,88 L59,98 L51,114 L46,129 L44,142 L44,151 L47,157 L53,160 L62,159 L67,154 L69,145 L72,129 L78,115 L88,101 L96,93 L110,83 L121,79 L140,79 L164,83 L182,89 L203,100 L214,109 L228,123 L238,138 L246,155 L251,173 L254,194 L254,200 L216,200 L199,203 L181,209 L165,217 L152,225 L141,234 L133,243 L131,248 L132,256 L137,261 L139,262 L148,262 L156,255 L165,247 L180,237 L194,231 L215,226 L223,225 L244,225 L260,228 L273,233 L286,240 L297,248 L307,257 L316,266 L327,281 L335,296 L343,320 L346,335 L347,344 L347,362 L344,383 L339,400 L330,420 L321,434 L312,445 L304,454 L296,461 L284,470 L269,479 L251,487 L231,493 L220,495 L214,495 L216,489 L220,477 L222,464 L222,451 L219,435 L214,422 L208,411 L200,401 L195,396 L193,395 L184,395 L178,399 L176,405 L177,412 L183,420 L190,430 L195,441 L197,451 L197,462 L194,476 L186,492 L183,496 L164,494 L143,489 L127,483 L111,475 L99,468 L83,455 L72,445 L65,437 L55,424 L46,410 L42,408 L33,408 L28,411 L26,415 L26,425 L39,444 L47,454 L56,464 L67,475 L84,488 L103,500 L110,504 L109,512 L101,528 L90,540 L80,547 L67,553 L57,556 L46,558 L40,563 L39,565 L39,575 L44,581 L47,582 L55,582 L72,578 L88,571 L102,563 L114,552 L121,544 L130,528 L135,515 L137,514 L160,519 L184,522 L208,522 L231,519 L254,513 L274,505 L289,497 L305,486 L316,477 L329,465 L338,454 L343,448 L348,453 L356,464 L365,480 L373,499 L379,519 L382,537 L383,556 L381,581 L375,606 L367,626 L358,643 L348,657 L337,670 L330,677 L313,690 L297,699 L282,705 L265,709 L258,710 L229,710 L204,705 L197,703 L188,704 L184,706 L182,712 L183,721 L188,726 L196,729 L219,734 L227,735 L259,735 L277,732 L297,726 L313,719 L328,710 L331,710 L331,745 L328,769 L322,793 L314,814 L302,837 L294,849 L283,863 L271,876 L264,883 L250,894 L236,904 L219,914 L201,922 L175,930 L154,934 L142,935 L141,906 L137,887 L132,872 L122,853 L112,839 L97,824 L83,814 L66,805 L49,799 L40,797 L32,798 L27,803 L25,809 L27,816 L31,820 L54,827 L70,835 L84,846 L91,853 L101,866 L109,882 L114,897 L116,908 L116,934 L112,952 L105,968 L98,979 L89,990 L78,1000 L60,1011 L47,1016 L27,1020 L4,1020 L-12,1017 L-28,1011 L-39,1005 L-51,996 L-59,989 L-70,975 L-78,961 L-84,943 L-86,931 L-86,85 L-83,70 L-78,56 L-69,40 L-57,26 L-45,16 L-26,6 L-7,1 Z " fill="#83A69A" transform="translate(1436,496)"/>
<path d="M0,0 L22,0 L41,4 L57,11 L69,19 L79,28 L88,38 L95,49 L100,59 L105,76 L106,82 L107,216 L107,924 L105,940 L100,957 L90,976 L81,987 L72,996 L58,1006 L42,1014 L30,1018 L18,1020 L-8,1020 L-26,1016 L-41,1010 L-54,1002 L-65,993 L-73,985 L-82,972 L-90,956 L-94,942 L-96,928 L-96,916 L-93,895 L-87,878 L-79,864 L-70,853 L-59,842 L-45,833 L-31,826 L-13,821 L-8,818 L-6,814 L-6,805 L-10,799 L-12,798 L-23,798 L-43,804 L-64,815 L-77,825 L-87,834 L-98,848 L-105,859 L-112,873 L-118,893 L-120,904 L-121,917 L-121,935 L-134,934 L-155,930 L-174,924 L-189,918 L-212,906 L-227,896 L-238,887 L-246,880 L-255,881 L-279,886 L-302,889 L-329,891 L-361,891 L-389,889 L-417,885 L-440,880 L-468,872 L-498,861 L-526,848 L-549,835 L-566,824 L-575,818 L-580,822 L-587,830 L-596,840 L-605,850 L-604,854 L-599,862 L-596,872 L-596,885 L-599,895 L-605,904 L-617,918 L-629,931 L-638,942 L-650,955 L-657,963 L-666,973 L-675,984 L-688,998 L-695,1006 L-705,1017 L-712,1025 L-721,1035 L-728,1043 L-737,1053 L-744,1061 L-753,1071 L-760,1079 L-769,1089 L-776,1097 L-785,1107 L-797,1121 L-807,1132 L-816,1143 L-829,1157 L-836,1165 L-845,1175 L-855,1182 L-867,1188 L-882,1192 L-906,1192 L-921,1188 L-937,1180 L-950,1170 L-960,1159 L-969,1144 L-974,1129 L-975,1124 L-975,1100 L-971,1085 L-964,1072 L-956,1062 L-945,1050 L-933,1036 L-922,1024 L-915,1016 L-906,1006 L-899,998 L-890,988 L-883,980 L-874,970 L-867,962 L-858,952 L-849,942 L-840,931 L-826,916 L-817,905 L-803,890 L-794,879 L-780,864 L-773,856 L-764,846 L-757,838 L-745,824 L-736,814 L-729,806 L-721,797 L-711,790 L-702,787 L-687,787 L-677,791 L-673,794 L-669,792 L-660,782 L-651,771 L-642,761 L-643,757 L-652,747 L-663,733 L-675,717 L-687,698 L-698,679 L-706,663 L-713,648 L-723,622 L-731,597 L-739,563 L-743,534 L-745,499 L-744,467 L-741,439 L-735,407 L-729,383 L-719,353 L-708,327 L-700,311 L-691,294 L-679,275 L-666,256 L-653,240 L-641,226 L-610,195 L-599,186 L-585,175 L-567,162 L-541,146 L-523,136 L-496,124 L-466,113 L-437,105 L-412,100 L-380,96 L-363,95 L-329,95 L-303,97 L-275,101 L-248,107 L-222,115 L-207,120 L-203,118 L-194,109 L-182,100 L-168,92 L-150,85 L-127,80 L-119,79 L-103,79 L-90,83 L-77,92 L-70,98 L-61,109 L-55,119 L-50,134 L-47,153 L-43,158 L-40,159 L-31,159 L-26,156 L-24,152 L-24,138 L-28,120 L-35,104 L-42,93 L-50,83 L-59,74 L-75,63 L-80,60 L-79,55 L-73,44 L-66,35 L-57,25 L-44,15 L-28,7 L-12,2 Z M-365,120 L-397,123 L-426,128 L-450,134 L-474,142 L-498,152 L-523,164 L-543,176 L-559,187 L-574,198 L-584,206 L-597,217 L-612,231 L-624,244 L-636,258 L-651,278 L-664,298 L-676,319 L-689,346 L-700,375 L-708,402 L-715,436 L-718,463 L-719,477 L-719,514 L-716,545 L-709,581 L-701,609 L-693,631 L-681,658 L-670,678 L-658,697 L-646,714 L-638,724 L-627,737 L-615,750 L-595,770 L-584,779 L-572,789 L-554,802 L-535,814 L-518,824 L-490,837 L-461,848 L-434,856 L-403,862 L-378,865 L-365,866 L-327,866 L-297,863 L-267,858 L-243,852 L-214,842 L-190,832 L-165,819 L-147,808 L-128,795 L-115,785 L-101,773 L-89,762 L-79,753 L-68,741 L-57,728 L-44,711 L-31,692 L-22,677 L-11,657 L1,630 L13,594 L19,570 L23,548 L25,531 L26,516 L26,467 L23,440 L17,408 L9,380 L1,357 L-12,328 L-23,307 L-35,288 L-47,271 L-57,258 L-69,244 L-81,231 L-96,216 L-107,207 L-119,197 L-133,187 L-154,173 L-175,161 L-194,152 L-219,142 L-240,135 L-268,128 L-296,123 L-327,120 Z M-624,778 L-635,790 L-644,801 L-652,810 L-650,814 L-635,827 L-626,835 L-622,833 L-611,821 L-602,810 L-596,803 L-598,799 L-609,790 L-619,780 L-621,780 L-621,778 Z M-697,811 L-703,814 L-711,822 L-720,833 L-730,844 L-739,855 L-751,868 L-758,876 L-769,888 L-776,896 L-785,906 L-794,917 L-807,931 L-814,939 L-823,949 L-830,957 L-839,967 L-851,981 L-862,993 L-869,1001 L-879,1012 L-886,1020 L-898,1034 L-909,1046 L-916,1054 L-925,1064 L-934,1075 L-942,1084 L-948,1096 L-950,1103 L-950,1120 L-946,1133 L-940,1143 L-931,1153 L-923,1159 L-913,1164 L-903,1167 L-884,1167 L-872,1163 L-863,1157 L-850,1144 L-841,1133 L-829,1120 L-822,1112 L-811,1100 L-804,1092 L-795,1082 L-788,1074 L-776,1060 L-765,1048 L-758,1040 L-749,1030 L-742,1022 L-733,1012 L-726,1004 L-717,994 L-710,986 L-701,976 L-694,968 L-685,958 L-678,950 L-669,940 L-660,929 L-646,914 L-637,903 L-624,889 L-621,884 L-621,873 L-625,868 L-633,861 L-645,850 L-653,843 L-665,832 L-673,825 L-683,816 L-689,812 Z " fill="#3B7D80" transform="translate(1205,496)"/>
<path d="M0,0 L40,0 L69,3 L94,8 L125,17 L146,25 L164,33 L188,46 L205,57 L224,71 L238,83 L248,92 L263,107 L272,118 L283,131 L297,152 L308,171 L317,188 L328,215 L335,236 L341,261 L346,292 L348,318 L348,336 L347,356 L343,386 L337,412 L329,438 L319,463 L306,489 L291,513 L281,526 L272,537 L260,551 L239,572 L228,581 L213,593 L195,605 L178,615 L155,627 L128,638 L102,646 L74,652 L52,655 L38,656 L1,656 L-28,653 L-58,647 L-82,640 L-106,631 L-131,619 L-149,609 L-166,598 L-181,587 L-194,576 L-204,567 L-217,555 L-227,544 L-236,533 L-249,516 L-262,496 L-272,478 L-284,453 L-293,428 L-300,402 L-305,376 L-307,360 L-308,346 L-308,312 L-306,290 L-301,259 L-296,239 L-285,206 L-274,182 L-263,161 L-254,147 L-242,130 L-233,119 L-221,105 L-201,85 L-190,76 L-177,65 L-162,55 L-149,47 L-132,37 L-107,25 L-83,16 L-59,9 L-35,4 L-13,1 Z M1,25 L-26,28 L-52,33 L-76,40 L-100,49 L-125,61 L-146,74 L-163,86 L-177,97 L-192,111 L-206,125 L-215,136 L-229,154 L-239,170 L-249,188 L-259,209 L-268,233 L-276,263 L-280,285 L-283,317 L-283,338 L-281,365 L-277,390 L-271,414 L-263,437 L-252,462 L-243,479 L-231,498 L-218,515 L-209,526 L-194,542 L-182,554 L-171,563 L-158,573 L-137,587 L-120,597 L-99,607 L-75,616 L-51,623 L-26,628 L-10,630 L6,631 L31,631 L57,629 L65,628 L61,612 L57,589 L56,578 L56,544 L70,553 L82,559 L98,565 L115,569 L130,571 L156,571 L177,568 L197,563 L203,558 L205,549 L202,542 L197,538 L191,537 L165,543 L158,544 L128,544 L108,540 L91,534 L76,526 L64,517 L50,505 L41,495 L30,479 L24,469 L14,446 L8,426 L5,409 L5,374 L9,352 L15,332 L23,314 L31,300 L41,286 L42,283 L47,288 L59,302 L68,311 L79,320 L93,330 L109,339 L125,346 L140,351 L157,355 L170,357 L182,358 L204,358 L229,355 L252,350 L255,361 L263,376 L271,386 L277,393 L289,402 L306,411 L311,412 L316,392 L316,386 L301,378 L290,368 L283,357 L278,346 L276,339 L281,337 L292,331 L308,320 L319,311 L321,309 L321,298 L318,277 L314,279 L302,291 L288,302 L271,312 L250,321 L229,327 L211,330 L204,330 L198,321 L193,308 L191,297 L191,287 L195,271 L201,259 L210,248 L211,246 L211,238 L208,233 L202,229 L195,229 L188,233 L177,247 L169,263 L165,278 L164,286 L164,300 L167,316 L172,328 L173,330 L155,327 L132,320 L113,311 L98,301 L85,290 L74,279 L62,263 L52,244 L46,228 L41,205 L40,196 L40,179 L43,159 L49,139 L58,120 L67,107 L76,96 L83,89 L96,79 L111,70 L124,65 L136,62 L159,60 L155,57 L133,47 L108,38 L85,32 L59,27 L38,25 Z " fill="#357C81" transform="translate(839,661)"/>
<path d="M0,0 L34,0 L60,2 L88,6 L115,12 L141,20 L153,24 L156,27 L163,28 L176,33 L192,41 L200,45 L221,57 L237,67 L253,78 L267,89 L276,96 L276,98 L280,100 L296,115 L309,128 L316,136 L327,149 L339,165 L353,186 L362,201 L372,219 L379,235 L384,246 L393,270 L399,288 L406,316 L410,338 L414,370 L415,387 L415,407 L413,436 L410,460 L403,494 L395,520 L388,540 L380,560 L372,576 L362,595 L350,614 L339,630 L328,644 L319,655 L307,668 L296,680 L288,688 L280,695 L266,707 L249,720 L232,732 L217,741 L201,750 L175,763 L144,775 L129,780 L115,783 L111,784 L104,787 L77,792 L52,795 L34,796 L2,796 L-26,794 L-54,790 L-77,785 L-105,777 L-135,766 L-163,753 L-186,740 L-203,729 L-212,723 L-217,727 L-224,735 L-233,745 L-242,755 L-241,759 L-236,767 L-233,777 L-233,790 L-236,800 L-242,809 L-254,823 L-266,836 L-275,847 L-287,860 L-294,868 L-303,878 L-312,889 L-325,903 L-332,911 L-342,922 L-349,930 L-358,940 L-365,948 L-374,958 L-381,966 L-390,976 L-397,984 L-406,994 L-413,1002 L-422,1012 L-434,1026 L-444,1037 L-453,1048 L-466,1062 L-473,1070 L-482,1080 L-492,1087 L-504,1093 L-519,1097 L-543,1097 L-558,1093 L-574,1085 L-587,1075 L-597,1064 L-606,1049 L-611,1034 L-612,1029 L-612,1005 L-608,990 L-601,977 L-593,967 L-582,955 L-570,941 L-559,929 L-552,921 L-543,911 L-536,903 L-527,893 L-520,885 L-511,875 L-504,867 L-495,857 L-486,847 L-477,836 L-463,821 L-454,810 L-440,795 L-431,784 L-417,769 L-410,761 L-401,751 L-394,743 L-382,729 L-373,719 L-366,711 L-358,702 L-348,695 L-339,692 L-324,692 L-314,696 L-310,699 L-306,697 L-297,687 L-288,676 L-279,666 L-280,662 L-289,652 L-300,638 L-312,622 L-324,603 L-335,584 L-343,568 L-350,553 L-360,527 L-368,502 L-376,468 L-380,439 L-382,404 L-381,372 L-378,344 L-372,312 L-366,288 L-356,258 L-345,232 L-337,216 L-328,199 L-316,180 L-303,161 L-290,145 L-278,131 L-247,100 L-236,91 L-222,80 L-204,67 L-178,51 L-160,41 L-133,29 L-103,18 L-74,10 L-49,5 L-17,1 Z M-2,25 L-34,28 L-63,33 L-87,39 L-111,47 L-135,57 L-160,69 L-180,81 L-196,92 L-211,103 L-221,111 L-234,122 L-249,136 L-261,149 L-273,163 L-288,183 L-301,203 L-313,224 L-326,251 L-337,280 L-345,307 L-352,341 L-355,368 L-356,382 L-356,419 L-353,450 L-346,486 L-338,514 L-330,536 L-318,563 L-307,583 L-295,602 L-283,619 L-275,629 L-264,642 L-252,655 L-232,675 L-221,684 L-209,694 L-191,707 L-172,719 L-155,729 L-127,742 L-98,753 L-71,761 L-40,767 L-15,770 L-2,771 L36,771 L66,768 L96,763 L120,757 L149,747 L173,737 L198,724 L216,713 L235,700 L248,690 L262,678 L274,667 L284,658 L295,646 L306,633 L319,616 L332,597 L341,582 L352,562 L364,535 L376,499 L382,475 L386,453 L388,436 L389,421 L389,372 L386,345 L380,313 L372,285 L364,262 L351,233 L340,212 L328,193 L316,176 L306,163 L294,149 L282,136 L267,121 L256,112 L244,102 L230,92 L209,78 L188,66 L169,57 L144,47 L123,40 L95,33 L67,28 L36,25 Z M-261,683 L-272,695 L-281,706 L-289,715 L-287,719 L-272,732 L-263,740 L-259,738 L-248,726 L-239,715 L-233,708 L-235,704 L-246,695 L-256,685 L-258,685 L-258,683 Z M-334,716 L-340,719 L-348,727 L-357,738 L-367,749 L-376,760 L-388,773 L-395,781 L-406,793 L-413,801 L-422,811 L-431,822 L-444,836 L-451,844 L-460,854 L-467,862 L-476,872 L-488,886 L-499,898 L-506,906 L-516,917 L-523,925 L-535,939 L-546,951 L-553,959 L-562,969 L-571,980 L-579,989 L-585,1001 L-587,1008 L-587,1025 L-583,1038 L-577,1048 L-568,1058 L-560,1064 L-550,1069 L-540,1072 L-521,1072 L-509,1068 L-500,1062 L-487,1049 L-478,1038 L-466,1025 L-459,1017 L-448,1005 L-441,997 L-432,987 L-425,979 L-413,965 L-402,953 L-395,945 L-386,935 L-379,927 L-370,917 L-363,909 L-354,899 L-347,891 L-338,881 L-331,873 L-322,863 L-315,855 L-306,845 L-297,834 L-283,819 L-274,808 L-261,794 L-258,789 L-258,778 L-262,773 L-270,766 L-282,755 L-290,748 L-302,737 L-310,730 L-320,721 L-326,717 Z " fill="#2D7B82" transform="translate(842,591)"/>
<path d="M0,0 L11,6 L29,17 L44,27 L60,40 L73,52 L83,62 L90,70 L103,86 L119,110 L131,131 L139,148 L146,165 L152,183 L158,209 L160,216 L160,223 L159,223 L159,218 L151,225 L143,233 L129,244 L112,254 L91,263 L70,269 L52,272 L45,272 L39,264 L34,253 L31,238 L31,228 L35,212 L41,200 L50,189 L51,187 L51,179 L48,174 L43,171 L36,171 L29,175 L19,188 L11,204 L7,219 L6,227 L6,241 L9,257 L14,269 L14,271 L6,271 L-15,266 L-34,259 L-51,250 L-65,240 L-78,228 L-86,220 L-98,204 L-108,185 L-114,169 L-119,146 L-120,137 L-120,120 L-117,100 L-111,80 L-102,61 L-93,48 L-84,37 L-76,29 L-63,19 L-48,10 L-35,5 L-23,2 Z " fill="#3C7D80" transform="translate(998,720)"/>
<path d="M0,0 L20,0 L37,4 L51,11 L64,21 L74,33 L82,49 L86,64 L86,87 L82,103 L75,117 L67,127 L58,136 L47,143 L36,148 L20,152 L2,152 L-12,149 L-24,144 L-36,137 L-45,129 L-53,119 L-61,104 L-65,88 L-65,63 L-61,48 L-53,33 L-42,20 L-30,11 L-16,4 Z " fill="#C2B7E9" transform="translate(871,341)"/>
<path d="M0,0 L22,0 L35,3 L52,11 L63,20 L72,30 L80,44 L85,59 L86,65 L86,84 L82,101 L74,117 L66,127 L58,135 L45,143 L33,148 L17,151 L4,151 L-11,148 L-23,143 L-33,137 L-45,127 L-54,115 L-61,100 L-64,89 L-65,72 L-63,57 L-57,41 L-50,30 L-41,20 L-31,12 L-15,4 L-6,1 Z " fill="#F3BDBB" transform="translate(1320,1587)"/>
<path d="M0,0 L8,2 L13,8 L14,16 L10,23 L1,26 L-25,29 L-48,34 L-71,42 L-96,54 L-112,64 L-128,76 L-138,85 L-146,92 L-150,97 L-152,97 L-154,101 L-163,111 L-176,129 L-187,148 L-195,165 L-206,198 L-210,219 L-212,238 L-216,246 L-222,249 L-231,248 L-236,243 L-237,241 L-237,225 L-234,205 L-226,175 L-218,153 L-206,129 L-193,109 L-184,97 L-172,83 L-150,61 L-136,50 L-117,37 L-103,29 L-82,19 L-49,8 L-27,3 L-13,1 Z " fill="#2E7B83" transform="translate(840,731)"/>
<path d="M0,0 L16,0 L28,4 L38,11 L45,19 L50,29 L52,37 L52,52 L48,64 L41,75 L33,82 L23,87 L16,89 L-1,89 L-13,85 L-24,77 L-31,68 L-36,57 L-37,53 L-37,37 L-33,25 L-26,15 L-17,7 L-7,2 Z " fill="#86A79B" transform="translate(322,1117)"/>
<path d="M0,0 L1,0 L1,43 L0,63 L-3,82 L-4,94 L-6,96 L-5,86 L-11,84 L-21,78 L-32,68 L-39,57 L-44,46 L-45,39 L-29,30 L-13,19 L-2,10 L-1,9 Z " fill="#428083" transform="translate(1160,961)"/>
<path d="M0,0 L1,0 L2,18 L2,53 L0,55 L-1,30 Z " fill="#639195" transform="translate(461,963)"/>
<path d="M0,0 L1,0 L2,18 L2,36 L1,56 L0,64 L-1,64 L-2,52 L-1,52 Z " fill="#81ADB0" transform="translate(1185,961)"/>
<path d="M0,0 L2,1 L0,4 L-3,4 L-5,8 L-19,22 L-22,21 L-9,7 Z " fill="#689394" transform="translate(1158,513)"/>
<path d="M0,0 L1,0 L1,29 L-5,29 L-4,27 L-1,27 L-2,23 L-2,7 Z " fill="#759C9D" transform="translate(1083,1402)"/>
<path d="M0,0 L1,0 L2,44 L1,52 L0,52 L-1,47 Z " fill="#92BABB" transform="translate(1231,975)"/>
<path d="M0,0 L2,1 L-7,11 L-14,18 L-18,19 L-15,14 L-6,5 Z " fill="#659294" transform="translate(928,744)"/>
<path d="M0,0 L2,1 L-5,8 L-12,16 L-20,24 L-24,25 L-18,18 Z " fill="#578D92" transform="translate(595,691)"/>
<path d="M0,0 L1,3 L-7,12 L-14,20 L-17,19 L-4,5 Z " fill="#568C90" transform="translate(413,1573)"/>
<path d="M0,0 L45,2 L45,3 L3,3 Z " fill="#7AA5A8" transform="translate(823,1290)"/>
<path d="M0,0 L2,1 L-7,11 L-12,16 L-15,15 L-5,4 Z " fill="#5C9296" transform="translate(489,1289)"/>
<path d="M0,0 L2,1 L-6,9 L-13,17 L-15,19 L-18,18 Z " fill="#619599" transform="translate(638,746)"/>
<path d="M0,0 L2,1 L-5,9 L-10,14 L-14,15 L-8,7 Z " fill="#C9BFE3" transform="translate(835,356)"/>
<path d="M0,0 L37,0 L33,2 L4,3 L4,1 Z " fill="#85A6A7" transform="translate(1014,1018)"/>
<path d="M0,0 L2,1 L-7,11 L-12,12 L-6,5 Z " fill="#60959B" transform="translate(696,787)"/>
<path d="M0,0 L2,0 L0,4 L-7,11 L-9,11 L-9,13 L-11,12 L-4,4 Z " fill="#EFC9C6" transform="translate(1282,1604)"/>
<path d="M0,0 L5,0 L5,2 L16,2 L16,3 L0,3 L-9,2 L-9,1 Z " fill="#83AFB2" transform="translate(825,1383)"/>
<path d="M0,0 L2,1 L-9,13 L-12,12 Z " fill="#679395" transform="translate(1146,1338)"/>
<path d="M0,0 L8,1 L8,2 L3,3 L-21,3 L-21,2 L0,1 Z " fill="#7AA5A9" transform="translate(320,1685)"/>
<path d="M0,0 L1,3 L-6,11 L-10,12 L-4,4 Z " fill="#5C9194" transform="translate(344,1451)"/>
<path d="M0,0 L2,1 L0,12 L-2,20 L-4,17 L-4,15 L-2,15 L-3,10 L-2,7 L0,7 Z " fill="#729EA1" transform="translate(566,904)"/>
<path d="M0,0 L4,1 L-4,7 L-10,8 L-6,4 Z " fill="#60979A" transform="translate(1071,1294)"/>
<path d="M0,0 L12,1 L12,2 L3,3 L-12,3 L-12,2 L-1,1 Z " fill="#7FACAF" transform="translate(891,1383)"/>
<path d="M0,0 L1,0 L1,10 L0,24 L-1,24 L-2,6 L0,6 Z " fill="#8DB4B7" transform="translate(487,949)"/>
<path d="M0,0 L2,0 L0,4 L-6,11 L-8,11 L-6,7 Z " fill="#598E91" transform="translate(251,1556)"/>
<path d="M0,0 L1,4 L-5,15 L-7,15 L-5,9 Z " fill="#699A9E" transform="translate(635,859)"/>
<path d="M0,0 L3,0 L3,2 L-9,7 L-11,6 L-10,4 Z " fill="#699B9E" transform="translate(728,637)"/>
<path d="M0,0 L2,0 L2,2 L14,2 L15,5 L6,4 L-5,2 L-5,1 Z " fill="#83AEB0" transform="translate(921,619)"/>
<path d="M0,0 L2,0 L0,5 L-4,9 L-7,8 Z " fill="#578D92" transform="translate(373,1618)"/>
<path d="M0,0 L1,3 L-6,10 L-9,9 Z " fill="#558C91" transform="translate(673,809)"/>
<path d="M0,0 L17,1 L17,2 L-2,3 Z " fill="#87B2B5" transform="translate(823,685)"/>
<path d="M0,0 L17,1 L17,2 L-2,3 L0,2 Z " fill="#8CB4B6" transform="translate(823,615)"/>
<path d="M0,0 L1,3 L-6,11 L-9,10 Z " fill="#629296" transform="translate(413,1573)"/>
<path d="M0,0 L2,2 L2,5 L4,5 L6,9 L6,12 L8,13 L5,13 L0,4 Z " fill="#68989B" transform="translate(508,1173)"/>
<path d="M0,0 L4,0 L4,2 L10,2 L10,3 L-10,2 L-10,1 Z " fill="#88B0B4" transform="translate(887,685)"/>
<path d="M0,0 L1,3 L-5,10 L-8,9 Z " fill="#5B9093" transform="translate(386,1603)"/>
<path d="M0,0 L2,0 L-1,10 L-3,14 L-3,6 Z " fill="#749EA1" transform="translate(258,1585)"/>
<path d="M0,0 L3,0 L3,2 L-6,5 L-10,4 L-7,4 L-7,2 Z " fill="#749C9D" transform="translate(1241,1509)"/>
<path d="M0,0 L3,0 L1,4 L-3,8 L-6,7 Z " fill="#528A8F" transform="translate(560,1407)"/>
<path d="M0,0 L1,4 L-1,15 L-3,15 L-2,7 Z " fill="#6F9EA1" transform="translate(475,883)"/>
<path d="M0,0 L2,0 L1,5 L-3,13 L-4,13 L-4,8 L-2,4 L0,4 Z " fill="#69989A" transform="translate(587,850)"/>
<path d="M0,0 L1,3 L-4,9 L-7,8 Z " fill="#5C9396" transform="translate(467,1312)"/>
<path d="M0,0 L1,0 L1,10 L0,18 L-1,18 L-2,6 L-1,6 Z " fill="#89B5B7" transform="translate(1185,1007)"/>
<path d="M0,0 L3,2 L2,18 L1,18 Z " fill="#7EA7AB" transform="translate(1230,957)"/>
<path d="M0,0 L2,1 L-2,5 L-5,7 L-9,6 Z " fill="#629498" transform="translate(680,714)"/>
<path d="M0,0 L3,0 L1,4 L-2,7 L-5,6 Z " fill="#518C8F" transform="translate(490,1486)"/>
<path d="M0,0 L5,0 L1,3 L-4,5 L-7,5 L-7,3 Z " fill="#6D9698" transform="translate(1096,977)"/>
<path d="M0,0 L1,4 L-1,14 L-2,14 L-3,7 L-2,3 L0,3 Z " fill="#719DA1" transform="translate(562,925)"/>
<path d="M0,0 L2,1 L0,5 L-3,8 L-6,7 Z " fill="#5B9294" transform="translate(333,1463)"/>
<path d="M0,0 L4,3 L4,5 L2,5 L2,3 L-3,7 L-5,6 Z " fill="#A3B6AD" transform="translate(1779,944)"/>
<path d="M0,0 Z M-3,1 L0,2 L-6,8 L-9,7 Z " fill="#407F87" transform="translate(683,801)"/>
<path d="M0,0 L1,3 L3,3 L4,11 L2,11 L0,4 Z " fill="#558D91" transform="translate(1173,902)"/>
<path d="M0,0 L10,0 L11,3 L4,2 Z " fill="#6DA0A4" transform="translate(774,1305)"/>
<path d="M0,0 L2,0 L1,4 L-2,8 L-5,7 L-1,2 Z " fill="#5A9094" transform="translate(609,1297)"/>
<path d="M0,0 L2,0 L-1,11 L-2,11 L-1,1 Z " fill="#649396" transform="translate(572,886)"/>
<path d="M0,0 L2,0 L1,4 L-3,8 L-3,5 Z " fill="#5B9096" transform="translate(645,843)"/>
<path d="M0,0 L6,0 L3,2 L-5,4 L-4,1 Z " fill="#719DA1" transform="translate(786,764)"/>
<path d="M0,0 L1,2 L-2,7 L-6,8 Z " fill="#649699" transform="translate(363,1629)"/>
<path d="M0,0 L1,4 L-3,8 L-6,7 Z " fill="#5E9394" transform="translate(308,1491)"/>
<path d="M0,0 L9,1 L8,3 L0,2 Z " fill="#6D9697" transform="translate(1055,1425)"/>
<path d="M0,0 L6,2 L10,5 L3,4 L0,1 Z " fill="#6F9EA0" transform="translate(698,1325)"/>
<path d="M0,0 L4,3 L1,4 L-3,8 L-1,1 Z " fill="#A0B6AC" transform="translate(1572,1010)"/>
<path d="M0,0 L1,3 L-3,8 L-6,7 Z " fill="#669598" transform="translate(521,1451)"/>
<path d="M0,0 L2,1 L0,5 L-2,7 L-5,6 Z " fill="#599092" transform="translate(395,1393)"/>
<path d="M0,0 L1,3 L-3,8 L-6,7 Z " fill="#629698" transform="translate(404,1383)"/>
<path d="M0,0 L2,0 L1,4 L-1,6 L-4,5 Z " fill="#508B8F" transform="translate(1161,1206)"/>
<path d="M0,0 L1,0 L0,13 L-1,13 L-2,5 L0,5 Z " fill="#81AEB0" transform="translate(1183,1027)"/>
<path d="M0,0 L3,3 L2,13 L1,13 Z " fill="#8BB4B7" transform="translate(1158,946)"/>
<path d="M0,0 L1,3 L-3,7 L-3,3 Z " fill="#65999B" transform="translate(344,1451)"/>
<path d="M0,0 L2,0 L0,4 L-2,6 L-5,5 Z " fill="#568E91" transform="translate(593,1317)"/>
<path d="M0,0 L1,0 L1,11 L-2,12 Z " fill="#86ACAC" transform="translate(1200,1302)"/>
<path d="M0,0 L9,2 L9,3 L1,3 Z " fill="#5E9396" transform="translate(761,1276)"/>
<path d="M0,0 L2,3 L4,7 L4,10 L2,10 L0,4 Z " fill="#6F9B9E" transform="translate(514,1131)"/>
<path d="M0,0 L2,0 L3,8 L1,8 Z " fill="#639598" transform="translate(561,1051)"/>
<path d="M0,0 L1,2 L-3,7 L-6,6 Z " fill="#578E92" transform="translate(570,716)"/>
<path d="M0,0 L5,0 L1,3 L-4,4 L-4,2 Z " fill="#659699" transform="translate(704,647)"/>
</svg>
