<svg xmlns="http://www.w3.org/2000/svg" viewBox="0 0 220 160" fill="none">
  <!-- Folders -->
  <path d="M30 50 L30 130 Q30 140 40 140 L180 140 Q190 140 190 130 L190 70 Q190 60 180 60 L100 60 L80 35 L50 35 L30 50Z" fill="#E8F4F3" stroke="#549695" stroke-width="2"/>
  <path d="M40 55 L40 125 Q40 132 48 132 L175 132 Q182 132 182 125 L182 65 Q182 58 175 58 L95 58 L72 35 L48 35 Q40 35 40 42Z" fill="white" stroke="#549695" stroke-width="1.5"/>
  <!-- Folder tabs -->
  <path d="M40 42 Q40 35 48 35 L72 35 L95 58 L48 58Z" fill="#549695" opacity="0.3" stroke="#549695" stroke-width="1.5"/>
  <!-- Labels on folders -->
  <text x="110" y="100" text-anchor="middle" font-family="Nunito, sans-serif" font-size="11" font-weight="700" fill="#549695" opacity="0.7">Cours</text>
</svg>
