<?xml version="1.0" encoding="UTF-8"?>
<!-- Generator: visioncortex VTracer 0.6.12 -->
<svg version="1.1" xmlns="http://www.w3.org/2000/svg" width="2048" height="2048">
<path d="M0,0 L2048,0 L2048,2048 L0,2048 Z " fill="#F7EFDB" transform="translate(0,0)"/>
<path d="M0,0 L24,0 L37,4 L49,11 L57,19 L64,30 L70,44 L73,55 L75,70 L75,98 L71,123 L65,143 L59,160 L48,184 L38,201 L26,218 L17,229 L6,241 L-4,251 L-18,262 L-31,271 L-52,283 L-73,292 L-76,293 L-84,339 L-91,390 L-93,411 L-93,417 L-80,401 L-71,390 L-68,387 L-63,362 L-55,338 L-43,313 L-33,297 L-23,284 L-12,272 L2,258 L15,248 L36,235 L55,226 L82,217 L96,214 L110,212 L140,212 L156,215 L173,222 L182,229 L190,238 L195,251 L196,255 L196,267 L194,279 L188,294 L179,309 L169,322 L160,332 L149,343 L138,352 L122,364 L98,378 L79,387 L54,396 L33,402 L9,406 L-2,407 L-30,407 L-54,404 L-61,412 L-75,432 L-85,450 L-92,465 L-96,479 L-97,485 L-97,586 L-95,628 L-88,617 L-80,606 L-79,589 L-75,568 L-70,551 L-62,533 L-54,519 L-46,508 L-38,498 L-26,486 L-12,475 L6,464 L24,456 L41,451 L55,448 L64,447 L78,447 L91,449 L103,454 L112,461 L119,472 L122,481 L122,495 L118,511 L111,527 L103,540 L93,553 L71,575 L55,587 L34,599 L17,607 L-4,614 L-26,619 L-67,620 L-76,635 L-85,654 L-90,670 L-90,687 L-89,691 L-89,702 L-64,686 L-40,672 L-13,658 L10,647 L46,632 L76,621 L110,610 L135,603 L166,595 L195,589 L200,590 L201,591 L201,614 L219,610 L229,610 L230,611 L230,632 L242,629 L251,629 L258,632 L263,636 L268,645 L268,1160 L263,1169 L257,1174 L245,1179 L200,1190 L185,1194 L161,1200 L143,1205 L126,1209 L111,1213 L83,1220 L68,1224 L30,1234 L1,1241 L-17,1246 L-62,1257 L-67,1261 L-80,1265 L-92,1267 L-114,1267 L-133,1263 L-143,1258 L-152,1255 L-170,1251 L-185,1247 L-208,1241 L-232,1235 L-250,1230 L-287,1221 L-302,1217 L-324,1211 L-345,1206 L-372,1199 L-435,1183 L-450,1179 L-461,1175 L-467,1171 L-473,1162 L-474,1157 L-474,646 L-470,638 L-461,630 L-458,629 L-448,629 L-436,632 L-436,611 L-435,610 L-421,611 L-407,614 L-407,591 L-405,589 L-397,590 L-364,597 L-344,602 L-324,608 L-310,612 L-274,624 L-249,633 L-218,646 L-188,660 L-165,672 L-143,685 L-124,697 L-124,682 L-127,628 L-128,604 L-132,591 L-141,574 L-153,557 L-165,543 L-168,540 L-177,541 L-191,544 L-204,546 L-252,546 L-277,542 L-303,535 L-331,524 L-353,513 L-372,501 L-386,490 L-396,481 L-410,467 L-421,452 L-429,436 L-432,425 L-432,402 L-428,393 L-422,384 L-413,376 L-403,370 L-388,365 L-372,362 L-330,362 L-312,365 L-288,372 L-268,380 L-249,390 L-237,398 L-224,408 L-211,420 L-204,427 L-193,441 L-181,459 L-169,482 L-162,500 L-157,521 L-147,530 L-135,542 L-129,549 L-129,551 L-127,551 L-127,527 L-126,504 L-122,455 L-122,435 L-127,411 L-135,388 L-140,377 L-140,375 L-151,375 L-173,371 L-194,365 L-214,357 L-233,347 L-248,337 L-260,328 L-275,315 L-293,297 L-304,283 L-313,270 L-321,256 L-330,237 L-336,216 L-337,209 L-337,184 L-333,173 L-327,163 L-318,155 L-306,149 L-299,147 L-273,147 L-252,152 L-231,160 L-210,171 L-194,182 L-180,194 L-166,208 L-156,221 L-146,237 L-137,254 L-129,275 L-124,295 L-121,316 L-121,352 L-122,365 L-114,382 L-108,344 L-101,308 L-96,287 L-98,282 L-107,265 L-116,240 L-120,227 L-124,203 L-125,190 L-125,164 L-120,134 L-114,115 L-106,95 L-97,78 L-86,62 L-77,51 L-68,41 L-57,30 L-41,18 L-25,9 L-11,3 Z " fill="#080D0C" transform="translate(1127,391)"/>
<path d="M0,0 L11,0 L17,4 L21,10 L22,13 L22,521 L18,530 L12,535 L-12,542 L-39,549 L-71,557 L-85,561 L-118,569 L-133,573 L-153,578 L-168,582 L-192,588 L-206,592 L-227,597 L-255,604 L-270,608 L-294,614 L-300,615 L-300,77 L-284,72 L-242,61 L-207,52 L-158,40 L-140,35 L-111,28 L-93,23 L-52,13 L-34,8 L-8,2 Z " fill="#2FA09F" transform="translate(1368,1026)"/>
<path d="M0,0 L10,0 L43,8 L110,25 L153,36 L209,50 L227,55 L265,65 L281,69 L309,76 L310,77 L310,615 L302,614 L288,610 L267,605 L249,600 L228,595 L192,586 L177,582 L118,567 L103,563 L79,557 L64,553 L38,546 L17,541 L1,536 L-4,533 L-10,526 L-11,522 L-11,11 L-7,5 L-2,1 Z " fill="#2FA09F" transform="translate(670,1026)"/>
<path d="M0,0 L19,4 L27,6 L50,6 L64,3 L75,0 L78,0 L78,538 L70,543 L53,547 L25,547 L11,544 L3,540 L0,537 Z " fill="#2F9F9F" transform="translate(985,1105)"/>
<path d="M0,0 L25,0 L41,3 L55,8 L72,17 L85,27 L98,40 L108,55 L116,72 L120,85 L122,96 L122,121 L119,139 L112,157 L104,172 L96,182 L87,192 L73,203 L56,212 L39,218 L21,221 L0,221 L-22,216 L-38,209 L-49,203 L-59,195 L-69,186 L-79,174 L-87,161 L-93,146 L-97,132 L-99,121 L-99,100 L-97,89 L-93,74 L-86,58 L-77,44 L-66,31 L-54,21 L-38,11 L-21,4 L-8,1 Z " fill="#AA9FDE" transform="translate(518,471)"/>
<path d="M0,0 L17,0 L29,3 L40,9 L50,19 L58,33 L63,48 L66,66 L66,90 L61,120 L56,136 L49,156 L38,179 L25,200 L15,213 L6,224 L-13,243 L-27,254 L-42,264 L-69,278 L-79,281 L-75,260 L-66,221 L-57,190 L-52,174 L-42,146 L-30,117 L-19,93 L-5,65 L-6,61 L-9,61 L-26,89 L-43,122 L-55,147 L-67,177 L-79,210 L-91,250 L-97,273 L-101,268 L-110,248 L-114,238 L-119,219 L-122,201 L-123,192 L-123,159 L-121,143 L-115,118 L-107,97 L-99,81 L-89,65 L-79,52 L-68,40 L-57,29 L-41,17 L-23,7 L-5,1 Z " fill="#329E9C" transform="translate(1131,396)"/>
<path d="M0,0 L18,0 L34,3 L53,11 L64,18 L74,26 L84,36 L94,51 L101,66 L105,80 L106,87 L106,108 L103,125 L98,139 L89,155 L77,169 L68,177 L54,186 L43,191 L31,195 L20,197 L-6,197 L-24,193 L-40,186 L-52,178 L-62,169 L-69,162 L-78,149 L-85,134 L-90,117 L-91,110 L-91,84 L-86,65 L-78,49 L-71,38 L-62,28 L-48,17 L-34,9 L-19,3 Z " fill="#A99FDD" transform="translate(1602,1014)"/>
<path d="M0,0 L31,0 L54,3 L78,10 L102,20 L118,29 L134,40 L148,52 L160,64 L171,78 L181,93 L191,111 L201,136 L203,143 L202,147 L193,139 L177,127 L155,112 L134,99 L101,82 L76,71 L49,61 L21,52 L6,49 L7,54 L37,66 L57,75 L82,87 L104,99 L130,115 L150,129 L168,143 L182,155 L190,162 L194,167 L186,170 L160,174 L120,174 L95,170 L74,165 L56,159 L35,150 L14,139 L-7,125 L-20,114 L-30,105 L-39,95 L-49,81 L-57,65 L-59,55 L-59,38 L-54,26 L-45,16 L-34,9 L-21,4 L-8,1 Z " fill="#319E9D" transform="translate(759,758)"/>
<path d="M0,0 L33,0 L54,5 L64,10 L74,19 L79,27 L82,35 L82,51 L79,63 L74,75 L68,86 L59,98 L46,113 L36,122 L20,135 L5,145 L-12,155 L-33,165 L-53,172 L-69,177 L-91,181 L-105,183 L-139,183 L-157,181 L-155,176 L-123,144 L-112,135 L-103,127 L-87,115 L-69,102 L-49,89 L-25,75 L1,61 L18,52 L18,47 L5,51 L-21,62 L-50,76 L-67,85 L-93,101 L-115,116 L-132,129 L-145,140 L-155,149 L-163,156 L-168,160 L-167,153 L-163,137 L-156,118 L-148,101 L-135,80 L-122,64 L-110,51 L-96,39 L-80,28 L-60,17 L-34,7 L-18,3 Z " fill="#329F9D" transform="translate(1235,609)"/>
<path d="M0,0 L18,0 L36,3 L56,10 L75,19 L93,30 L104,39 L116,50 L128,62 L141,80 L151,98 L160,119 L167,145 L170,169 L170,197 L169,203 L166,200 L156,183 L146,168 L136,154 L125,140 L113,126 L102,114 L79,91 L71,84 L61,75 L47,64 L28,50 L24,50 L25,55 L38,67 L55,83 L63,91 L70,99 L80,109 L89,120 L101,134 L116,154 L127,170 L140,191 L153,216 L153,217 L140,217 L113,211 L93,204 L74,195 L56,184 L40,172 L30,164 L19,154 L12,146 L2,135 L-11,117 L-20,102 L-27,87 L-34,66 L-36,56 L-36,37 L-33,25 L-27,15 L-18,7 L-10,3 Z " fill="#329E9C" transform="translate(831,543)"/>
<path d="M0,0 L26,0 L38,3 L50,8 L61,15 L73,26 L80,36 L88,52 L91,63 L91,89 L87,104 L82,116 L74,127 L68,134 L55,144 L41,151 L36,153 L24,155 L0,155 L-16,150 L-28,144 L-38,136 L-48,126 L-56,113 L-61,101 L-64,90 L-64,64 L-59,48 L-51,33 L-40,21 L-30,12 L-15,4 L-6,1 Z " fill="#F2A6A4" transform="translate(1499,755)"/>
<path d="M0,0 L22,0 L36,4 L46,10 L53,19 L56,29 L56,42 L54,52 L48,68 L39,83 L29,96 L15,111 L2,122 L-14,133 L-32,143 L-53,152 L-66,156 L-79,159 L-95,161 L-123,161 L-121,157 L-111,144 L-102,133 L-88,118 L-74,104 L-66,97 L-51,84 L-34,71 L-19,60 L5,44 L5,39 L-5,43 L-21,51 L-43,64 L-63,78 L-77,89 L-90,100 L-102,111 L-122,131 L-131,142 L-133,143 L-133,133 L-129,113 L-123,95 L-115,79 L-108,67 L-99,55 L-90,45 L-81,36 L-65,24 L-49,15 L-31,7 L-13,2 Z " fill="#329E9C" transform="translate(1187,844)"/>
<path d="M0,0 L15,0 L29,3 L42,8 L53,15 L63,24 L70,34 L77,48 L80,59 L80,83 L78,94 L73,106 L65,118 L58,126 L46,135 L31,142 L15,145 L0,145 L-17,141 L-32,133 L-44,122 L-52,113 L-60,97 L-63,85 L-63,58 L-59,45 L-53,33 L-45,23 L-35,14 L-21,6 L-10,2 Z " fill="#90AD91" transform="translate(1574,509)"/>
<path d="M0,0 L17,0 L28,3 L41,8 L52,15 L63,25 L72,39 L77,51 L79,58 L79,84 L74,100 L68,112 L59,123 L48,132 L32,140 L20,143 L-4,143 L-16,140 L-31,132 L-42,123 L-49,115 L-57,101 L-62,86 L-62,57 L-57,42 L-50,30 L-39,18 L-28,10 L-16,4 Z " fill="#F1A6A4" transform="translate(501,1235)"/>
<path d="M0,0 L1,3 L-9,29 L-20,62 L-28,91 L-37,128 L-46,176 L-53,218 L-59,268 L-61,296 L-58,295 L-44,276 L-35,265 L-25,254 L-18,246 L-5,233 L3,226 L17,214 L37,199 L64,181 L89,166 L116,152 L122,150 L119,153 L99,164 L77,178 L62,189 L46,201 L30,214 L19,224 L11,231 L-6,248 L-13,256 L-20,264 L-33,281 L-43,296 L-56,321 L-61,335 L-63,344 L-64,358 L-64,425 L-63,468 L-61,501 L-60,503 L-57,502 L-46,485 L-35,470 L-24,456 L-15,446 L-4,434 L11,420 L22,411 L38,398 L58,384 L60,385 L48,395 L38,403 L28,412 L20,419 L-5,444 L-14,455 L-25,469 L-34,482 L-46,503 L-54,523 L-56,532 L-56,548 L-55,556 L-55,570 L-61,577 L-66,576 L-76,568 L-78,565 L-80,543 L-83,473 L-85,460 L-90,447 L-98,433 L-111,415 L-120,405 L-127,397 L-138,386 L-149,377 L-162,366 L-178,354 L-202,338 L-227,323 L-253,309 L-275,299 L-272,298 L-239,312 L-210,326 L-192,336 L-168,351 L-152,363 L-140,372 L-127,383 L-115,394 L-99,410 L-90,421 L-87,425 L-84,425 L-82,376 L-80,351 L-79,331 L-78,322 L-78,295 L-84,268 L-93,244 L-105,219 L-116,199 L-129,178 L-140,163 L-149,151 L-162,135 L-170,125 L-186,108 L-194,100 L-191,100 L-183,108 L-175,115 L-156,134 L-149,142 L-140,152 L-129,166 L-119,179 L-102,205 L-87,231 L-74,259 L-74,261 L-71,260 L-69,242 L-66,223 L-62,199 L-56,169 L-52,153 L-48,137 L-41,109 L-24,57 L-8,17 Z " fill="#369B99" transform="translate(1088,528)"/>
<path d="M0,0 L24,0 L32,2 L44,7 L55,15 L62,22 L71,36 L76,51 L76,72 L73,84 L65,100 L56,110 L46,118 L35,123 L29,125 L22,126 L1,126 L-14,121 L-24,115 L-34,106 L-41,97 L-47,85 L-50,73 L-50,50 L-46,38 L-40,27 L-31,17 L-23,10 L-7,2 Z " fill="#90AE91" transform="translate(391,1015)"/>
<path d="M0,0 L15,0 L27,4 L37,10 L45,18 L50,26 L54,38 L54,52 L49,68 L41,79 L30,87 L19,91 L14,92 L-1,92 L-12,88 L-22,82 L-30,73 L-37,59 L-38,52 L-38,39 L-34,26 L-27,16 L-20,9 L-4,1 Z " fill="#F0A6A4" transform="translate(553,859)"/>
<path d="M0,0 L12,2 L45,8 L74,15 L90,19 L111,24 L134,31 L154,37 L190,49 L220,60 L255,74 L285,87 L310,98 L307,99 L283,91 L254,84 L236,79 L180,65 L166,61 L141,55 L123,50 L102,45 L87,41 L39,29 L21,24 L1,19 L0,18 Z " fill="#F6EFDB" transform="translate(696,1006)"/>
<path d="M0,0 L11,0 L21,3 L31,9 L38,16 L44,27 L45,32 L45,48 L42,57 L36,67 L27,75 L14,80 L-3,80 L-13,76 L-21,70 L-29,61 L-34,48 L-34,32 L-30,21 L-23,12 L-16,6 L-5,1 Z " fill="#A89FDB" transform="translate(1516,1405)"/>
<path d="M0,0 L8,0 L8,18 L-25,26 L-43,31 L-92,43 L-106,47 L-143,56 L-158,60 L-198,70 L-213,74 L-244,82 L-262,87 L-277,91 L-295,97 L-298,96 L-261,79 L-230,66 L-190,51 L-159,40 L-140,34 L-123,29 L-102,23 L-78,17 L-62,13 L-37,7 Z " fill="#F6F0DB" transform="translate(1344,1007)"/>
<path d="M0,0 L4,0 L4,20 L-8,23 L-28,27 L-58,34 L-76,39 L-100,46 L-120,52 L-151,62 L-192,77 L-229,92 L-258,105 L-277,114 L-279,113 L-249,93 L-226,80 L-203,68 L-180,57 L-149,44 L-109,29 L-70,17 L-46,11 L-28,6 Z " fill="#F6EFDB" transform="translate(1319,986)"/>
<path d="M0,0 L7,0 L29,5 L55,11 L75,17 L101,25 L114,29 L147,41 L176,53 L202,65 L218,73 L239,84 L259,96 L283,112 L281,113 L251,99 L215,84 L179,70 L142,57 L118,49 L93,42 L75,37 L53,31 L17,23 L1,20 L0,19 Z " fill="#F5EFDA" transform="translate(726,987)"/>
<path d="M0,0 L25,0 L41,3 L55,8 L72,17 L85,27 L98,40 L108,55 L116,72 L120,85 L122,96 L122,121 L119,139 L112,157 L104,172 L96,182 L87,192 L73,203 L56,212 L39,218 L21,221 L0,221 L-22,216 L-38,209 L-49,203 L-59,195 L-69,186 L-79,174 L-87,161 L-93,146 L-97,132 L-99,121 L-99,100 L-97,89 L-93,74 L-86,58 L-77,44 L-66,31 L-54,21 L-38,11 L-21,4 L-8,1 Z M2,5 L-21,10 L-37,17 L-51,26 L-61,35 L-70,44 L-77,54 L-86,71 L-90,83 L-93,98 L-93,122 L-89,140 L-83,156 L-74,171 L-62,185 L-49,196 L-36,204 L-25,209 L-11,213 L-2,215 L24,215 L39,212 L51,208 L67,200 L78,192 L90,181 L100,168 L108,153 L115,132 L116,125 L116,94 L112,77 L104,59 L96,47 L87,37 L79,29 L69,22 L52,13 L38,8 L19,5 Z " fill="#0E0C0F" transform="translate(518,471)"/>
<path d="M0,0 L18,0 L34,3 L53,11 L64,18 L74,26 L84,36 L94,51 L101,66 L105,80 L106,87 L106,108 L103,125 L98,139 L89,155 L77,169 L68,177 L54,186 L43,191 L31,195 L20,197 L-6,197 L-24,193 L-40,186 L-52,178 L-62,169 L-69,162 L-78,149 L-85,134 L-90,117 L-91,110 L-91,84 L-86,65 L-78,49 L-71,38 L-62,28 L-48,17 L-34,9 L-19,3 Z M-6,6 L-25,11 L-41,19 L-54,29 L-66,41 L-75,55 L-81,68 L-85,85 L-85,111 L-83,123 L-76,141 L-67,155 L-58,165 L-51,172 L-37,181 L-24,187 L-8,191 L-2,192 L16,192 L32,189 L45,184 L60,176 L71,167 L78,160 L88,146 L95,131 L98,122 L100,112 L100,84 L96,69 L91,57 L82,43 L71,31 L62,23 L46,14 L33,9 L21,6 Z " fill="#0D0C0F" transform="translate(1602,1014)"/>
<path d="M0,0 L26,0 L38,3 L50,8 L61,15 L73,26 L80,36 L88,52 L91,63 L91,89 L87,104 L82,116 L74,127 L68,134 L55,144 L41,151 L36,153 L24,155 L0,155 L-16,150 L-28,144 L-38,136 L-48,126 L-56,113 L-61,101 L-64,90 L-64,64 L-59,48 L-51,33 L-40,21 L-30,12 L-15,4 L-6,1 Z M4,5 L-12,9 L-27,17 L-39,27 L-48,39 L-55,53 L-58,64 L-58,88 L-54,103 L-47,117 L-39,127 L-32,134 L-18,143 L-5,148 L5,150 L22,150 L35,147 L47,142 L58,135 L66,128 L76,115 L83,99 L86,86 L86,67 L82,52 L73,35 L62,23 L51,15 L41,10 L29,6 L23,5 Z " fill="#100B0A" transform="translate(1499,755)"/>
<path d="M0,0 L15,0 L29,3 L42,8 L53,15 L63,24 L70,34 L77,48 L80,59 L80,83 L78,94 L73,106 L65,118 L58,126 L46,135 L31,142 L15,145 L0,145 L-17,141 L-32,133 L-44,122 L-52,113 L-60,97 L-63,85 L-63,58 L-59,45 L-53,33 L-45,23 L-35,14 L-21,6 L-10,2 Z M1,6 L-9,8 L-18,11 L-29,17 L-39,25 L-46,33 L-53,45 L-58,61 L-58,80 L-54,97 L-47,110 L-36,122 L-29,128 L-17,135 L-7,138 L-3,139 L20,139 L36,134 L48,127 L60,116 L67,105 L72,94 L75,82 L75,67 L73,54 L68,42 L61,31 L49,19 L35,11 L24,7 L17,6 Z " fill="#0C0D0A" transform="translate(1574,509)"/>
<path d="M0,0 L17,0 L28,3 L41,8 L52,15 L63,25 L72,39 L77,51 L79,58 L79,84 L74,100 L68,112 L59,123 L48,132 L32,140 L20,143 L-4,143 L-16,140 L-31,132 L-42,123 L-49,115 L-57,101 L-62,86 L-62,57 L-57,42 L-50,30 L-39,18 L-28,10 L-16,4 Z M-2,6 L-16,10 L-29,17 L-39,26 L-46,34 L-54,50 L-57,62 L-57,80 L-53,95 L-46,109 L-37,120 L-27,128 L-13,135 L0,138 L15,138 L29,135 L45,127 L55,119 L63,109 L70,95 L73,85 L74,78 L74,63 L72,54 L67,41 L60,31 L53,23 L40,14 L29,9 L17,6 Z " fill="#100C0A" transform="translate(501,1235)"/>
<path d="M0,0 L24,0 L32,2 L44,7 L55,15 L62,22 L71,36 L76,51 L76,72 L73,84 L65,100 L56,110 L46,118 L35,123 L29,125 L22,126 L1,126 L-14,121 L-24,115 L-34,106 L-41,97 L-47,85 L-50,73 L-50,50 L-46,38 L-40,27 L-31,17 L-23,10 L-7,2 Z M3,5 L-12,10 L-23,17 L-33,27 L-41,40 L-44,49 L-45,55 L-45,71 L-40,87 L-32,100 L-23,109 L-9,117 L0,120 L5,121 L19,121 L35,117 L46,111 L56,102 L62,94 L67,84 L69,79 L70,73 L70,52 L66,39 L60,29 L51,19 L41,12 L29,7 L20,5 Z " fill="#0B0C09" transform="translate(391,1015)"/>
<path d="M0,0 L15,0 L27,4 L37,10 L45,18 L50,26 L54,38 L54,52 L49,68 L41,79 L30,87 L19,91 L14,92 L-1,92 L-12,88 L-22,82 L-30,73 L-37,59 L-38,52 L-38,39 L-34,26 L-27,16 L-20,9 L-4,1 Z M1,6 L-9,9 L-18,15 L-25,22 L-31,34 L-32,37 L-32,54 L-28,65 L-20,76 L-10,83 L-2,86 L17,86 L27,82 L36,76 L43,67 L48,54 L48,37 L43,25 L34,15 L25,9 L15,6 Z " fill="#110C0B" transform="translate(553,859)"/>
<path d="M0,0 L11,0 L21,3 L31,9 L38,16 L44,27 L45,32 L45,48 L42,57 L36,67 L27,75 L14,80 L-3,80 L-13,76 L-21,70 L-29,61 L-34,48 L-34,32 L-30,21 L-23,12 L-16,6 L-5,1 Z M0,6 L-9,9 L-18,15 L-24,23 L-28,32 L-28,47 L-24,58 L-15,68 L-6,73 L0,75 L11,75 L22,71 L30,65 L37,55 L40,45 L40,34 L35,22 L27,13 L15,7 L12,6 Z " fill="#0B0B0D" transform="translate(1516,1405)"/>
<path d="M0,0 L10,2 L10,3 L2,2 L3,537 L8,540 L8,542 L3,540 L0,537 Z " fill="#367E7D" transform="translate(985,1105)"/>
<path d="M0,0 L3,0 L3,538 L1,538 L1,2 L-1,3 L-7,3 L-7,2 Z " fill="#398584" transform="translate(1060,1105)"/>
<path d="M0,0 L7,1 L12,6 L15,10 L16,13 L16,521 L13,528 L12,525 L13,517 L13,15 L11,8 L4,2 Z " fill="#36807D" transform="translate(1374,1026)"/>
<path d="M0,0 L1,2 L-1,6 L-1,520 L-3,521 L-4,517 L-4,6 Z " fill="#439C9C" transform="translate(663,1031)"/>
<path d="M0,0 L7,1 L8,2 L8,540 L0,539 L-14,535 L-23,533 L-23,532 L-15,532 L-6,535 L3,537 L7,538 L6,3 L0,2 Z " fill="#419798" transform="translate(972,1101)"/>
<path d="M0,0 L4,1 L-2,5 L-3,6 L-4,539 L-1,540 L-5,540 L-5,2 Z " fill="#3F9090" transform="translate(1073,1101)"/>
<path d="M0,0 L1,3 L-9,29 L-20,62 L-28,91 L-35,121 L-36,121 L-36,114 L-33,99 L-35,99 L-38,108 L-41,111 L-38,99 L-24,57 L-8,17 Z " fill="#3E8E8B" transform="translate(1088,528)"/>
<path d="M0,0 L2,1 L-21,14 L-43,28 L-58,39 L-74,51 L-77,51 L-78,46 L-67,38 L-48,26 L-29,15 L-6,3 Z " fill="#4B908D" transform="translate(1208,678)"/>
<path d="M0,0 L2,1 L-10,11 L-20,19 L-30,28 L-38,35 L-55,52 L-60,53 L-67,59 L-70,58 L-58,46 L-50,39 L-40,30 L-26,19 L-13,9 Z " fill="#3E8A8A" transform="translate(1146,912)"/>
<path d="M0,0 L5,1 L34,13 L67,29 L71,32 L69,34 L70,37 L65,35 L41,21 L22,11 L0,1 Z " fill="#409493" transform="translate(813,826)"/>
<path d="M0,0 L1,0 L3,12 L3,36 L-2,66 L-7,82 L-14,102 L-23,121 L-24,117 L-17,101 L-15,101 L-15,96 L-12,89 L-11,84 L-9,84 L-8,78 L-4,62 L-2,53 L0,37 L0,7 L-1,3 Z " fill="#459491" transform="translate(1194,450)"/>
<path d="M0,0 L1,3 L-9,29 L-20,62 L-22,66 L-24,66 L-25,68 L-27,68 L-24,57 L-8,17 Z " fill="#448E8A" transform="translate(1088,528)"/>
<path d="M0,0 L4,2 L11,9 L19,16 L38,35 L45,43 L54,53 L60,61 L58,62 L53,57 L50,52 L41,42 L36,41 L25,27 L18,20 L11,12 L0,1 Z " fill="#428884" transform="translate(894,627)"/>
<path d="M0,0 L7,1 L14,3 L23,4 L23,6 L29,6 L30,7 L46,10 L46,12 L62,14 L62,16 L69,16 L77,19 L83,20 L83,22 L75,21 L55,16 L40,12 L0,2 Z " fill="#3C8A87" transform="translate(866,1611)"/>
<path d="M0,0 L10,0 L26,3 L47,9 L71,19 L87,28 L92,32 L87,31 L78,26 L70,21 L62,18 L51,13 L25,5 L3,2 Z " fill="#439693" transform="translate(790,759)"/>
<path d="M0,0 L1,0 L0,10 L-2,14 L-4,14 L-6,26 L-9,34 L-10,39 L-5,37 L-5,35 L-3,35 L-3,33 L2,29 L4,29 L6,25 L10,26 L-1,36 L-9,43 L-14,47 L-13,40 L-9,24 L-2,5 Z " fill="#428885" transform="translate(1081,722)"/>
<path d="M0,0 L1,2 L-1,7 L-20,21 L-23,23 L-25,17 L-14,9 Z " fill="#408A88" transform="translate(1155,707)"/>
<path d="M0,0 L2,0 L1,5 L-10,38 L-19,70 L-23,85 L-27,80 L-25,78 L-24,79 L-22,70 L-20,63 L-12,36 L-7,21 L-3,10 L-1,3 Z " fill="#46928F" transform="translate(1057,584)"/>
<path d="M0,0 L2,1 L-10,11 L-20,19 L-30,28 L-36,32 L-36,30 L-38,29 L-29,21 L-13,9 Z " fill="#498D8C" transform="translate(1146,912)"/>
<path d="M0,0 L0,3 L-12,15 L-20,22 L-22,22 L-24,26 L-31,33 L-36,38 L-43,45 L-45,43 L-13,11 L-2,2 Z " fill="#429895" transform="translate(1125,742)"/>
<path d="M0,0 L2,0 L4,6 L-26,20 L-28,19 Z " fill="#F1EEDB" transform="translate(1068,1080)"/>
<path d="M0,0 L18,0 L36,3 L56,10 L67,15 L63,16 L52,11 L37,6 L22,3 L1,3 L-4,4 L-4,1 Z " fill="#44908C" transform="translate(831,543)"/>
<path d="M0,0 L6,1 L6,2 L-19,8 L-34,12 L-54,17 L-70,21 L-70,19 L-55,15 L-53,14 L-47,14 L-47,12 L-39,11 L-32,9 L-24,6 L-16,5 L-15,4 L-4,2 L0,2 Z " fill="#429491" transform="translate(1269,1587)"/>
<path d="M0,0 L3,1 L-1,4 L-23,15 L-48,30 L-51,31 L-51,28 L-47,28 L-47,26 L-45,24 L-41,24 L-41,22 L-34,18 L-31,18 L-31,16 L-25,15 L-25,13 L-18,9 L-13,6 L-8,6 L-8,4 L-4,4 L-4,2 L0,2 Z " fill="#449692" transform="translate(1198,675)"/>
<path d="M0,0 L5,1 L34,13 L47,19 L44,22 L28,14 L0,1 Z " fill="#478C8A" transform="translate(813,826)"/>
<path d="M0,0 L1,0 L5,29 L5,57 L4,63 L1,60 L1,58 L3,58 L2,26 L0,8 Z " fill="#428582" transform="translate(996,683)"/>
<path d="M0,0 L5,0 L3,2 L-15,6 L-30,10 L-58,17 L-65,18 L-64,16 L-51,13 L-44,11 L-24,6 L-19,6 L-19,4 L-12,3 L-11,2 Z " fill="#449794" transform="translate(1171,1613)"/>
<path d="M0,0 L1,2 L-1,5 L30,5 L32,4 L46,2 L52,2 L48,4 L33,7 L23,8 L-5,8 L-3,4 Z " fill="#438E8C" transform="translate(1069,997)"/>
<path d="M0,0 L9,1 L17,3 L40,3 L54,0 L58,1 L56,3 L47,5 L38,6 L20,6 L10,4 L0,1 Z " fill="#3B8F8E" transform="translate(995,1108)"/>
<path d="M0,0 L9,0 L8,3 L8,1 L-5,5 L-31,16 L-43,21 L-44,19 L-39,18 L-39,16 L-34,16 L-34,14 L-22,9 L-16,6 L-11,6 L-11,4 L-6,4 L-6,2 Z " fill="#438E8C" transform="translate(1245,655)"/>
<path d="M0,0 L1,0 L1,44 L-7,43 L-21,39 L-30,37 L-30,36 L-22,36 L-13,39 L-4,41 L0,42 Z " fill="#439596" transform="translate(979,1597)"/>
<path d="M0,0 L17,2 L17,4 L25,4 L25,6 L32,6 L41,9 L48,10 L48,12 L55,12 L58,15 L50,14 L32,9 L11,4 L0,1 Z " fill="#3D8A89" transform="translate(676,1563)"/>
<path d="M0,0 L4,1 L-11,11 L-38,25 L-40,25 L-39,22 L-35,22 L-35,20 L-28,17 L-23,16 L-23,14 L-13,9 L-6,4 L-3,4 L-3,2 L0,2 Z " fill="#43908B" transform="translate(1100,649)"/>
<path d="M0,0 L4,1 L-19,12 L-39,19 L-45,21 L-49,20 L-37,16 L-28,13 L-25,13 L-25,11 L-21,11 L-21,9 L-16,9 L-16,7 L-7,5 L-7,3 Z " fill="#428F8B" transform="translate(1221,762)"/>
<path d="M0,0 L1,0 L1,10 L-2,18 L-5,34 L-7,41 L-9,41 L-9,48 L-11,48 L-9,37 L-2,7 Z " fill="#438A88" transform="translate(1068,606)"/>
<path d="M0,0 L22,0 L36,4 L46,10 L49,13 L49,15 L46,15 L42,10 L35,6 L29,4 L22,3 L21,2 L-7,2 L-7,1 Z " fill="#3D8887" transform="translate(1187,844)"/>
<path d="M0,0 L3,4 L8,15 L-5,15 L-28,10 L-28,8 L-22,8 L-21,9 L-12,11 L-10,12 L4,13 L2,7 L0,4 Z " fill="#3C827D" transform="translate(976,745)"/>
<path d="M0,0 L3,1 L-8,20 L-18,39 L-19,35 L-11,19 L-9,19 L-8,14 L-6,10 L-4,10 L-4,7 L-2,7 L-1,2 Z " fill="#449492" transform="translate(1111,469)"/>
<path d="M0,0 L9,0 L16,1 L29,1 L33,0 L45,0 L41,2 L35,3 L7,3 L0,2 Z " fill="#3A8582" transform="translate(1003,1649)"/>
<path d="M0,0 L2,2 L4,8 L4,24 L1,36 L-2,44 L-3,40 L-1,35 L1,28 L1,7 Z " fill="#408886" transform="translate(1313,636)"/>
<path d="M0,0 L2,3 L3,8 L3,21 L1,31 L-4,45 L-5,45 L-4,38 L-1,27 L0,26 Z " fill="#428D8B" transform="translate(1240,865)"/>
<path d="M0,0 L13,5 L29,13 L41,20 L38,21 L27,15 L19,10 L11,7 L0,2 Z " fill="#408985" transform="translate(841,770)"/>
<path d="M0,0 L2,0 L1,8 L-2,17 L-6,15 L-5,7 L-3,3 L-1,3 Z " fill="#44928E" transform="translate(1064,593)"/>
<path d="M0,0 L7,1 L12,6 L15,10 L15,52 L14,52 L13,15 L11,8 L4,2 Z " fill="#4CA19D" transform="translate(1374,1026)"/>
<path d="M0,0 L3,3 L10,22 L11,30 L3,24 L1,21 L6,23 L8,24 L4,14 L0,3 Z " fill="#438A86" transform="translate(951,875)"/>
<path d="M0,0 L4,1 L-2,4 L-17,7 L-26,9 L-27,10 L-36,10 L-32,8 Z " fill="#398785" transform="translate(1181,1073)"/>
<path d="M0,0 L1,3 L-9,29 L-11,33 L-11,31 L-13,31 L-10,22 L-2,4 Z " fill="#4B827F" transform="translate(1088,528)"/>
<path d="M0,0 L3,1 L-7,17 L-19,32 L-20,29 L-18,29 L-16,24 L-11,18 L-10,15 L-8,15 L-6,10 L-2,5 Z " fill="#448D89" transform="translate(1161,582)"/>
<path d="M0,0 L4,1 L-1,3 L-23,8 L-25,9 L-34,9 L-30,7 L-8,2 Z " fill="#3B8685" transform="translate(1368,1026)"/>
<path d="M0,0 L9,1 L19,5 L20,7 L25,8 L34,12 L34,14 L25,11 L0,1 Z " fill="#40928E" transform="translate(819,822)"/>
<path d="M0,0 L31,0 L31,1 L13,2 L3,3 L-12,3 L-8,1 Z " fill="#398381" transform="translate(759,758)"/>
<path d="M0,0 L4,2 L11,9 L19,16 L26,23 L23,25 L8,9 L0,1 Z " fill="#4B8482" transform="translate(894,627)"/>
<path d="M0,0 L3,1 L-15,15 L-23,21 L-23,18 L-21,18 L-21,16 L-19,16 L-19,14 L-11,8 L-8,8 L-8,6 L-6,6 L-4,2 L0,2 Z " fill="#449792" transform="translate(1118,723)"/>
<path d="M0,0 L1,0 L0,10 L-7,36 L-11,31 L-9,29 L-8,30 L-6,21 L-4,14 Z " fill="#4A9A96" transform="translate(1041,633)"/>
<path d="M0,0 L6,0 L5,2 L-9,5 L-18,8 L-27,8 L-23,6 Z " fill="#388382" transform="translate(1111,1091)"/>
<path d="M0,0 L1,0 L3,12 L3,36 L2,36 L1,29 L0,7 L-1,3 Z " fill="#3C7A78" transform="translate(1194,450)"/>
<path d="M0,0 L2,3 L4,10 L4,30 L2,31 L1,11 Z " fill="#429695" transform="translate(1009,812)"/>
<path d="M0,0 L2,1 L-21,14 L-25,16 L-27,14 L-8,4 Z " fill="#496E6D" transform="translate(1208,678)"/>
<path d="M0,0 L4,4 L-4,7 L-22,10 L-29,10 L-29,9 L-17,7 L-7,5 L-6,4 L1,3 Z " fill="#418E8C" transform="translate(949,921)"/>
<path d="M0,0 L5,1 L29,13 L25,14 L20,11 L16,10 L16,8 L11,7 L8,6 L8,4 L3,3 Z " fill="#41928E" transform="translate(818,835)"/>
<path d="M0,0 L2,0 L0,9 L-4,19 L-6,17 L-4,8 Z " fill="#4C9490" transform="translate(1075,559)"/>
<path d="M0,0 L5,0 L14,3 L18,4 L18,6 L25,6 L29,10 L17,7 L5,3 L0,2 Z " fill="#439997" transform="translate(775,807)"/>
<path d="M0,0 L3,1 L12,12 L21,23 L19,24 L10,13 L7,10 L7,8 L5,8 L0,2 Z " fill="#45928D" transform="translate(908,651)"/>
<path d="M0,0 L4,3 L4,5 L6,5 L13,16 L16,21 L15,23 L2,5 Z " fill="#459C97" transform="translate(965,692)"/>
<path d="M0,0 L4,2 L9,7 L21,19 L23,21 L19,20 L8,10 L1,2 Z " fill="#459893" transform="translate(842,687)"/>
<path d="M0,0 L0,3 L-7,13 L-11,23 L-12,19 L-8,9 Z " fill="#479996" transform="translate(809,553)"/>
<path d="M0,0 L8,0 L17,3 L26,5 L27,7 L19,6 L0,1 Z " fill="#3B8481" transform="translate(949,1633)"/>
<path d="M0,0 L6,0 L7,1 L14,2 L14,4 L21,4 L24,7 L16,6 L0,2 Z " fill="#3B8987" transform="translate(827,1601)"/>
<path d="M0,0 L2,0 L0,4 L-13,17 L-14,14 L-12,14 L-12,12 L-10,12 L-8,8 L-2,1 Z " fill="#3F908E" transform="translate(1081,955)"/>
<path d="M0,0 L1,3 L-7,19 L-10,27 L-13,28 L-11,22 Z " fill="#46928F" transform="translate(1121,471)"/>
<path d="M0,0 L2,1 L-10,11 L-16,15 L-18,13 L-3,2 Z " fill="#4D7E7F" transform="translate(1146,912)"/>
<path d="M0,0 L3,1 L-9,12 L-15,17 L-17,17 L-17,15 L-15,15 L-15,13 L-13,13 L-13,11 L-10,11 L-8,7 L-6,7 L-6,5 L-4,5 L-4,3 L-2,3 L-2,1 Z " fill="#408B88" transform="translate(1279,720)"/>
<path d="M0,0 L2,0 L2,2 L6,4 L13,11 L18,16 L21,18 L20,21 L6,7 L0,2 Z " fill="#479893" transform="translate(904,627)"/>
<path d="M0,0 L5,0 L1,2 L-19,7 L-23,7 L-23,5 L-16,5 L-16,3 L-9,2 L-8,1 Z " fill="#439492" transform="translate(1324,1574)"/>
<path d="M0,0 L1,0 L2,21 L4,32 L1,31 L-1,19 Z " fill="#BDBBAD" transform="translate(1510,573)"/>
<path d="M0,0 L1,0 L0,10 L-2,19 L-7,24 L-4,13 Z " fill="#3F8B87" transform="translate(1079,570)"/>
<path d="M0,0 L5,0 L6,1 L13,2 L14,3 L21,4 L24,7 L16,6 L0,2 Z " fill="#3C8683" transform="translate(788,1591)"/>
<path d="M0,0 L4,1 L3,8 L3,17 L0,18 Z " fill="#D1D0C3" transform="translate(696,1006)"/>
<path d="M0,0 L1,3 L-8,12 L-14,19 L-16,18 L-4,4 Z " fill="#408A8A" transform="translate(1074,973)"/>
<path d="M0,0 Z M-1,1 Z M-5,2 L-1,3 L-12,14 L-14,11 Z " fill="#3C9591" transform="translate(1131,657)"/>
<path d="M0,0 L4,1 L-4,4 L-12,6 L-21,6 L-17,4 Z " fill="#398584" transform="translate(1237,1059)"/>
<path d="M0,0 L6,0 L3,2 L-16,7 L-20,6 L-14,5 L-14,3 L-4,1 Z " fill="#469A98" transform="translate(1368,1562)"/>
<path d="M0,0 L9,0 L8,3 L8,1 L-5,5 L-10,7 L-16,7 L-16,6 L-11,6 L-11,4 L-6,4 L-6,2 Z " fill="#439995" transform="translate(1245,655)"/>
<path d="M0,0 L1,0 L0,25 L-2,23 L-2,4 Z " fill="#FDFAE9" transform="translate(438,1292)"/>
<path d="M0,0 L5,1 L25,9 L22,11 L0,1 Z " fill="#4A706F" transform="translate(813,826)"/>
<path d="M0,0 L1,0 L1,6 L-1,13 L4,13 L1,16 L-4,17 L-2,5 Z " fill="#49A29F" transform="translate(1056,660)"/>
<path d="M0,0 L1,0 L1,5 L-1,5 L-1,12 L-5,21 L-7,22 L-4,10 Z " fill="#408481" transform="translate(1054,617)"/>
<path d="M0,0 L2,0 L1,3 L-5,6 L-8,6 L-8,8 L-13,11 L-18,12 L-14,8 Z " fill="#459793" transform="translate(1104,405)"/>
<path d="M0,0 L2,0 L5,7 L7,14 L7,22 L5,23 L3,10 Z " fill="#3F8B8A" transform="translate(1000,978)"/>
<path d="M0,0 L1,0 L1,8 L-2,20 L-4,25 L-5,21 Z " fill="#3D8380" transform="translate(1034,690)"/>
<path d="M0,0 L1,3 L-8,11 L-10,11 L-12,15 L-15,14 Z " fill="#3F8C89" transform="translate(1123,939)"/>
<path d="M0,0 L9,0 L5,2 L-6,4 L-15,4 L-11,2 Z " fill="#439D99" transform="translate(1225,611)"/>
<path d="M0,0 L11,0 L8,2 L-3,3 L-12,4 L-8,1 Z " fill="#9BAF99" transform="translate(1575,515)"/>
<path d="M0,0 L2,1 L2,17 L0,17 L-1,5 Z " fill="#D5D2C3" transform="translate(1001,1053)"/>
<path d="M0,0 L4,1 L-2,4 L-9,6 L-13,8 L-18,8 L-14,5 Z " fill="#3E8583" transform="translate(741,761)"/>
<path d="M0,0 L3,3 L8,15 L8,18 L10,18 L9,21 L6,17 L0,3 Z " fill="#479A96" transform="translate(1021,641)"/>
<path d="M0,0 L3,3 L11,18 L10,21 L7,17 L7,13 L5,13 L0,2 Z " fill="#428D8A" transform="translate(940,853)"/>
<path d="M0,0 L1,0 L1,9 L-1,19 L-4,22 L-3,14 Z " fill="#428885" transform="translate(1014,521)"/>
<path d="M0,0 L5,2 L5,4 L10,6 L10,8 L14,9 L19,13 L18,15 L7,7 L0,1 Z " fill="#3F8D89" transform="translate(744,875)"/>
<path d="M0,0 L1,4 L-1,13 L-2,25 L-3,25 L-3,8 Z " fill="#3D8785" transform="translate(703,788)"/>
<path d="M0,0 L4,1 L-10,13 L-11,10 L-6,6 L-4,6 L-4,4 L-2,4 L-2,2 Z " fill="#459893" transform="translate(1117,635)"/>
<path d="M0,0 L4,1 L-1,4 L-12,7 L-16,6 Z " fill="#3B8281" transform="translate(1162,849)"/>
<path d="M0,0 L5,1 L16,7 L21,11 L16,10 L7,5 L0,1 Z " fill="#449390" transform="translate(861,780)"/>
<path d="M0,0 L2,0 L2,2 L-4,6 L-11,9 L-13,10 L-15,8 Z " fill="#3F8B87" transform="translate(1173,627)"/>
<path d="M0,0 L6,1 L17,8 L19,11 L14,9 L6,4 L0,1 Z " fill="#459893" transform="translate(1286,614)"/>
<path d="M0,0 L2,0 L2,2 L4,3 L-12,8 L-15,7 Z " fill="#C9C7BE" transform="translate(1061,1096)"/>
<path d="M0,0 L7,1 L12,6 L15,10 L14,15 L13,15 L11,8 L4,2 Z " fill="#408787" transform="translate(1374,1026)"/>
<path d="M0,0 L2,1 L-9,11 L-14,14 L-16,13 L-4,3 Z " fill="#428D8B" transform="translate(1145,726)"/>
<path d="M0,0 L1,4 L-6,18 L-7,14 Z " fill="#479C99" transform="translate(1099,490)"/>
<path d="M0,0 L1,2 L-1,6 L-2,18 L-4,16 L-4,6 Z " fill="#429191" transform="translate(663,1031)"/>
<path d="M0,0 L1,0 L1,10 L5,11 L0,17 L-1,17 L-1,7 Z " fill="#407D7B" transform="translate(1055,970)"/>
<path d="M0,0 L6,0 L6,2 L13,2 L17,6 L0,2 Z " fill="#398381" transform="translate(765,1585)"/>
<path d="M0,0 L1,0 L1,11 L0,12 L-1,22 L-3,23 L-2,9 Z " fill="#419090" transform="translate(1058,957)"/>
<path d="M0,0 L4,1 L-8,10 L-9,7 L-5,6 L-5,4 L-3,4 L-3,2 Z " fill="#429694" transform="translate(1120,921)"/>
<path d="M0,0 L3,0 L3,2 L-11,10 L-12,8 L-10,8 L-10,6 L-4,2 L0,2 Z " fill="#449996" transform="translate(1160,895)"/>
<path d="M0,0 L4,1 L8,5 L8,10 L3,5 L0,2 Z " fill="#4A8F8B" transform="translate(918,651)"/>
<path d="M0,0 L1,0 L3,11 L3,16 L1,17 L-1,5 Z " fill="#DEDAC8" transform="translate(1511,1124)"/>
<path d="M0,0 L1,2 L-6,13 L-10,14 L-4,5 Z " fill="#439393" transform="translate(1057,993)"/>
<path d="M0,0 L3,1 L-8,10 L-11,9 L-8,8 L-6,4 L-3,4 L-3,2 L0,2 Z " fill="#439390" transform="translate(1259,737)"/>
<path d="M0,0 L1,3 L-6,16 L-8,17 L-7,13 L-1,2 Z " fill="#459896" transform="translate(1309,679)"/>
<path d="M0,0 L2,0 L9,11 L12,16 L10,17 L0,1 Z " fill="#428C87" transform="translate(814,649)"/>
<path d="M0,0 L1,2 L-3,10 L-7,17 L-9,17 L-7,12 Z " fill="#428D8A" transform="translate(1037,469)"/>
<path d="M0,0 L9,5 L13,9 L7,7 L-2,3 L0,2 Z " fill="#CDCCC4" transform="translate(996,1091)"/>
<path d="M0,0 L1,3 L-5,15 L-7,15 L-5,9 Z " fill="#429590" transform="translate(1089,707)"/>
<path d="M0,0 L1,4 L-4,17 L-6,16 L-3,7 Z " fill="#44928E" transform="translate(1107,499)"/>
<path d="M0,0 L5,0 L3,2 L-9,5 L-12,5 L-11,2 Z " fill="#3D8C89" transform="translate(1171,1613)"/>
<path d="M0,0 L4,0 L4,2 L-2,4 L-12,4 L-9,2 Z " fill="#3F9492" transform="translate(1253,1055)"/>
<path d="M0,0 L2,1 L-5,9 L-7,9 L-8,12 L-10,11 L-1,1 Z " fill="#429695" transform="translate(1090,972)"/>
<path d="M0,0 L3,4 L8,15 L3,15 L4,11 L0,4 Z " fill="#4B8F8B" transform="translate(976,745)"/>
<path d="M0,0 L0,3 L-9,11 L-13,12 L-8,7 Z " fill="#44918F" transform="translate(1103,744)"/>
<path d="M0,0 L4,2 L11,9 L15,13 L12,13 L0,1 Z " fill="#4E726E" transform="translate(894,627)"/>
<path d="M0,0 L17,2 L17,4 L19,5 L11,4 L0,1 Z " fill="#398480" transform="translate(676,1563)"/>
<path d="M0,0 L4,1 L2,3 L-5,4 L-14,4 L-14,3 Z " fill="#37807F" transform="translate(1049,1108)"/>
<path d="M0,0 L2,1 L-3,4 L-16,5 L-13,3 Z " fill="#398381" transform="translate(1300,1043)"/>
<path d="M0,0 Z M-3,1 L0,2 L-10,12 L-12,12 L-10,8 L-5,4 Z " fill="#E8E3D2" transform="translate(1574,882)"/>
<path d="M0,0 L2,0 L0,6 L-4,15 L-6,14 L-4,8 Z " fill="#419492" transform="translate(1035,837)"/>
<path d="M0,0 L2,1 L-5,9 L-9,11 L-6,6 Z " fill="#419392" transform="translate(715,773)"/>
<path d="M0,0 L1,0 L0,10 L-2,14 L-4,14 L-3,7 Z " fill="#429692" transform="translate(1081,722)"/>
<path d="M0,0 L2,1 L-8,13 L-9,10 L-8,8 L-6,8 L-6,6 L-4,6 L-4,4 L-2,4 Z " fill="#418C88" transform="translate(1291,707)"/>
<path d="M0,0 L2,1 L-1,11 L-3,16 L-4,16 L-3,9 Z " fill="#459895" transform="translate(1069,552)"/>
<path d="M0,0 L2,1 L-2,5 L-9,11 L-12,10 Z " fill="#448E89" transform="translate(1083,418)"/>
<path d="M0,0 L3,1 L-6,9 L-9,10 L-9,8 L-7,8 L-7,6 L-3,2 L0,2 Z " fill="#3E8C8B" transform="translate(1195,957)"/>
<path d="M0,0 L7,0 L14,2 L14,5 L3,2 Z " fill="#3A8482" transform="translate(805,817)"/>
<path d="M0,0 L1,4 L6,2 L6,0 L9,1 L2,8 L0,7 Z " fill="#469592" transform="translate(1070,757)"/>
<path d="M0,0 L1,0 L1,16 L-3,14 L-1,10 Z " fill="#CECCBE" transform="translate(1003,1073)"/>
<path d="M0,0 L4,0 L4,2 L-3,4 L-12,4 L-8,2 Z " fill="#377E7D" transform="translate(1275,1049)"/>
<path d="M0,0 L16,0 L15,2 L4,2 L1,3 L-1,1 Z " fill="#FAF7E6" transform="translate(1115,798)"/>
<path d="M0,0 L3,1 L-8,12 L-9,9 L-6,8 L-6,6 L-1,2 Z " fill="#4A9D98" transform="translate(1134,619)"/>
<path d="M0,0 L1,3 L-4,15 L-6,14 L-4,8 Z " fill="#517875" transform="translate(1088,528)"/>
<path d="M0,0 L1,2 L3,3 L-8,8 L-10,7 Z " fill="#DAD7CF" transform="translate(1050,1092)"/>
<path d="M0,0 L1,3 L-5,10 L-9,11 L-3,4 Z " fill="#41918F" transform="translate(1065,779)"/>
<path d="M0,0 L0,3 L-9,12 L-11,11 L-5,4 Z " fill="#DB9F9E" transform="translate(1467,776)"/>
<path d="M0,0 L1,4 L0,11 L-4,9 L-4,6 L-2,5 Z " fill="#3E9B97" transform="translate(1062,599)"/>
<path d="M0,0 L1,4 L-3,14 L-5,14 L-2,5 Z " fill="#469591" transform="translate(1027,486)"/>
<path d="M0,0 L8,6 L11,10 L7,9 L5,5 L1,3 Z " fill="#438C8A" transform="translate(938,911)"/>
<path d="M0,0 L2,0 L0,4 L-7,9 L-9,8 Z " fill="#3D8686" transform="translate(1111,876)"/>
<path d="M0,0 L2,0 L3,4 L2,9 L0,13 L-1,13 Z " fill="#DFDDCD" transform="translate(1042,730)"/>
<path d="M0,0 L2,3 L-2,11 L-4,10 L-2,4 Z M2,1 Z " fill="#DEA1A3" transform="translate(453,1272)"/>
<path d="M0,0 L2,0 L0,5 L-4,12 L-5,9 Z " fill="#428C8A" transform="translate(1233,910)"/>
<path d="M0,0 L5,2 L13,7 L10,8 L0,2 Z " fill="#42918E" transform="translate(868,861)"/>
<path d="M0,0 L3,1 L10,10 L8,12 L0,1 Z " fill="#439592" transform="translate(712,841)"/>
<path d="M0,0 L3,4 L0,9 L-2,12 L-3,9 Z " fill="#DCD8C9" transform="translate(1190,537)"/>
<path d="M0,0 L1,0 L1,17 L0,17 L-1,5 L-2,2 Z " fill="#E2DECF" transform="translate(1000,901)"/>
<path d="M0,0 L11,1 L15,5 L3,2 Z " fill="#3B807C" transform="translate(789,812)"/>
<path d="M0,0 L2,0 L0,14 L-1,14 L-1,2 Z " fill="#408B87" transform="translate(1042,690)"/>
<path d="M0,0 L0,3 L-6,7 L-9,6 Z " fill="#449793" transform="translate(1157,636)"/>
<path d="M0,0 L5,2 L12,7 L10,9 L0,1 Z " fill="#43908A" transform="translate(869,599)"/>
<path d="M0,0 L1,0 L1,10 L-2,11 L-1,3 Z " fill="#3B8682" transform="translate(1068,606)"/>
<path d="M0,0 L2,0 L0,5 L-3,11 L-4,7 L-3,4 L-1,4 Z " fill="#43908D" transform="translate(1168,571)"/>
<path d="M0,0 L2,0 L0,6 L-4,11 L-3,6 Z " fill="#3F8D8B" transform="translate(1045,1020)"/>
<path d="M0,0 L0,3 L-6,10 L-9,9 Z " fill="#418A89" transform="translate(1101,960)"/>
<path d="M0,0 Z M-1,1 Z M-4,2 L-1,3 L-5,8 L-8,9 L-6,5 Z " fill="#E7E5D6" transform="translate(1073,796)"/>
<path d="M0,0 L7,4 L11,8 L7,7 L0,2 Z " fill="#43938F" transform="translate(882,791)"/>
<path d="M0,0 L0,3 L-6,9 L-9,8 Z " fill="#418683" transform="translate(1089,756)"/>
<path d="M0,0 L7,6 L10,10 L7,10 L0,2 Z " fill="#499893" transform="translate(948,595)"/>
<path d="M0,0 L2,0 L2,2 L-6,5 L-8,5 L-8,3 Z " fill="#E3DFCE" transform="translate(1191,1022)"/>
<path d="M0,0 L1,4 L-2,7 L-3,10 L-6,9 Z " fill="#3F8887" transform="translate(1046,1007)"/>
<path d="M0,0 L2,0 L0,5 L-5,10 L-5,7 L-3,7 L-2,3 L0,3 Z " fill="#438F8C" transform="translate(1226,922)"/>
<path d="M0,0 L2,1 L-5,7 L-9,6 Z " fill="#466362" transform="translate(1146,912)"/>
<path d="M0,0 L1,0 L1,8 L0,10 L-2,10 L-1,2 Z " fill="#3E8A87" transform="translate(1028,721)"/>
<path d="M0,0 L1,3 L-5,10 L-7,9 Z " fill="#3F8985" transform="translate(1111,675)"/>
<path d="M0,0 L2,1 L-3,6 L-7,7 L-2,2 Z " fill="#429692" transform="translate(1139,648)"/>
<path d="M0,0 L2,1 L2,11 L0,7 L-1,1 Z " fill="#428F8B" transform="translate(1013,611)"/>
<path d="M0,0 L7,0 L4,3 L-5,2 L-5,1 Z " fill="#E8E5D6" transform="translate(1627,1209)"/>
<path d="M0,0 L6,2 L7,4 L-1,3 Z " fill="#E1DFD3" transform="translate(986,1096)"/>
<path d="M0,0 L4,1 L-5,4 L-9,2 Z " fill="#418F8E" transform="translate(1135,1085)"/>
<path d="M0,0 L1,3 L-2,8 L-4,11 L-6,10 Z " fill="#3F8B89" transform="translate(1037,1020)"/>
<path d="M0,0 L2,0 L0,4 L-4,7 L-4,3 L-2,3 L-2,1 Z " fill="#3F8D8A" transform="translate(1209,944)"/>
<path d="M0,0 L2,0 L1,5 L-2,9 L-4,8 Z " fill="#E2DFD1" transform="translate(603,922)"/>
<path d="M0,0 L8,0 L8,2 L0,3 Z " fill="#FDFAE7" transform="translate(1132,797)"/>
<path d="M0,0 L0,3 L-4,8 L-7,7 Z " fill="#41908E" transform="translate(1073,771)"/>
<path d="M0,0 L2,0 L0,5 L-4,8 L-3,4 Z " fill="#449795" transform="translate(1299,696)"/>
<path d="M0,0 L1,4 L-3,8 L-5,8 L-3,4 Z " fill="#ECE8D8" transform="translate(1553,1469)"/>
<path d="M0,0 L10,1 L8,3 L1,2 Z " fill="#EBE9D9" transform="translate(1580,1208)"/>
<path d="M0,0 L4,1 L-2,5 L-4,6 L-4,2 Z " fill="#419997" transform="translate(1073,1101)"/>
<path d="M0,0 L2,0 L2,2 L5,2 L5,0 L8,1 L6,4 L1,3 Z " fill="#43918F" transform="translate(1021,1101)"/>
<path d="M0,0 L1,3 L-2,9 L-4,7 Z M-5,8 Z " fill="#E9E7D7" transform="translate(348,1044)"/>
<path d="M0,0 L3,0 L1,4 L-2,6 L-3,3 Z " fill="#419898" transform="translate(1087,963)"/>
<path d="M0,0 L2,0 L0,5 L-3,9 L-4,6 L-2,6 L-1,2 Z " fill="#3E8886" transform="translate(1041,826)"/>
<path d="M0,0 L9,1 L10,4 L0,1 Z " fill="#3B8380" transform="translate(819,822)"/>
<path d="M0,0 L1,4 L-4,10 L-6,9 Z " fill="#46928E" transform="translate(1044,458)"/>
<path d="M0,0 L1,0 L1,6 L4,6 L4,8 L-1,7 Z " fill="#E9E5D3" transform="translate(727,999)"/>
<path d="M0,0 L5,0 L10,2 L9,4 L0,1 Z " fill="#3B8481" transform="translate(803,911)"/>
<path d="M0,0 L3,1 L-2,7 L-3,4 Z " fill="#E1A6A5" transform="translate(1455,788)"/>
<path d="M0,0 L2,0 L2,2 L-1,2 L-1,4 L-5,6 L-7,4 Z " fill="#41918D" transform="translate(1201,689)"/>
<path d="M0,0 L1,4 L6,4 L4,6 L-1,7 Z " fill="#4E8F8D" transform="translate(1053,670)"/>
</svg>
