<?xml version="1.0" encoding="UTF-8"?>
<!-- Generator: visioncortex VTracer 0.6.12 -->
<svg version="1.1" xmlns="http://www.w3.org/2000/svg" width="2752" height="1536">
<path d="M0,0 L21,0 L35,4 L47,10 L57,18 L65,27 L72,39 L76,51 L76,55 L93,53 L109,54 L123,58 L135,63 L148,72 L157,80 L166,92 L174,107 L178,120 L179,126 L180,145 L193,154 L205,165 L216,180 L224,196 L228,209 L230,220 L230,244 L229,256 L239,265 L249,279 L256,293 L260,305 L262,318 L262,332 L259,349 L254,363 L247,375 L245,378 L246,383 L252,396 L256,409 L258,420 L258,442 L255,458 L248,477 L239,492 L227,505 L216,514 L208,519 L206,519 L207,527 L207,549 L203,566 L195,582 L187,593 L182,599 L171,608 L157,616 L143,621 L132,623 L118,624 L110,640 L101,652 L91,662 L78,671 L64,678 L49,682 L42,683 L23,683 L8,680 L-8,674 L-22,665 L-34,654 L-43,642 L-51,626 L-55,613 L-57,598 L-57,62 L-54,46 L-49,35 L-42,24 L-31,13 L-20,6 L-6,1 Z " fill="#87AAA0" transform="translate(1440,427)"/>
<path d="M0,0 L22,0 L38,5 L50,12 L61,22 L68,32 L74,45 L77,58 L77,606 L74,620 L69,633 L60,647 L51,657 L40,667 L27,675 L13,680 L-2,683 L-22,683 L-37,680 L-50,675 L-61,669 L-70,662 L-76,657 L-85,646 L-93,633 L-97,624 L-113,623 L-129,619 L-141,614 L-152,607 L-164,596 L-172,586 L-180,572 L-185,557 L-187,541 L-186,523 L-185,519 L-190,517 L-201,510 L-213,499 L-223,485 L-231,469 L-236,453 L-238,437 L-238,425 L-235,407 L-230,392 L-224,379 L-231,368 L-237,355 L-241,339 L-242,322 L-240,307 L-235,291 L-226,275 L-217,264 L-209,256 L-207,256 L-209,248 L-210,238 L-210,225 L-207,207 L-200,188 L-192,175 L-185,166 L-175,156 L-160,146 L-158,146 L-159,134 L-157,119 L-152,104 L-145,91 L-137,81 L-129,73 L-114,63 L-103,58 L-86,54 L-63,54 L-55,56 L-54,47 L-49,35 L-42,24 L-33,15 L-19,6 L-9,2 Z " fill="#3D7A7E" transform="translate(1292,427)"/>
<path d="M0,0 L63,0 L69,4 L77,13 L81,18 L195,19 L203,23 L207,28 L208,31 L208,170 L204,177 L196,181 L1,181 L-7,177 L-11,171 L-12,168 L-12,12 L-9,6 L-3,1 Z " fill="#C2B4E6" transform="translate(633,669)"/>
<path d="M0,0 L57,0 L64,2 L71,9 L77,18 L191,19 L198,22 L203,28 L205,32 L205,170 L201,176 L196,180 L194,181 L-2,181 L-8,178 L-13,172 L-15,163 L-15,17 L-13,9 L-7,2 Z " fill="#C2B4E6" transform="translate(1281,104)"/>
<path d="M0,0 L58,0 L66,3 L72,11 L77,18 L193,19 L200,23 L204,29 L205,32 L205,168 L202,174 L195,180 L192,181 L-1,181 L-9,177 L-13,172 L-15,164 L-15,17 L-13,9 L-8,3 Z " fill="#C2B4E6" transform="translate(1281,1254)"/>
<path d="M0,0 L56,0 L63,4 L70,14 L70,16 L158,16 L173,17 L179,21 L182,25 L183,28 L183,147 L179,154 L171,158 L5,158 L-2,157 L-9,151 L-11,146 L-11,12 L-7,4 Z " fill="#C2B3E5" transform="translate(1830,1037)"/>
<path d="M0,0 L56,0 L63,4 L71,15 L171,16 L177,19 L182,25 L183,27 L183,147 L180,152 L176,156 L170,158 L2,158 L-6,154 L-10,147 L-10,9 L-6,3 Z " fill="#C1B3E3" transform="translate(1858,372)"/>
<path d="M0,0 L21,0 L35,4 L47,10 L57,18 L65,27 L72,39 L76,51 L76,55 L93,53 L109,54 L123,58 L135,63 L148,72 L157,80 L166,92 L174,107 L178,120 L179,126 L180,145 L193,154 L205,165 L216,180 L224,196 L228,209 L230,220 L230,244 L229,256 L239,265 L249,279 L256,293 L260,305 L262,318 L262,332 L259,349 L254,363 L247,375 L245,378 L246,383 L252,396 L256,409 L258,420 L258,442 L255,458 L248,477 L239,492 L227,505 L216,514 L208,519 L206,519 L207,527 L207,549 L203,566 L195,582 L187,593 L182,599 L171,608 L157,616 L143,621 L132,623 L118,624 L110,640 L101,652 L91,662 L78,671 L64,678 L49,682 L42,683 L23,683 L8,680 L-8,674 L-22,665 L-34,654 L-43,642 L-51,626 L-55,613 L-57,598 L-57,62 L-54,46 L-49,35 L-42,24 L-31,13 L-20,6 L-6,1 Z M1,7 L-15,12 L-25,18 L-35,27 L-42,37 L-48,51 L-49,57 L-49,201 L-44,216 L-37,228 L-28,238 L-15,247 L-3,252 L2,253 L25,253 L25,258 L23,259 L-1,259 L-16,254 L-27,247 L-37,238 L-46,227 L-48,223 L-50,223 L-50,600 L-47,614 L-41,630 L-32,644 L-23,654 L-15,661 L-1,669 L15,674 L27,676 L41,676 L62,671 L76,664 L89,654 L96,647 L105,634 L110,623 L114,610 L116,599 L116,583 L112,565 L104,548 L95,536 L85,527 L79,523 L80,518 L85,519 L95,527 L102,534 L112,549 L118,563 L122,580 L122,600 L120,616 L129,616 L143,613 L159,607 L172,598 L183,587 L192,573 L197,561 L200,549 L200,527 L199,516 L217,504 L224,498 L233,487 L240,476 L246,462 L250,446 L250,417 L246,401 L241,389 L239,386 L235,388 L227,395 L213,403 L199,408 L187,410 L187,403 L197,402 L211,397 L224,389 L234,380 L242,369 L249,355 L253,342 L254,335 L254,316 L251,301 L246,289 L237,275 L227,264 L224,265 L218,281 L211,292 L202,303 L192,312 L185,317 L181,316 L182,311 L192,303 L203,292 L212,278 L218,264 L222,245 L222,216 L218,202 L213,190 L206,179 L198,169 L191,162 L177,153 L162,146 L156,144 L149,143 L126,143 L113,147 L103,152 L93,160 L85,168 L76,182 L71,195 L70,206 L77,220 L78,224 L78,231 L73,232 L70,219 L65,210 L59,203 L50,197 L41,194 L27,192 L27,187 L40,187 L55,192 L64,197 L69,182 L77,168 L86,157 L96,149 L106,143 L120,138 L130,136 L147,136 L166,141 L172,142 L172,130 L167,110 L160,96 L152,86 L144,78 L130,69 L114,63 L104,61 L84,61 L77,62 L74,79 L67,93 L62,99 L57,100 L57,95 L64,86 L68,77 L69,73 L69,53 L65,42 L58,30 L47,19 L37,13 L23,8 L18,7 Z " fill="#538686" transform="translate(1440,427)"/>
<path d="M0,0 L22,0 L38,5 L50,12 L61,22 L68,32 L74,45 L77,58 L77,606 L74,620 L69,633 L60,647 L51,657 L40,667 L27,675 L13,680 L-2,683 L-22,683 L-37,680 L-50,675 L-61,669 L-70,662 L-76,657 L-85,646 L-93,633 L-97,624 L-113,623 L-129,619 L-141,614 L-152,607 L-164,596 L-172,586 L-180,572 L-185,557 L-187,541 L-186,523 L-185,519 L-190,517 L-201,510 L-213,499 L-223,485 L-231,469 L-236,453 L-238,437 L-238,425 L-235,407 L-230,392 L-224,379 L-231,368 L-237,355 L-241,339 L-242,322 L-240,307 L-235,291 L-226,275 L-217,264 L-209,256 L-207,256 L-209,248 L-210,238 L-210,225 L-207,207 L-200,188 L-192,175 L-185,166 L-175,156 L-160,146 L-158,146 L-159,134 L-157,119 L-152,104 L-145,91 L-137,81 L-129,73 L-114,63 L-103,58 L-86,54 L-63,54 L-55,56 L-54,47 L-49,35 L-42,24 L-33,15 L-19,6 L-9,2 Z M2,7 L-10,10 L-22,16 L-33,25 L-42,37 L-46,46 L-50,63 L-67,61 L-81,61 L-97,64 L-113,71 L-124,79 L-135,90 L-142,101 L-147,112 L-151,127 L-152,150 L-165,158 L-179,170 L-188,182 L-195,194 L-200,209 L-202,224 L-202,242 L-200,253 L-201,259 L-215,273 L-225,288 L-231,302 L-234,314 L-234,336 L-230,352 L-225,364 L-216,377 L-219,386 L-224,397 L-228,409 L-230,420 L-230,446 L-225,464 L-217,480 L-211,489 L-199,502 L-187,511 L-179,516 L-179,546 L-177,558 L-171,574 L-164,585 L-155,595 L-147,602 L-133,610 L-122,614 L-98,617 L-93,618 L-91,617 L-88,627 L-79,642 L-67,655 L-56,663 L-40,671 L-29,675 L-23,676 L-1,676 L17,671 L34,662 L45,653 L54,643 L61,632 L67,615 L70,601 L70,65 L67,46 L60,33 L52,23 L41,15 L30,10 L19,7 Z " fill="#396568" transform="translate(1292,427)"/>
<path d="M0,0 L58,0 L66,3 L72,11 L77,18 L193,19 L200,23 L204,29 L205,32 L205,168 L202,174 L195,180 L192,181 L-1,181 L-9,177 L-13,172 L-15,164 L-15,17 L-13,9 L-8,3 Z M-1,47 L-6,51 L-8,55 L-8,167 L-5,172 L-2,174 L193,174 L198,169 L199,167 L199,55 L195,49 L191,47 Z " fill="#537B86" transform="translate(1281,1254)"/>
<path d="M0,0 L57,0 L64,2 L71,9 L77,18 L191,19 L198,22 L203,28 L205,32 L205,170 L201,176 L196,180 L194,181 L-2,181 L-8,178 L-13,172 L-15,163 L-15,17 L-13,9 L-7,2 Z M0,47 L-7,53 L-8,55 L-8,168 L-3,174 L-1,175 L192,175 L198,170 L199,168 L199,55 L193,48 L191,47 Z " fill="#507783" transform="translate(1281,104)"/>
<path d="M0,0 L63,0 L69,4 L77,13 L81,18 L195,19 L203,23 L207,28 L208,31 L208,170 L204,177 L196,181 L1,181 L-7,177 L-11,171 L-12,168 L-12,12 L-9,6 L-3,1 Z M2,47 L-4,52 L-6,56 L-6,168 L-1,174 L1,175 L194,175 L200,172 L202,168 L202,55 L198,49 L194,47 Z " fill="#4D747F" transform="translate(633,669)"/>
<path d="M0,0 L56,0 L63,4 L70,14 L70,16 L158,16 L173,17 L179,21 L182,25 L183,28 L183,147 L179,154 L171,158 L5,158 L-2,157 L-9,151 L-11,146 L-11,12 L-7,4 Z M1,42 L-5,49 L-5,144 L-2,149 L0,151 L172,151 L176,147 L177,145 L177,48 L173,43 L171,42 Z " fill="#507883" transform="translate(1830,1037)"/>
<path d="M0,0 L15,0 L27,3 L38,9 L48,18 L54,28 L58,38 L59,42 L59,61 L56,71 L50,82 L41,92 L30,99 L17,103 L-2,103 L-12,100 L-23,94 L-32,86 L-39,75 L-43,65 L-45,55 L-44,41 L-39,27 L-31,16 L-23,9 L-9,2 Z " fill="#8BABA2" transform="translate(1148,52)"/>
<path d="M0,0 L56,0 L63,4 L71,15 L171,16 L177,19 L182,25 L183,27 L183,147 L180,152 L176,156 L170,158 L2,158 L-6,154 L-10,147 L-10,9 L-6,3 Z M3,41 L-3,46 L-4,48 L-4,146 L0,151 L2,152 L169,152 L174,149 L177,145 L177,48 L173,43 L168,41 Z " fill="#4C767F" transform="translate(1858,372)"/>
<path d="M0,0 L16,2 L28,7 L38,15 L44,22 L49,31 L52,39 L53,44 L53,60 L49,73 L44,82 L35,92 L26,98 L16,102 L6,104 L-3,104 L-19,100 L-29,94 L-39,85 L-46,73 L-49,64 L-50,59 L-50,45 L-47,33 L-40,21 L-34,14 L-24,7 L-13,2 Z " fill="#F3C1C2" transform="translate(1936,206)"/>
<path d="M0,0 L157,0 L163,5 L163,17 L174,17 L179,21 L180,24 L180,247 L177,253 L174,255 L15,255 L11,251 L10,249 L10,239 L0,239 L-5,236 L-7,233 L-7,7 L-2,1 Z M0,7 L0,231 L1,232 L156,232 L157,9 L156,7 Z M163,24 L162,233 L157,238 L17,239 L17,247 L18,248 L172,248 L173,247 L173,25 L172,24 Z " fill="#659091" transform="translate(1962,637)"/>
<path d="M0,0 L10,0 L26,4 L35,9 L45,18 L52,29 L56,40 L57,47 L57,57 L54,70 L48,81 L39,91 L28,98 L18,102 L12,103 L0,103 L-13,100 L-24,94 L-34,85 L-41,74 L-45,63 L-46,58 L-46,44 L-42,30 L-35,19 L-27,11 L-15,4 L-6,1 Z " fill="#C4B5E5" transform="translate(632,500)"/>
<path d="M0,0 L16,1 L27,5 L38,12 L47,22 L52,32 L55,42 L55,60 L51,73 L44,84 L35,93 L21,100 L13,102 L-3,102 L-15,99 L-28,91 L-36,83 L-42,73 L-46,60 L-46,42 L-43,32 L-38,22 L-29,12 L-18,5 L-7,1 Z " fill="#F4C2C3" transform="translate(605,915)"/>
<path d="M0,0 L6,2 L11,11 L11,13 L21,9 L27,10 L31,16 L44,46 L60,82 L74,114 L92,155 L106,187 L116,210 L117,219 L112,224 L86,236 L53,251 L13,269 L-24,286 L-29,287 L-35,284 L-39,276 L-39,274 L-48,278 L-54,278 L-58,274 L-72,242 L-86,210 L-97,185 L-115,144 L-133,103 L-146,73 L-145,66 L-137,61 L-112,50 L-70,31 L-28,12 L-3,1 Z M-2,8 L-42,26 L-77,42 L-113,58 L-138,69 L-139,71 L-134,83 L-115,126 L-99,163 L-80,206 L-62,247 L-52,270 L-49,271 L-20,258 L18,241 L60,222 L87,210 L88,205 L77,179 L64,150 L46,108 L29,70 L16,40 L2,8 Z M21,16 L14,19 L22,39 L40,79 L58,121 L77,164 L93,201 L94,203 L94,211 L90,215 L55,231 L13,250 L-23,266 L-32,271 L-31,277 L-30,279 L-24,278 L12,262 L40,249 L76,233 L106,219 L110,217 L109,211 L90,168 L72,127 L54,86 L35,43 L23,16 Z " fill="#618D8E" transform="translate(853,918)"/>
<path d="M0,0 L5,1 L9,5 L12,11 L12,13 L23,8 L28,9 L32,14 L48,46 L58,65 L92,133 L102,152 L124,196 L131,210 L131,217 L123,222 L100,234 L81,244 L53,258 L34,268 L6,282 L-10,290 L-17,291 L-22,285 L-23,279 L-34,284 L-40,283 L-44,278 L-54,258 L-64,239 L-104,159 L-114,140 L-142,84 L-143,75 L-138,70 L-102,52 L-83,42 L-44,22 L-5,2 Z M-2,8 L-17,16 L-33,24 L-59,37 L-78,47 L-98,57 L-117,67 L-136,77 L-135,82 L-124,105 L-111,131 L-101,150 L-57,238 L-47,257 L-37,276 L-35,277 L11,254 L30,244 L56,231 L75,221 L102,207 L99,198 L73,146 L63,127 L17,35 L7,16 L3,8 Z M24,15 L16,19 L25,38 L63,114 L73,133 L107,201 L108,208 L103,213 L62,234 L27,252 L0,266 L-18,275 L-16,282 L-11,283 L15,270 L34,260 L64,245 L83,235 L123,215 L125,212 L115,194 L57,78 L47,59 L25,15 Z " fill="#60878A" transform="translate(1029,137)"/>
<path d="M0,0 L17,0 L30,4 L41,11 L49,19 L57,35 L59,44 L59,56 L56,68 L50,80 L42,89 L31,96 L21,100 L17,101 L0,101 L-13,97 L-23,91 L-31,84 L-38,73 L-42,62 L-43,56 L-43,45 L-39,30 L-33,20 L-26,12 L-15,5 L-5,1 Z " fill="#C4B6E5" transform="translate(2107,948)"/>
<path d="M0,0 L14,1 L27,6 L38,14 L45,22 L52,36 L54,48 L53,61 L49,72 L43,82 L36,90 L25,97 L14,101 L9,102 L-2,102 L-15,99 L-25,94 L-35,85 L-42,75 L-46,65 L-48,53 L-47,41 L-43,29 L-37,20 L-31,13 L-21,6 L-11,2 Z " fill="#C3B5E6" transform="translate(815,1252)"/>
<path d="M0,0 L6,1 L29,12 L63,28 L106,49 L129,60 L145,68 L148,71 L148,79 L146,86 L154,90 L156,92 L156,99 L145,122 L126,162 L107,202 L89,240 L72,276 L63,296 L60,300 L53,301 L30,290 L-5,273 L-28,262 L-59,247 L-87,234 L-91,230 L-91,224 L-87,216 L-96,211 L-99,208 L-99,202 L-85,173 L-72,145 L-52,104 L-41,81 L-29,56 L-13,22 L-5,6 Z M1,8 L-13,37 L-26,65 L-43,100 L-54,123 L-70,157 L-86,190 L-92,203 L-92,206 L-76,214 L-35,234 L3,252 L26,263 L45,272 L48,272 L60,247 L73,220 L84,197 L97,170 L110,142 L129,103 L141,77 L141,73 L110,58 L87,47 L60,34 L37,23 L5,8 Z M141,92 L133,108 L121,132 L108,160 L91,195 L78,223 L61,258 L53,275 L49,278 L42,277 L5,259 L-23,246 L-74,221 L-78,219 L-81,219 L-84,225 L-83,228 L-34,252 L-11,263 L23,279 L54,294 L56,294 L74,256 L90,222 L105,191 L118,163 L136,126 L147,103 L149,98 L149,95 L143,92 Z " fill="#62898B" transform="translate(1677,122)"/>
<path d="M0,0 L14,0 L24,3 L34,9 L42,17 L49,31 L50,36 L50,50 L46,62 L39,72 L31,79 L20,84 L9,86 L-2,85 L-13,81 L-23,74 L-30,65 L-34,57 L-36,48 L-36,37 L-32,24 L-24,13 L-17,7 L-8,2 Z " fill="#89ABA0" transform="translate(2143,504)"/>
<path d="M0,0 L12,0 L22,3 L32,9 L40,17 L46,29 L48,37 L48,49 L44,62 L37,72 L29,79 L21,83 L15,85 L-5,85 L-17,80 L-27,71 L-33,63 L-36,56 L-37,51 L-37,34 L-32,21 L-24,11 L-13,4 L-6,1 Z " fill="#F4C3C4" transform="translate(1170,1405)"/>
<path d="M0,0 L5,1 L10,5 L26,34 L38,55 L53,82 L68,109 L81,132 L97,161 L111,186 L117,196 L118,205 L115,210 L87,226 L59,242 L33,257 L5,273 L-21,288 L-27,289 L-32,286 L-36,281 L-50,256 L-64,231 L-78,206 L-93,179 L-107,154 L-122,127 L-136,102 L-142,92 L-143,85 L-140,80 L-131,74 L-104,59 L-80,45 L-52,29 L-27,15 L-10,5 Z M1,7 L-16,16 L-40,30 L-68,46 L-94,61 L-117,74 L-134,84 L-135,85 L-134,92 L-121,115 L-107,140 L-92,167 L-78,192 L-64,217 L-49,244 L-40,260 L-28,281 L-25,282 L-5,271 L19,257 L44,243 L61,233 L86,219 L110,205 L111,200 L97,175 L82,148 L69,125 L53,96 L39,71 L26,48 L13,24 L3,8 Z " fill="#628D8F" transform="translate(1705,1132)"/>
<path d="M0,0 L6,1 L29,14 L50,26 L75,40 L99,54 L122,67 L142,79 L145,82 L146,88 L138,104 L124,128 L109,156 L97,177 L82,204 L67,231 L54,254 L39,281 L35,287 L31,289 L24,288 L-4,272 L-30,257 L-58,241 L-81,228 L-106,214 L-114,208 L-115,206 L-115,198 L-103,176 L-90,153 L-74,124 L-60,99 L-45,72 L-30,45 L-15,18 L-6,3 Z M-1,8 L-14,31 L-28,56 L-43,83 L-57,108 L-69,130 L-79,148 L-92,171 L-108,200 L-107,205 L-90,215 L-63,230 L-39,244 L-14,258 L10,272 L27,282 L31,281 L47,252 L61,227 L76,200 L89,177 L104,150 L118,125 L133,98 L139,86 L129,79 L102,64 L78,50 L53,36 L29,22 L4,8 Z " fill="#648E90" transform="translate(1039,1132)"/>
<path d="M0,0 L6,1 L12,8 L23,28 L37,52 L49,73 L64,99 L78,123 L94,151 L110,179 L119,195 L120,201 L117,206 L91,221 L67,235 L41,250 L13,266 L-14,282 L-18,284 L-25,284 L-30,279 L-44,255 L-57,232 L-69,211 L-84,185 L-98,160 L-112,136 L-127,109 L-137,92 L-139,88 L-139,81 L-131,75 L-108,62 L-84,48 L-60,34 L-34,19 L-10,5 Z M1,7 L-19,18 L-43,32 L-69,47 L-96,63 L-119,76 L-132,84 L-131,88 L-119,110 L-107,131 L-93,156 L-79,180 L-63,208 L-47,236 L-31,264 L-23,277 L-18,276 L5,263 L31,248 L57,233 L81,219 L107,204 L113,200 L111,194 L97,170 L81,142 L65,114 L50,88 L35,62 L20,36 L8,15 L3,7 Z " fill="#60888A" transform="translate(832,329)"/>
<path d="M0,0 L61,0 L71,11 L77,18 L193,19 L199,23 L201,26 L201,38 L194,36 L0,36 L-7,39 L-7,6 L-2,1 Z " fill="#C0B4E4" transform="translate(634,675)"/>
<path d="M0,0 L61,0 L66,3 L75,15 L77,19 L194,19 L200,24 L201,26 L201,39 L196,36 L-1,36 L-6,38 L-6,6 L-1,1 Z " fill="#C0B5E7" transform="translate(1279,111)"/>
<path d="M0,0 L63,0 L68,5 L76,15 L79,17 L195,18 L201,23 L202,25 L202,39 L196,35 L0,35 L-5,38 L-5,5 Z " fill="#C0B5E6" transform="translate(1278,1261)"/>
<path d="M0,0 L53,0 L58,3 L66,14 L67,15 L169,16 L175,21 L176,23 L176,33 L170,31 L-1,31 L-5,33 L-5,5 Z " fill="#BBB1DF" transform="translate(1859,378)"/>
<path d="M0,0 L54,0 L60,4 L67,14 L70,16 L171,17 L176,21 L177,23 L177,33 L171,31 L1,31 L-5,33 L-5,6 Z " fill="#C0B5E5" transform="translate(1830,1043)"/>
<path d="M0,0 L9,0 L20,4 L28,11 L32,19 L33,22 L33,37 L28,47 L23,52 L15,57 L12,58 L-3,58 L-13,53 L-18,48 L-23,40 L-25,31 L-24,21 L-19,11 L-11,4 Z " fill="#8FADA4" transform="translate(1578,1423)"/>
<path d="M0,0 L13,0 L22,4 L30,11 L34,19 L35,22 L35,35 L31,45 L25,52 L15,57 L11,58 L2,58 L-7,55 L-15,49 L-20,42 L-22,36 L-22,22 L-18,12 L-11,5 L-4,1 Z " fill="#F4C3C4" transform="translate(1909,1261)"/>
<path d="M0,0 L14,0 L23,4 L30,10 L36,22 L36,35 L33,43 L24,53 L15,57 L6,58 L-6,55 L-15,48 L-20,40 L-22,32 L-22,25 L-19,15 L-13,7 L-6,2 Z " fill="#C6B7E5" transform="translate(1853,599)"/>
<path d="M0,0 L13,0 L22,4 L29,10 L35,22 L36,31 L33,42 L27,50 L21,55 L12,58 L2,58 L-7,55 L-17,46 L-22,36 L-22,21 L-17,11 L-8,3 Z " fill="#F2C2C3" transform="translate(912,633)"/>
<path d="M0,0 L9,0 L18,3 L25,8 L31,17 L33,23 L33,35 L29,44 L22,52 L12,57 L2,58 L-7,56 L-16,50 L-22,42 L-25,32 L-25,25 L-21,14 L-13,5 L-4,1 Z " fill="#F3C2C3" transform="translate(1877,915)"/>
<path d="M0,0 L14,0 L23,4 L30,10 L35,20 L36,24 L36,33 L33,42 L24,52 L16,56 L12,57 L3,57 L-6,54 L-12,50 L-18,43 L-21,35 L-21,21 L-16,11 L-9,4 Z " fill="#F4C2C3" transform="translate(800,232)"/>
<path d="M0,0 L5,1 L9,12 L11,26 L11,47 L9,59 L3,74 L-4,86 L-12,96 L-14,96 L-15,99 L-29,110 L-44,118 L-55,122 L-74,125 L-93,125 L-109,122 L-125,116 L-139,108 L-145,103 L-143,99 L-140,97 L-126,106 L-113,112 L-97,116 L-74,116 L-65,110 L-59,103 L-55,95 L-53,87 L-53,76 L-56,67 L-55,63 L-50,62 L-46,70 L-45,74 L-45,88 L-47,96 L-51,106 L-57,114 L-38,106 L-27,98 L-17,89 L-8,77 L-1,62 L3,48 L3,22 L-1,7 L-2,2 Z " fill="#477F81" transform="translate(1582,664)"/>
<path d="M0,0 L5,0 L6,1 L5,10 L2,26 L2,43 L6,61 L14,77 L21,86 L27,93 L40,103 L56,111 L63,113 L56,103 L52,92 L51,88 L51,70 L55,61 L60,62 L61,66 L59,74 L59,89 L64,101 L71,110 L79,115 L82,116 L95,116 L115,112 L130,106 L142,99 L145,97 L149,98 L150,103 L141,109 L125,117 L114,121 L96,124 L78,124 L58,120 L43,114 L32,107 L21,98 L12,88 L2,73 L-3,60 L-5,53 L-6,45 L-6,26 L-4,11 Z " fill="#82A79E" transform="translate(1166,665)"/>
<path d="M0,0 L22,0 L36,5 L47,13 L55,22 L62,36 L64,42 L64,59 L61,71 L59,75 L55,74 L53,73 L55,64 L56,60 L56,43 L52,32 L44,21 L34,13 L21,8 L2,8 L-8,11 L-19,18 L-26,26 L-32,38 L-35,43 L-48,47 L-58,54 L-65,63 L-68,70 L-70,81 L-72,83 L-76,82 L-77,81 L-77,73 L-73,62 L-67,52 L-57,43 L-47,38 L-40,36 L-33,22 L-24,12 L-19,8 L-7,2 Z " fill="#467E7F" transform="translate(1541,840)"/>
<path d="M0,0 L14,0 L22,2 L34,7 L43,14 L51,23 L58,36 L70,41 L76,45 L82,50 L89,60 L93,69 L94,73 L94,82 L88,82 L87,81 L85,69 L79,58 L70,50 L60,45 L52,42 L43,25 L35,17 L27,12 L12,7 L-1,7 L-13,11 L-24,18 L-31,26 L-37,38 L-38,41 L-38,63 L-36,72 L-38,74 L-43,73 L-47,59 L-47,46 L-45,37 L-37,21 L-31,14 L-23,8 L-11,2 Z " fill="#83A69E" transform="translate(1195,840)"/>
<path d="M0,0 L25,0 L43,6 L55,13 L67,24 L74,32 L82,46 L88,61 L99,54 L110,50 L124,50 L125,51 L125,56 L124,57 L108,59 L94,66 L86,75 L81,86 L79,96 L74,97 L73,96 L73,85 L78,73 L81,69 L78,57 L70,41 L64,32 L53,21 L42,14 L29,9 L23,8 L1,8 L-14,12 L-22,16 L-24,15 L-23,14 L-22,7 L-10,2 Z " fill="#82A79D" transform="translate(1163,563)"/>
<path d="M0,0 L4,1 L5,6 L-6,15 L-16,25 L-24,38 L-29,50 L-32,64 L-32,82 L-30,100 L-35,101 L-38,96 L-40,82 L-40,63 L-37,49 L-33,38 L-25,24 L-14,11 L-2,1 Z " fill="#81A59C" transform="translate(1230,944)"/>
<path d="M0,0 L1,0 L1,24 L-5,34 L-14,44 L-22,51 L-38,59 L-51,62 L-70,62 L-73,60 L-72,55 L-71,54 L-51,54 L-36,50 L-26,44 L-16,35 L-8,24 L-3,12 Z " fill="#82A79E" transform="translate(1361,625)"/>
<path d="M0,0 L4,1 L12,15 L18,22 L28,28 L31,29 L49,29 L59,25 L64,26 L65,30 L60,34 L53,37 L48,38 L33,38 L20,33 L11,26 L3,17 L-2,7 L-2,1 Z " fill="#467F81" transform="translate(1426,998)"/>
<path d="M0,0 L5,1 L6,5 L0,17 L-9,27 L-19,33 L-26,36 L-47,36 L-57,32 L-61,29 L-60,25 L-56,24 L-46,28 L-42,29 L-30,29 L-18,24 L-10,17 L-4,8 L-1,1 Z " fill="#83A69C" transform="translate(1323,999)"/>
<path d="M0,0 L3,3 L10,19 L17,30 L26,41 L35,49 L41,53 L41,58 L36,59 L25,51 L15,41 L5,27 L-2,12 L-3,3 Z " fill="#84A79F" transform="translate(1092,685)"/>
<path d="M0,0 L7,6 L19,15 L34,22 L41,24 L49,25 L49,32 L41,32 L27,28 L14,21 L2,12 L-3,7 L-1,1 Z " fill="#81A69D" transform="translate(1077,805)"/>
<path d="M0,0 L5,0 L6,1 L6,6 L-5,12 L-11,19 L-15,27 L-17,45 L-21,46 L-23,45 L-24,42 L-24,29 L-19,16 L-10,6 Z " fill="#468081" transform="translate(1456,493)"/>
<path d="M0,0 L7,1 L16,7 L23,15 L27,23 L28,28 L28,43 L26,45 L22,44 L21,43 L20,29 L16,20 L13,15 L5,9 L-1,6 L-1,1 Z " fill="#83A79E" transform="translate(1293,493)"/>
<path d="M0,0 L6,0 L10,16 L15,25 L20,31 L19,36 L14,35 L7,27 L3,19 L0,9 Z " fill="#7EA198" transform="translate(1237,491)"/>
<path d="M0,0 L192,0 L195,2 L3,2 L-2,5 L-6,7 L-3,2 Z " fill="#A8B5D8" transform="translate(1280,1301)"/>
<path d="M0,0 L3,4 L11,20 L11,23 L13,24 L11,26 L0,4 Z " fill="#7E9C9D" transform="translate(1116,273)"/>
<path d="M0,0 L3,1 L-2,5 L-3,7 L-3,36 L-5,37 L-5,5 Z " fill="#BBBFE5" transform="translate(1278,112)"/>
<path d="M0,0 L2,1 L-7,11 L-11,13 L-12,17 L-14,17 L-12,12 Z " fill="#719593" transform="translate(1409,440)"/>
<path d="M0,0 L3,4 L9,16 L7,18 L0,4 Z " fill="#779597" transform="translate(1120,317)"/>
<path d="M0,0 L2,1 L-8,12 L-11,11 Z " fill="#567A7A" transform="translate(1117,583)"/>
<path d="M0,0 L2,0 L0,4 L-8,12 L-8,9 Z " fill="#F0CDCC" transform="translate(576,927)"/>
<path d="M0,0 L2,0 L0,4 L-6,10 L-9,9 Z " fill="#CCBFE2" transform="translate(605,511)"/>
<path d="M0,0 L3,4 L7,12 L6,16 L0,4 Z " fill="#799696" transform="translate(947,336)"/>
<path d="M0,0 L2,1 L-8,11 L-9,13 L-11,12 L-4,3 Z " fill="#F0CFCE" transform="translate(1150,1413)"/>
<path d="M0,0 L2,1 L-1,5 L-3,5 L-2,13 L-5,11 L-4,4 Z " fill="#7D9E9D" transform="translate(1567,1210)"/>
<path d="M0,0 L2,1 L-6,10 L-9,9 Z " fill="#688889" transform="translate(1083,683)"/>
<path d="M0,0 L5,0 L1,3 L-6,5 L-6,3 Z " fill="#799B9D" transform="translate(936,1134)"/>
<path d="M0,0 L4,1 L-1,6 L-3,9 L-2,2 Z " fill="#83A3A2" transform="translate(710,982)"/>
<path d="M0,0 L1,0 L1,10 L-2,12 L-1,3 Z " fill="#6F9E99" transform="translate(1361,625)"/>
<path d="M0,0 L2,1 L-6,8 L-8,7 Z " fill="#F1D0D0" transform="translate(1907,216)"/>
<path d="M0,0 L2,0 L0,6 L-3,9 L-2,4 Z " fill="#7C9D9D" transform="translate(1078,1407)"/>
<path d="M0,0 L5,0 L0,4 L-4,6 L-1,1 Z " fill="#B7B6DF" transform="translate(1278,1302)"/>
<path d="M0,0 L4,1 L-2,6 L-1,1 Z " fill="#65878C" transform="translate(1852,375)"/>
<path d="M0,0 L2,1 L-3,8 L-4,4 Z " fill="#6E9190" transform="translate(1960,638)"/>
<path d="M0,0 L2,1 L-3,7 L-5,7 L-3,3 Z " fill="#6E8E91" transform="translate(1274,106)"/>
</svg>
