<?xml version="1.0" encoding="UTF-8"?>
<!-- Generator: visioncortex VTracer 0.6.12 -->
<svg version="1.1" xmlns="http://www.w3.org/2000/svg" width="2752" height="1536">
<path d="M0,0 L7,0 L9,11 L10,32 L8,53 L3,73 L-5,90 L-16,104 L-28,114 L-40,121 L-53,126 L-77,132 L-82,146 L-86,162 L-88,176 L-88,198 L-87,214 L-85,214 L-84,209 L-77,197 L-67,187 L-56,180 L-45,175 L-36,173 L-16,173 L-3,176 L13,184 L23,193 L29,201 L34,211 L57,211 L73,215 L89,223 L100,232 L110,245 L117,260 L120,273 L120,292 L132,297 L143,304 L153,312 L162,321 L171,335 L177,348 L177,351 L179,351 L181,346 L190,327 L196,309 L196,302 L185,290 L176,276 L169,262 L165,246 L165,221 L169,205 L176,189 L184,175 L193,163 L205,149 L207,147 L212,148 L222,161 L232,178 L241,199 L245,217 L245,239 L242,253 L236,268 L227,282 L216,294 L205,304 L198,327 L192,341 L206,334 L208,334 L210,329 L217,320 L226,310 L238,301 L248,296 L259,293 L272,292 L288,294 L305,299 L328,310 L329,314 L323,322 L314,332 L304,341 L290,350 L279,355 L266,358 L250,358 L233,354 L217,346 L210,341 L204,343 L189,351 L183,356 L181,361 L182,369 L182,386 L199,387 L241,393 L320,407 L330,409 L337,417 L346,430 L358,446 L388,447 L396,451 L402,458 L404,463 L404,1012 L399,1020 L391,1026 L387,1027 L-39,1028 L-46,1035 L-62,1043 L-77,1047 L-84,1048 L-114,1048 L-129,1045 L-141,1041 L-152,1035 L-159,1028 L-585,1027 L-595,1022 L-600,1016 L-602,1011 L-602,464 L-599,457 L-593,450 L-586,447 L-555,447 L-553,442 L-540,425 L-530,411 L-527,409 L-469,398 L-413,389 L-390,386 L-380,386 L-380,369 L-376,352 L-370,337 L-360,322 L-353,314 L-342,305 L-329,297 L-318,292 L-318,273 L-314,258 L-306,242 L-295,230 L-288,224 L-278,218 L-260,212 L-253,211 L-232,211 L-225,198 L-216,188 L-202,179 L-188,174 L-176,172 L-168,172 L-153,175 L-141,180 L-130,188 L-125,192 L-117,203 L-111,216 L-108,228 L-107,434 L-101,439 L-96,438 L-91,434 L-91,227 L-95,202 L-96,182 L-100,170 L-107,157 L-129,154 L-146,149 L-159,141 L-169,132 L-178,119 L-184,105 L-189,84 L-190,75 L-190,63 L-189,62 L-181,62 L-161,66 L-145,72 L-132,79 L-121,88 L-112,100 L-107,111 L-103,126 L-102,136 L-102,150 L-95,164 L-95,166 L-93,166 L-92,155 L-86,134 L-84,129 L-85,121 L-87,111 L-88,101 L-88,88 L-85,71 L-80,58 L-73,46 L-64,36 L-57,29 L-41,18 L-22,8 L-3,1 Z M191,341 Z M-388,392 L-429,398 L-484,407 L-520,414 L-523,415 L-523,960 L-511,958 L-467,950 L-401,940 L-365,936 L-341,934 L-322,933 L-283,933 L-258,935 L-222,941 L-188,950 L-159,960 L-135,971 L-110,984 L-102,988 L-102,446 L-108,442 L-109,745 L-113,763 L-118,775 L-125,786 L-134,796 L-145,804 L-161,812 L-176,816 L-187,817 L-204,815 L-220,810 L-235,802 L-246,793 L-257,781 L-264,771 L-289,771 L-305,767 L-319,760 L-328,753 L-336,745 L-344,732 L-348,723 L-356,729 L-360,734 L-359,740 L-356,755 L-356,770 L-359,783 L-365,795 L-373,805 L-384,814 L-403,824 L-414,828 L-417,828 L-420,814 L-421,804 L-421,791 L-418,775 L-413,762 L-403,749 L-392,741 L-379,735 L-365,731 L-356,722 L-356,721 L-378,718 L-385,718 L-398,723 L-414,726 L-425,726 L-441,722 L-454,715 L-466,704 L-476,691 L-484,678 L-487,672 L-487,669 L-474,665 L-455,662 L-438,662 L-424,665 L-410,672 L-400,681 L-394,688 L-386,702 L-382,710 L-380,712 L-370,714 L-350,714 L-351,693 L-364,688 L-374,682 L-383,673 L-389,663 L-393,654 L-395,645 L-395,629 L-392,616 L-388,607 L-397,600 L-406,591 L-414,577 L-419,563 L-421,553 L-421,536 L-417,519 L-409,503 L-401,493 L-396,488 L-397,484 L-402,473 L-404,466 L-404,447 L-400,434 L-394,423 L-387,415 L-377,408 L-378,400 L-380,392 Z M182,392 L180,399 L179,408 L189,415 L196,423 L204,439 L206,446 L206,467 L202,479 L198,488 L206,496 L215,510 L221,526 L223,536 L223,553 L219,570 L211,586 L204,595 L197,602 L191,606 L194,615 L197,627 L197,646 L194,657 L188,669 L181,678 L170,686 L160,691 L153,693 L153,704 L151,717 L147,729 L139,743 L128,755 L114,764 L100,769 L91,771 L74,771 L67,770 L57,784 L48,794 L36,803 L21,811 L8,815 L2,816 L-21,816 L-37,812 L-53,804 L-63,796 L-71,788 L-80,774 L-86,760 L-89,747 L-90,442 L-96,446 L-96,988 L-82,981 L-63,971 L-44,962 L-16,952 L16,943 L40,938 L70,934 L85,933 L124,933 L167,936 L203,940 L264,949 L309,957 L322,960 L326,959 L325,415 L312,412 L250,401 L203,394 L189,392 Z M-531,423 L-541,437 L-555,456 L-565,470 L-565,990 L-564,991 L-111,991 L-114,988 L-147,971 L-174,960 L-200,952 L-230,945 L-262,940 L-294,938 L-310,938 L-350,940 L-396,945 L-441,951 L-487,959 L-526,966 L-528,966 L-529,425 Z M332,423 L331,963 L329,966 L279,957 L230,949 L173,942 L136,939 L111,938 L98,938 L65,940 L38,944 L10,950 L-14,957 L-34,964 L-59,975 L-88,990 L-88,991 L367,991 L367,470 L354,452 L341,434 L333,423 Z " fill="#416F70" transform="translate(1475,244)"/>
<path d="M0,0 L21,0 L34,4 L46,10 L53,16 L61,27 L65,35 L66,40 L66,58 L59,72 L52,79 L38,86 L33,87 L26,87 L27,91 L36,91 L50,86 L59,79 L66,70 L70,61 L71,56 L72,38 L90,38 L101,40 L114,45 L126,52 L136,62 L143,73 L148,85 L150,93 L150,112 L122,113 L107,118 L96,125 L86,134 L77,147 L71,162 L70,165 L70,173 L73,174 L76,161 L84,145 L91,136 L101,127 L115,120 L121,118 L130,117 L147,117 L162,122 L173,128 L184,137 L195,148 L203,161 L208,173 L211,186 L212,192 L212,213 L208,231 L203,244 L197,255 L186,268 L179,275 L164,285 L148,291 L138,293 L116,293 L118,288 L125,273 L128,260 L128,240 L126,236 L123,236 L123,263 L118,278 L112,289 L100,302 L88,310 L75,315 L70,316 L49,316 L38,313 L24,306 L14,297 L8,295 L10,302 L14,304 L23,311 L35,317 L47,320 L54,321 L68,321 L83,317 L99,309 L111,298 L135,298 L152,295 L170,287 L183,278 L194,267 L203,254 L210,240 L213,235 L218,237 L227,246 L234,258 L237,267 L237,285 L234,297 L228,308 L230,312 L238,320 L246,333 L251,345 L254,357 L254,374 L250,390 L243,404 L235,414 L224,423 L211,430 L196,434 L172,434 L163,431 L160,431 L160,435 L169,438 L175,439 L194,439 L211,435 L220,431 L222,431 L226,440 L228,449 L228,466 L226,474 L222,483 L218,489 L211,497 L201,504 L191,508 L183,509 L184,515 L184,527 L181,540 L174,556 L167,565 L158,574 L144,582 L126,587 L109,587 L106,586 L107,581 L109,576 L112,560 L112,534 L108,519 L103,507 L96,496 L89,489 L85,490 L87,494 L95,503 L103,518 L107,533 L108,538 L108,556 L104,576 L96,592 L89,601 L80,611 L70,619 L54,627 L47,630 L38,632 L16,632 L1,628 L-15,620 L-28,609 L-37,597 L-44,582 L-47,574 L-48,567 L-48,51 L-45,38 L-39,26 L-31,16 L-19,7 L-8,2 Z " fill="#8DAEA3" transform="translate(1439,423)"/>
<path d="M0,0 L18,0 L28,2 L40,7 L50,14 L58,22 L65,34 L69,49 L69,565 L67,577 L61,593 L54,604 L47,612 L33,622 L21,628 L8,632 L3,633 L-11,633 L-27,629 L-40,624 L-51,617 L-61,608 L-69,600 L-78,586 L-84,571 L-87,555 L-87,541 L-85,527 L-80,513 L-71,499 L-63,491 L-67,489 L-74,495 L-83,509 L-89,525 L-91,535 L-91,561 L-88,576 L-84,586 L-88,587 L-102,587 L-118,584 L-130,579 L-141,571 L-148,564 L-156,551 L-161,539 L-163,529 L-163,509 L-173,507 L-183,502 L-194,493 L-200,485 L-204,477 L-207,461 L-207,451 L-202,434 L-201,432 L-195,433 L-185,437 L-175,439 L-156,439 L-140,435 L-138,434 L-138,431 L-144,432 L-153,434 L-174,434 L-190,430 L-204,423 L-216,412 L-223,402 L-229,390 L-233,375 L-233,357 L-229,342 L-221,326 L-212,315 L-207,311 L-207,305 L-212,298 L-216,287 L-216,268 L-213,258 L-207,248 L-197,237 L-192,234 L-188,242 L-181,256 L-173,266 L-164,276 L-154,284 L-137,293 L-124,297 L-115,298 L-90,298 L-82,306 L-71,313 L-57,319 L-47,321 L-30,321 L-14,317 L0,310 L11,301 L13,296 L9,296 L-3,306 L-17,313 L-29,316 L-45,316 L-60,313 L-72,307 L-82,299 L-91,289 L-97,279 L-101,268 L-102,263 L-102,236 L-105,236 L-107,241 L-107,261 L-104,273 L-98,287 L-96,290 L-96,293 L-117,293 L-132,290 L-148,282 L-161,272 L-168,265 L-178,251 L-186,234 L-190,218 L-190,188 L-187,174 L-182,162 L-175,151 L-166,141 L-159,134 L-148,126 L-134,119 L-122,117 L-110,117 L-99,119 L-86,124 L-77,130 L-69,137 L-60,150 L-55,161 L-52,174 L-49,173 L-49,165 L-55,149 L-62,138 L-70,129 L-80,122 L-90,117 L-98,114 L-110,112 L-129,112 L-129,96 L-125,80 L-119,68 L-111,58 L-103,51 L-91,44 L-78,40 L-72,39 L-51,39 L-50,55 L-46,68 L-39,78 L-29,86 L-19,90 L-14,91 L-5,91 L-6,87 L-19,85 L-29,80 L-37,73 L-43,63 L-45,55 L-45,39 L-40,27 L-34,19 L-27,12 L-16,5 L-5,1 Z " fill="#40858B" transform="translate(1292,423)"/>
<path d="M0,0 L24,0 L22,5 L15,15 L14,544 L956,543 L956,16 L947,2 L947,0 L969,0 L977,4 L981,9 L983,15 L983,558 L979,564 L974,568 L971,569 L538,570 L540,574 L531,581 L518,587 L499,591 L473,591 L456,588 L443,583 L433,576 L430,573 L431,569 L-2,569 L-8,565 L-12,559 L-12,12 L-7,4 Z " fill="#3F8388" transform="translate(891,696)"/>
<path d="M0,0 L67,0 L73,4 L80,12 L89,24 L204,25 L210,29 L214,35 L215,39 L215,54 L235,54 L242,56 L247,62 L248,69 L229,139 L215,188 L211,193 L207,195 L-2,195 L-8,191 L-11,185 L-11,12 L-8,6 L-2,1 Z " fill="#8CADA2" transform="translate(1831,245)"/>
<path d="M0,0 L62,0 L70,4 L82,19 L86,24 L199,25 L207,29 L211,35 L212,39 L212,55 L234,55 L240,58 L244,62 L245,65 L245,72 L226,140 L213,186 L209,192 L205,195 L170,196 L-1,196 L-8,193 L-12,189 L-13,186 L-13,11 L-10,6 L-6,2 Z " fill="#8CADA2" transform="translate(422,598)"/>
<path d="M0,0 L11,0 L66,15 L72,19 L76,25 L85,46 L109,53 L171,70 L192,76 L197,79 L200,84 L201,93 L197,109 L207,111 L219,115 L224,120 L225,122 L225,130 L210,156 L197,178 L184,200 L171,222 L163,235 L158,240 L155,241 L148,241 L82,223 L-5,199 L-42,189 L-48,186 L-52,181 L-53,179 L-53,171 L-48,155 L-31,90 L-14,29 L-8,8 L-4,2 Z " fill="#C3B7E4" transform="translate(2003,910)"/>
<path d="M0,0 L9,2 L15,9 L26,51 L48,138 L51,151 L51,158 L47,164 L43,167 L17,174 L-49,191 L-131,212 L-154,218 L-163,218 L-168,215 L-172,209 L-188,145 L-213,45 L-213,35 L-209,29 L-204,26 L-144,11 L-135,13 L-126,19 L-115,28 L-106,27 L-47,12 L-5,1 Z " fill="#C3B8E4" transform="translate(742,919)"/>
<path d="M0,0 L26,0 L46,4 L61,10 L72,16 L83,24 L95,35 L105,47 L114,63 L120,78 L124,95 L125,103 L125,120 L122,138 L116,156 L107,173 L96,187 L86,197 L72,207 L55,216 L35,222 L19,224 L7,224 L-9,222 L-24,218 L-42,210 L-55,201 L-65,192 L-70,187 L-78,178 L-86,165 L-91,154 L-96,139 L-99,121 L-99,101 L-96,84 L-90,66 L-83,53 L-75,42 L-64,30 L-55,22 L-41,13 L-26,6 L-13,2 Z " fill="#F2C3C5" transform="translate(2375,178)"/>
<path d="M0,0 L24,0 L39,3 L51,7 L65,14 L77,23 L91,37 L100,51 L106,63 L111,79 L113,91 L113,110 L110,126 L105,141 L98,154 L89,166 L81,175 L68,185 L54,193 L37,199 L20,202 L4,202 L-13,199 L-28,194 L-43,186 L-57,175 L-65,167 L-75,153 L-83,137 L-88,120 L-89,113 L-89,87 L-85,69 L-78,53 L-69,39 L-58,27 L-47,18 L-33,10 L-19,4 L-7,1 Z " fill="#8EAEA3" transform="translate(2418,1136)"/>
<path d="M0,0 L15,1 L31,5 L45,11 L58,20 L69,30 L79,44 L86,58 L90,71 L92,84 L92,100 L89,117 L84,130 L77,143 L70,152 L65,158 L54,167 L41,175 L25,181 L16,183 L6,184 L-3,184 L-18,182 L-34,177 L-49,169 L-59,161 L-70,150 L-79,136 L-84,125 L-88,112 L-90,98 L-90,86 L-88,72 L-83,56 L-75,41 L-66,30 L-57,21 L-47,14 L-31,6 L-18,2 Z " fill="#C5B9E4" transform="translate(342,154)"/>
<path d="M0,0 L62,0 L70,4 L82,19 L86,24 L199,25 L207,29 L211,35 L212,39 L212,55 L234,55 L240,58 L244,62 L245,65 L245,72 L226,140 L213,186 L209,192 L205,195 L170,196 L-1,196 L-8,193 L-12,189 L-13,186 L-13,11 L-10,6 L-6,2 Z M32,61 L26,66 L23,74 L19,91 L13,112 L7,136 L0,160 L-4,175 L-6,182 L-6,187 L-2,190 L202,190 L207,185 L210,175 L216,154 L220,140 L228,112 L234,89 L239,71 L239,65 L234,61 Z " fill="#799789" transform="translate(422,598)"/>
<path d="M0,0 L11,0 L66,15 L72,19 L76,25 L85,46 L109,53 L171,70 L192,76 L197,79 L200,84 L201,93 L197,109 L207,111 L219,115 L224,120 L225,122 L225,130 L210,156 L197,178 L184,200 L171,222 L163,235 L158,240 L155,241 L148,241 L82,223 L-5,199 L-42,189 L-48,186 L-52,181 L-53,179 L-53,171 L-48,155 L-31,90 L-14,29 L-8,8 L-4,2 Z M19,68 L14,73 L6,86 L-9,112 L-24,137 L-37,159 L-47,175 L-46,180 L-42,183 L-9,192 L5,196 L18,199 L42,206 L67,213 L100,222 L116,226 L140,233 L147,235 L155,235 L161,227 L177,200 L194,171 L210,144 L219,128 L219,123 L216,120 L174,108 L156,103 L139,98 L105,89 L82,82 L66,78 L48,73 L29,68 Z " fill="#A99DCD" transform="translate(2003,910)"/>
<path d="M0,0 L67,0 L73,4 L80,12 L89,24 L204,25 L210,29 L214,35 L215,39 L215,54 L235,54 L242,56 L247,62 L248,69 L229,139 L215,188 L211,193 L207,195 L-2,195 L-8,191 L-11,185 L-11,12 L-8,6 L-2,1 Z M34,60 L29,64 L24,80 L18,103 L11,127 L6,147 L0,168 L-4,182 L-4,187 L-1,190 L204,190 L208,188 L211,181 L223,139 L227,124 L232,106 L239,82 L242,70 L242,64 L239,61 L237,60 Z " fill="#79998B" transform="translate(1831,245)"/>
<path d="M0,0 L11,0 L25,3 L41,11 L52,21 L59,31 L64,43 L66,51 L66,72 L62,85 L57,95 L49,105 L41,112 L29,119 L15,123 L-5,123 L-19,119 L-31,112 L-42,102 L-49,92 L-54,81 L-56,73 L-57,59 L-55,46 L-50,33 L-43,23 L-38,17 L-27,9 L-15,3 Z " fill="#8FAFA4" transform="translate(706,1244)"/>
<path d="M0,0 L19,0 L30,4 L39,10 L45,15 L52,25 L57,38 L58,51 L55,65 L49,77 L42,85 L32,92 L22,96 L17,97 L2,97 L-10,94 L-22,87 L-31,77 L-37,65 L-40,51 L-39,39 L-35,27 L-28,16 L-19,8 L-7,2 Z " fill="#8FAFA4" transform="translate(2439,810)"/>
<path d="M0,0 L10,0 L22,3 L33,9 L42,18 L48,28 L52,41 L52,55 L48,68 L43,77 L35,86 L25,92 L14,96 L3,97 L-9,95 L-19,91 L-28,84 L-36,75 L-42,63 L-44,52 L-43,38 L-39,27 L-33,17 L-23,8 L-13,3 L-7,1 Z " fill="#C6BAE5" transform="translate(1065,318)"/>
<path d="M0,0 L8,1 L54,19 L68,25 L69,26 L68,35 L51,79 L38,111 L34,112 L-8,96 L-33,86 L-34,82 L-26,61 L-10,20 L-3,3 Z " fill="#8EAFA3" transform="translate(2192,716)"/>
<path d="M0,0 L9,1 L14,5 L20,21 L38,76 L54,126 L72,181 L86,224 L106,286 L115,314 L115,323 L112,328 L106,333 L31,358 L-12,372 L-67,390 L-98,400 L-106,400 L-112,397 L-116,392 L-136,331 L-154,274 L-176,206 L-191,159 L-208,106 L-215,83 L-214,74 L-209,69 L-199,65 L-142,46 L-92,30 L-44,14 Z M0,6 L-82,33 L-125,47 L-174,63 L-204,73 L-209,78 L-208,86 L-198,117 L-185,157 L-169,207 L-151,263 L-133,320 L-116,372 L-110,390 L-107,393 L-100,394 L-51,378 L46,346 L104,327 L109,322 L108,313 L98,281 L86,245 L66,183 L52,139 L41,106 L28,65 L17,32 L9,8 L6,6 Z " fill="#537A7B" transform="translate(836,200)"/>
<path d="M0,0 L4,0 L10,16 L28,72 L29,80 L20,84 L-16,96 L-41,104 L-46,104 L-49,97 L-67,40 L-71,27 L-69,23 L-31,10 Z " fill="#8DAEA4" transform="translate(739,314)"/>
<path d="M0,0 L9,1 L55,19 L102,37 L146,54 L187,70 L201,76 L206,82 L208,90 L201,110 L182,158 L163,207 L144,256 L129,294 L110,343 L97,376 L92,384 L85,387 L76,386 L46,374 L2,357 L-45,339 L-84,324 L-112,313 L-120,308 L-122,304 L-122,294 L-106,253 L-86,202 L-67,153 L-51,112 L-33,66 L-14,17 L-8,5 L-3,1 Z M-1,7 L-5,11 L-21,52 L-40,101 L-56,142 L-73,186 L-89,227 L-109,278 L-116,296 L-116,303 L-113,306 L-72,322 L-27,339 L14,355 L58,372 L78,380 L87,380 L90,377 L106,336 L123,292 L145,236 L163,190 L182,141 L201,93 L202,87 L199,82 L191,78 L139,58 L90,39 L38,19 L7,7 Z " fill="#537B7C" transform="translate(2152,476)"/>
<path d="M0,0 L11,0 L66,15 L72,19 L76,25 L85,46 L109,53 L171,70 L192,76 L197,79 L200,84 L201,93 L197,109 L207,111 L219,115 L224,120 L225,122 L225,130 L210,156 L197,178 L184,200 L171,222 L163,235 L158,240 L155,241 L148,241 L82,223 L-5,199 L-42,189 L-48,186 L-52,181 L-53,179 L-53,171 L-48,155 L-31,90 L-14,29 L-8,8 L-4,2 Z M1,6 L-3,11 L-12,43 L-17,62 L-24,87 L-31,113 L-41,152 L-40,155 L-24,128 L-7,99 L8,74 L12,68 L17,64 L19,63 L27,63 L62,72 L79,77 L93,81 L116,87 L140,94 L180,105 L192,107 L194,98 L194,86 L190,82 L186,80 L170,76 L144,69 L126,64 L102,57 L83,52 L80,49 L70,26 L67,22 L52,17 L21,9 L11,6 Z M19,68 L14,73 L6,86 L-9,112 L-24,137 L-37,159 L-47,175 L-46,180 L-42,183 L-9,192 L5,196 L18,199 L42,206 L67,213 L100,222 L116,226 L140,233 L147,235 L155,235 L161,227 L177,200 L194,171 L210,144 L219,128 L219,123 L216,120 L174,108 L156,103 L139,98 L105,89 L82,82 L66,78 L48,73 L29,68 Z " fill="#446D74" transform="translate(2003,910)"/>
<path d="M0,0 L7,1 L64,23 L70,26 L69,33 L52,76 L41,103 L38,104 L8,93 L-19,82 L-29,78 L-28,71 L-20,49 L-6,13 L-1,1 Z " fill="#C3BAE3" transform="translate(2145,550)"/>
<path d="M0,0 L62,0 L70,4 L82,19 L86,24 L199,25 L207,29 L211,35 L212,39 L212,55 L234,55 L240,58 L244,62 L245,65 L245,72 L226,140 L213,186 L209,192 L205,195 L170,196 L-1,196 L-8,193 L-12,189 L-13,186 L-13,11 L-10,6 L-6,2 Z M0,6 L-5,9 L-7,12 L-7,166 L-5,162 L-1,148 L6,123 L13,95 L17,80 L22,64 L26,59 L31,57 L206,56 L206,40 L203,33 L199,31 L84,30 L75,20 L68,11 L62,6 Z M32,61 L26,66 L23,74 L19,91 L13,112 L7,136 L0,160 L-4,175 L-6,182 L-6,187 L-2,190 L202,190 L207,185 L210,175 L216,154 L220,140 L228,112 L234,89 L239,71 L239,65 L234,61 Z " fill="#406D6D" transform="translate(422,598)"/>
<path d="M0,0 L4,2 L15,19 L23,35 L28,48 L31,62 L31,83 L27,100 L19,116 L10,128 L-1,139 L-2,139 L-2,130 L-1,127 L1,104 L1,70 L0,64 L-4,63 L-4,107 L-6,129 L-8,141 L-12,139 L-22,126 L-30,112 L-36,96 L-37,89 L-37,65 L-33,50 L-25,34 L-18,22 L-8,9 Z " fill="#8DAEA3" transform="translate(1683,399)"/>
<path d="M0,0 L2,3 L3,14 L3,32 L1,47 L-2,60 L-7,73 L-14,85 L-23,95 L-30,102 L-46,111 L-57,115 L-70,118 L-75,118 L-73,112 L-65,97 L-54,81 L-43,67 L-35,58 L-35,54 L-40,55 L-52,69 L-66,89 L-77,108 L-80,113 L-81,113 L-82,104 L-82,74 L-79,62 L-71,46 L-62,35 L-55,28 L-41,18 L-18,6 L-5,1 Z " fill="#41868A" transform="translate(1476,250)"/>
<path d="M0,0 L67,0 L73,4 L80,12 L89,24 L204,25 L210,29 L214,35 L215,39 L215,54 L235,54 L242,56 L247,62 L248,69 L229,139 L215,188 L211,193 L207,195 L-2,195 L-8,191 L-11,185 L-11,12 L-8,6 L-2,1 Z M2,5 L-5,11 L-5,165 L-3,161 L13,103 L18,85 L24,64 L29,58 L33,56 L209,55 L209,37 L207,33 L201,30 L86,29 L78,19 L69,7 L65,5 Z M34,60 L29,64 L24,80 L18,103 L11,127 L6,147 L0,168 L-4,182 L-4,187 L-1,190 L204,190 L208,188 L211,181 L223,139 L227,124 L232,106 L239,82 L242,70 L242,64 L239,61 L237,60 Z " fill="#3A6767" transform="translate(1831,245)"/>
<path d="M0,0 L4,0 L10,16 L12,23 L12,29 L-24,41 L-78,59 L-121,73 L-164,87 L-167,86 L-175,62 L-174,57 L-138,45 L-74,24 L-16,5 Z " fill="#8DAFA3" transform="translate(827,231)"/>
<path d="M0,0 L4,1 L16,37 L20,49 L20,54 L11,58 L-42,75 L-66,83 L-71,83 L-75,72 L-87,35 L-87,29 L-53,17 L-19,6 Z " fill="#8DAEA3" transform="translate(900,457)"/>
<path d="M0,0 L9,2 L15,9 L26,51 L48,138 L51,151 L51,158 L47,164 L43,167 L17,174 L-49,191 L-131,212 L-154,218 L-163,218 L-168,215 L-172,209 L-188,145 L-213,45 L-213,35 L-209,29 L-204,26 L-144,11 L-135,13 L-126,19 L-115,28 L-106,27 L-47,12 L-5,1 Z M-2,6 L-16,10 L-33,14 L-48,18 L-71,24 L-98,31 L-109,34 L-116,34 L-133,21 L-139,18 L-148,18 L-164,22 L-201,31 L-207,35 L-207,45 L-189,116 L-166,208 L-163,212 L-153,212 L-131,206 L-95,197 L-77,192 L-42,183 L14,169 L29,165 L42,161 L45,157 L45,150 L41,134 L24,67 L19,46 L13,25 L9,10 L4,6 Z " fill="#486F74" transform="translate(742,919)"/>
<path d="M0,0 L12,1 L22,5 L32,14 L38,24 L40,32 L40,44 L36,56 L29,65 L21,71 L11,75 L-5,75 L-16,71 L-25,64 L-31,55 L-34,47 L-35,37 L-33,26 L-27,14 L-18,6 L-10,2 Z " fill="#F1C5C5" transform="translate(468,399)"/>
<path d="M0,0 L14,0 L25,4 L33,10 L40,19 L43,26 L44,31 L44,43 L41,53 L35,62 L27,69 L19,73 L11,75 L-2,74 L-12,70 L-21,63 L-27,54 L-30,46 L-31,36 L-29,25 L-24,15 L-15,6 L-5,1 Z " fill="#F2C3C2" transform="translate(2037,1263)"/>
<path d="M0,0 L11,0 L22,3 L33,11 L40,21 L43,30 L43,45 L39,56 L32,65 L22,72 L13,75 L0,75 L-12,71 L-21,64 L-27,56 L-31,45 L-31,31 L-27,20 L-21,12 L-13,5 L-4,1 Z " fill="#F2C5C3" transform="translate(270,887)"/>
<path d="M0,0 L11,0 L23,4 L33,12 L39,22 L42,31 L42,45 L38,56 L31,65 L22,71 L14,74 L3,75 L-7,73 L-17,68 L-25,60 L-31,48 L-32,44 L-32,31 L-28,20 L-22,12 L-14,5 L-5,1 Z " fill="#C6BAE5" transform="translate(2356,911)"/>
<path d="M0,0 L6,0 L20,41 L23,53 L18,56 L-41,75 L-45,74 L-50,61 L-61,26 L-61,21 L-51,17 L-15,5 Z " fill="#C4BBE3" transform="translate(786,494)"/>
<path d="M0,0 L8,0 L27,5 L42,11 L53,18 L62,27 L70,40 L75,56 L76,63 L76,74 L71,69 L62,59 L55,51 L43,40 L37,35 L34,35 L35,40 L46,50 L54,57 L65,69 L72,79 L72,80 L60,80 L44,76 L34,71 L25,64 L20,59 L14,52 L6,36 L2,21 L0,7 Z " fill="#8DAFA4" transform="translate(1291,313)"/>
<path d="M0,0 L22,0 L47,7 L61,14 L59,18 L52,26 L45,33 L32,43 L20,49 L5,53 L-5,53 L-20,51 L-32,46 L-42,40 L-43,38 L-30,34 L-10,30 L12,27 L12,24 L-2,24 L-27,28 L-42,31 L-38,24 L-27,13 L-16,6 L-4,1 Z " fill="#418489" transform="translate(1735,543)"/>
<path d="M0,0 L1,0 L1,545 L18,541 L63,533 L123,524 L159,520 L183,518 L202,517 L241,517 L241,518 L219,519 L219,522 L227,522 L227,523 L174,526 L128,531 L83,537 L37,545 L-2,552 L-5,551 L-5,517 L-4,309 L0,307 Z " fill="#5B8284" transform="translate(951,659)"/>
<path d="M0,0 L23,0 L38,5 L48,11 L56,19 L65,33 L69,41 L66,42 L45,34 L26,25 L23,23 L18,22 L19,26 L36,35 L61,45 L66,47 L64,49 L51,53 L45,54 L31,54 L18,50 L6,43 L-8,29 L-15,19 L-22,7 L-22,5 L-6,1 Z " fill="#8CADA3" transform="translate(1017,911)"/>
<path d="M0,0 L4,1 L-6,19 L-17,42 L-16,45 L-13,44 L-2,21 L10,3 L12,2 L15,15 L15,33 L11,45 L6,54 L-3,64 L-10,70 L-28,80 L-37,83 L-39,77 L-39,44 L-34,29 L-27,18 L-20,11 L-7,3 Z " fill="#408489" transform="translate(1099,983)"/>
<path d="M0,0 L4,0 L10,16 L12,23 L12,29 L-24,41 L-78,59 L-121,73 L-164,87 L-167,86 L-175,62 L-174,57 L-138,45 L-74,24 L-16,5 Z M-1,6 L-65,27 L-91,36 L-108,41 L-131,49 L-148,54 L-168,61 L-166,71 L-163,80 L-153,77 L-97,59 L-18,33 L6,25 L4,16 L0,6 Z " fill="#497476" transform="translate(827,231)"/>
<path d="M0,0 L4,0 L10,16 L28,72 L29,80 L20,84 L-16,96 L-41,104 L-46,104 L-49,97 L-67,40 L-71,27 L-69,23 L-31,10 Z M-3,7 L-29,16 L-46,21 L-64,27 L-62,37 L-43,97 L-36,96 L14,80 L23,77 L21,68 L4,16 L1,7 Z " fill="#497475" transform="translate(739,314)"/>
<path d="M0,0 L67,0 L73,4 L80,12 L89,24 L204,25 L204,26 L152,27 L151,29 L185,29 L185,30 L86,30 L79,22 L71,11 L67,7 L65,6 L2,6 L-4,11 L-4,167 L-6,167 L-6,147 L-9,148 L-10,185 L-11,185 L-11,12 L-8,6 L-2,1 Z " fill="#477272" transform="translate(1831,245)"/>
<path d="M0,0 L7,1 L64,23 L70,26 L69,33 L52,76 L41,103 L38,104 L8,93 L-19,82 L-29,78 L-28,71 L-20,49 L-6,13 L-1,1 Z M3,7 L-2,19 L-18,60 L-23,72 L-22,75 L24,93 L34,97 L38,97 L44,80 L55,52 L63,32 L63,29 L17,11 L7,7 Z " fill="#4C757B" transform="translate(2145,550)"/>
<path d="M0,0 L4,1 L16,37 L20,49 L20,54 L11,58 L-42,75 L-66,83 L-71,83 L-75,72 L-87,35 L-87,29 L-53,17 L-19,6 Z M-2,7 L-19,12 L-50,22 L-79,32 L-80,33 L-79,41 L-68,76 L-61,75 L-14,60 L13,51 L12,42 L1,8 Z " fill="#497576" transform="translate(900,457)"/>
<path d="M0,0 L4,1 L3,8 L-12,47 L-23,75 L-23,78 L26,97 L34,100 L37,100 L53,59 L66,25 L71,24 L71,31 L54,75 L41,107 L37,108 L-5,92 L-30,82 L-31,78 L-23,57 L-7,16 L-1,1 Z " fill="#4A7978" transform="translate(2189,720)"/>
<path d="M0,0 L6,0 L20,41 L23,53 L18,56 L-41,75 L-45,74 L-50,61 L-61,26 L-61,21 L-51,17 L-15,5 Z M0,6 L-43,20 L-53,24 L-54,28 L-49,46 L-41,68 L-35,67 L-14,60 L-1,56 L16,50 L15,43 L3,7 Z " fill="#4C747A" transform="translate(786,494)"/>
<path d="M0,0 L17,0 L30,3 L29,8 L20,7 L-1,7 L-14,11 L-26,18 L-34,25 L-43,38 L-48,49 L-50,58 L-50,82 L-48,90 L-62,88 L-82,88 L-95,92 L-106,98 L-110,101 L-114,101 L-114,96 L-100,87 L-87,82 L-82,81 L-66,81 L-56,83 L-57,74 L-57,61 L-54,47 L-49,35 L-41,24 L-36,18 L-24,9 L-14,4 Z " fill="#356A6A" transform="translate(1546,808)"/>
<path d="M0,0 L3,1 L4,6 L-12,12 L-61,28 L-111,44 L-169,63 L-174,63 L-176,59 L-168,55 L-115,38 L-57,19 L-20,7 Z " fill="#537A7B" transform="translate(884,406)"/>
<path d="M0,0 L5,1 L4,6 L-69,30 L-112,44 L-168,62 L-173,61 L-172,56 L-101,33 L-74,24 L-24,8 Z " fill="#52797B" transform="translate(874,382)"/>
<path d="M0,0 L8,1 L57,20 L104,38 L150,56 L165,62 L167,64 L166,68 L159,67 L110,48 L53,26 L6,8 L0,5 L-1,1 Z " fill="#537B7D" transform="translate(2107,648)"/>
<path d="M0,0 L39,0 L56,1 L56,2 L48,3 L48,5 L40,6 L40,7 L13,7 L-20,9 L-47,13 L-75,19 L-99,26 L-111,30 L-116,29 L-116,25 L-113,23 L-84,14 L-56,7 L-25,2 Z " fill="#4E777A" transform="translate(1560,1176)"/>
<path d="M0,0 L8,0 L7,4 L11,5 L10,8 L10,6 L-39,13 L-94,22 L-110,25 L-119,24 L-118,22 L-122,20 L-73,11 L-16,2 Z " fill="#53797B" transform="translate(1085,630)"/>
<path d="M0,0 L17,1 L59,7 L127,19 L127,20 L121,21 L120,20 L118,22 L112,22 L108,23 L55,14 L7,7 L-1,7 Z " fill="#52787A" transform="translate(1657,630)"/>
<path d="M0,0 L5,0 L6,4 L-3,8 L-76,32 L-113,44 L-118,43 L-117,39 L-107,35 L-65,21 L-22,7 Z " fill="#547A7C" transform="translate(835,450)"/>
<path d="M0,0 L7,1 L54,19 L98,36 L102,39 L100,43 L95,42 L65,31 L32,18 L1,6 L-1,2 Z " fill="#567E80" transform="translate(2192,527)"/>
<path d="M0,0 L2,1 L2,6 L-17,13 L-76,32 L-81,31 L-80,26 L-10,3 Z " fill="#557C7E" transform="translate(861,330)"/>
<path d="M0,0 L6,0 L6,5 L-35,19 L-72,31 L-77,31 L-78,27 L-73,24 Z " fill="#537B7C" transform="translate(849,306)"/>
<path d="M0,0 L5,1 L5,5 L-36,19 L-73,31 L-78,31 L-79,27 L-74,24 L-25,8 Z " fill="#547A7D" transform="translate(842,281)"/>
<path d="M0,0 L5,1 L7,15 L11,27 L17,37 L26,46 L42,54 L55,56 L56,61 L55,62 L48,62 L34,58 L22,51 L11,40 L4,28 L-1,11 L-1,1 Z " fill="#356868" transform="translate(1438,593)"/>
<path d="M0,0 L16,6 L58,22 L74,28 L76,30 L75,34 L72,35 L23,16 L-1,7 L-3,3 Z " fill="#577D7F" transform="translate(2236,584)"/>
<path d="M0,0 L9,2 L56,20 L76,28 L76,33 L70,33 L31,18 L1,7 L-2,4 Z " fill="#547C7D" transform="translate(2074,733)"/>
<path d="M0,0 L7,1 L65,23 L76,28 L77,33 L74,34 L37,20 L11,10 L1,6 L-1,2 Z " fill="#557C7C" transform="translate(2092,685)"/>
<path d="M0,0 L7,1 L60,21 L77,28 L78,32 L74,34 L22,14 L1,6 L-1,4 Z " fill="#557C7E" transform="translate(2225,609)"/>
<path d="M0,0 L7,1 L46,16 L74,27 L77,29 L76,33 L73,34 L26,16 L1,6 L-1,4 Z " fill="#547C7D" transform="translate(2083,709)"/>
<path d="M0,0 L7,1 L46,16 L75,27 L77,29 L76,33 L69,32 L31,18 L1,6 L-1,5 Z " fill="#557D7E" transform="translate(2216,633)"/>
<path d="M0,0 L4,1 L4,9 L0,25 L-6,37 L-14,47 L-25,55 L-37,60 L-41,61 L-53,61 L-52,56 L-38,54 L-24,47 L-16,40 L-8,28 L-3,13 L-2,2 Z " fill="#306668" transform="translate(1311,593)"/>
<path d="M0,0 L8,1 L54,19 L68,25 L69,26 L69,32 L68,28 L63,29 L26,15 L3,6 L1,8 L0,5 L-3,3 Z " fill="#7F9FA8" transform="translate(2192,716)"/>
<path d="M0,0 L9,2 L36,13 L49,18 L51,22 L50,24 L43,23 L4,8 L-1,5 Z " fill="#567E7F" transform="translate(2065,757)"/>
<path d="M0,0 L4,0 L5,3 L3,6 L-40,20 L-45,19 L-44,14 L-4,1 Z " fill="#497274" transform="translate(833,367)"/>
<path d="M0,0 L10,3 L44,17 L46,18 L45,23 L39,22 L1,7 L-2,5 L-1,1 Z " fill="#567E7F" transform="translate(2207,656)"/>
<path d="M0,0 L1,0 L1,112 L-3,114 L-3,53 L-1,52 Z " fill="#345F61" transform="translate(950,854)"/>
<path d="M0,0 L4,1 L-2,2 L-2,8 L-29,17 L-34,17 L-36,13 L-28,9 Z " fill="#587D7E" transform="translate(744,452)"/>
<path d="M0,0 L7,2 L23,12 L30,17 L25,21 L11,11 L-1,6 L-4,4 L0,3 Z " fill="#569994" transform="translate(1497,893)"/>
<path d="M0,0 L2,1 L-2,3 L-5,3 L-4,8 L-14,12 L-20,14 L-25,14 L-26,10 L-21,7 Z " fill="#5D8384" transform="translate(797,323)"/>
<path d="M0,0 L43,0 L40,3 L-1,3 Z " fill="#2D5C5F" transform="translate(1983,271)"/>
<path d="M0,0 L4,1 L-2,2 L-2,5 L2,7 L-13,12 L-18,11 L-18,7 L-15,5 Z " fill="#557E7F" transform="translate(1462,1194)"/>
<path d="M0,0 L8,1 L15,4 L13,5 L13,10 L4,7 L-1,4 Z " fill="#567C7E" transform="translate(2107,648)"/>
<path d="M0,0 L4,0 L5,3 L3,6 L-8,9 L-7,5 L-16,6 L-13,4 Z " fill="#628588" transform="translate(833,367)"/>
<path d="M0,0 L2,1 L-5,4 L-8,4 L-10,8 L-8,10 L-20,13 L-20,11 L-18,11 L-18,9 L-22,7 Z " fill="#648788" transform="translate(710,241)"/>
<path d="M0,0 L6,0 L5,3 L3,3 L2,6 L-7,8 L-10,6 L-10,4 Z " fill="#426F71" transform="translate(687,249)"/>
<path d="M0,0 L2,1 L-7,11 L-15,19 L-18,20 L-16,16 L-5,4 Z " fill="#5E8181" transform="translate(1707,549)"/>
<path d="M0,0 L10,0 L21,2 L21,3 L15,4 L14,3 L12,5 L6,5 L2,6 L1,3 L2,1 Z " fill="#5C8080" transform="translate(1763,647)"/>
<path d="M0,0 L2,1 L-18,21 L-20,20 L-9,8 Z " fill="#EFCCCB" transform="translate(2320,200)"/>
<path d="M0,0 L9,2 L6,8 L0,6 L-2,2 Z " fill="#618687" transform="translate(2074,733)"/>
<path d="M0,0 L2,1 L-5,9 L-12,17 L-13,13 L-5,4 Z " fill="#597D7E" transform="translate(1093,654)"/>
<path d="M0,0 L2,1 L-7,11 L-14,17 L-14,14 L-7,6 Z " fill="#577A79" transform="translate(1129,552)"/>
<path d="M0,0 L2,1 L-7,11 L-12,16 L-14,15 L-5,5 Z " fill="#CABFDE" transform="translate(285,175)"/>
<path d="M0,0 L2,1 L-7,11 L-9,13 L-12,12 L-5,4 Z " fill="#608485" transform="translate(1078,987)"/>
<path d="M0,0 L4,1 L-6,11 L-9,12 L-7,8 Z " fill="#5D8081" transform="translate(1259,432)"/>
<path d="M0,0 L2,1 L-7,11 L-9,13 L-12,12 Z " fill="#577C7B" transform="translate(1184,470)"/>
<path d="M0,0 L4,1 L-3,4 L-2,5 L1,5 L1,7 L-6,8 L-7,3 Z " fill="#718E90" transform="translate(708,436)"/>
<path d="M0,0 L6,2 L5,7 L-4,5 L0,3 Z " fill="#488483" transform="translate(1497,893)"/>
<path d="M0,0 L4,1 L-4,9 L-6,8 L-4,4 Z " fill="#618483" transform="translate(1682,391)"/>
<path d="M0,0 L2,1 L-8,12 L-11,11 Z " fill="#608182" transform="translate(1418,273)"/>
<path d="M0,0 L4,1 L1,1 L-1,5 L-6,9 L-6,6 L-2,1 Z " fill="#628383" transform="translate(948,653)"/>
<path d="M0,0 L2,1 L-8,11 L-10,10 L-4,3 Z " fill="#AEBFB7" transform="translate(2420,818)"/>
<path d="M0,0 L2,1 L-3,4 L-5,4 L-5,6 L-2,6 L-2,8 L-7,7 L-6,2 Z " fill="#69878A" transform="translate(795,379)"/>
<path d="M0,0 L2,1 L-3,7 L-4,12 L-6,11 L-5,5 Z " fill="#5B7D7B" transform="translate(1827,247)"/>
<path d="M0,0 L4,1 L-2,7 L-4,7 L-2,2 Z " fill="#537677" transform="translate(534,947)"/>
<path d="M0,0 L2,1 L-6,10 L-9,9 Z " fill="#658584" transform="translate(1408,431)"/>
<path d="M0,0 L2,0 L0,4 L-5,9 L-7,8 Z " fill="#CFC4E1" transform="translate(1038,329)"/>
<path d="M0,0 L2,1 L-7,10 L-9,9 L-4,4 Z " fill="#ABBEB4" transform="translate(674,1256)"/>
<path d="M0,0 L6,1 L7,5 L4,8 L4,2 Z " fill="#688684" transform="translate(1797,553)"/>
<path d="M0,0 L5,0 L6,4 L1,6 L1,4 L4,1 L-3,2 Z " fill="#769495" transform="translate(835,450)"/>
<path d="M0,0 L6,0 L3,2 L-5,4 L-6,2 Z " fill="#678785" transform="translate(784,582)"/>
<path d="M0,0 L2,0 L0,4 L-4,7 L-3,2 Z " fill="#577A7D" transform="translate(2001,911)"/>
<path d="M0,0 L6,0 L6,4 L1,4 Z " fill="#456F72" transform="translate(792,465)"/>
<path d="M0,0 L2,3 L0,9 L-2,10 Z " fill="#949EBC" transform="translate(1964,1055)"/>
<path d="M0,0 L2,0 L1,8 L-1,8 Z " fill="#60807F" transform="translate(1097,603)"/>
</svg>
